<?xml version="1.0" encoding="UTF-8" standalone="no"?>
<!DOCTYPE svg PUBLIC "-//W3C//DTD SVG 1.1//EN" "http://www.w3.org/Graphics/SVG/1.1/DTD/svg11.dtd">
<svg width="100%" height="100%" viewBox="0 0 450 441" version="1.1" xmlns="http://www.w3.org/2000/svg" xmlns:xlink="http://www.w3.org/1999/xlink" xml:space="preserve" xmlns:serif="http://www.serif.com/" style="fill-rule:evenodd;clip-rule:evenodd;stroke-linejoin:round;stroke-miterlimit:2;">
    <g transform="matrix(1,0,0,1,-10344,-37.218153)">
        <g transform="matrix(3.588967,0,0,3.588967,7322.6248,-1172.674119)">
            <path d="M862.502,337.126C868.225,337.764 867.139,339.676 869.818,345.356C872.31,350.643 871.498,353.9 875.505,354.08C878.212,354.202 961.041,353.944 962.551,354.245C965.466,354.827 969.358,358.445 965.836,364.685C964.717,366.666 958.987,379.566 953.142,392.341C946.715,406.387 946.307,408.895 938.514,408.983C904.592,409.369 888.287,408.416 886.618,409.656C886.236,409.94 878.838,419.755 886.507,420.366C890.386,420.676 951.206,419.866 953.403,420.769C957.705,422.536 958.757,431.582 950.5,431.665C920.441,431.97 892.541,431.717 887.501,431.671C869.688,431.51 870.08,416.783 872.828,411.667C878.466,401.172 878.821,401.108 878.387,399.537C877.935,397.902 877.707,397.999 871.019,379.652C870.429,378.035 870.327,378.097 863.398,359.539C862.155,356.209 860.355,349.18 858.493,348.52C854.35,347.051 841.654,351.422 841.853,342.507C841.864,342.011 841.938,338.711 845.498,337.493C846.702,337.082 846.73,337.099 862.502,337.126Z" style="fill:rgb(56,61,64);"/>
        </g>
        <g transform="matrix(3.588967,0,0,3.588967,7322.6248,-1172.674119)">
            <path d="M931.078,449.528C931.081,449.362 931.122,447.443 931.122,447.443C932.491,434.489 950.803,434.064 953.135,446.562C955.135,457.279 942.045,463.722 934.763,457.211C931.216,454.038 931.147,449.983 931.078,449.528Z" style="fill:rgb(54,59,62);"/>
        </g>
        <g transform="matrix(3.588967,0,0,3.588967,7322.6248,-1172.674119)">
            <path d="M896.392,443.558C903.021,460.296 879.203,466.404 875.423,450.519C874.238,445.536 879.013,435.292 889.463,437.67C893.789,438.655 895.797,442.572 896.392,443.558Z" style="fill:rgb(56,61,63);"/>
        </g>
    </g>
</svg>
