<?xml version="1.0" encoding="UTF-8" standalone="no"?>
<!DOCTYPE svg PUBLIC "-//W3C//DTD SVG 1.1//EN" "http://www.w3.org/Graphics/SVG/1.1/DTD/svg11.dtd">
<svg width="100%" height="100%" viewBox="0 0 450 447" version="1.1" xmlns="http://www.w3.org/2000/svg" xmlns:xlink="http://www.w3.org/1999/xlink" xml:space="preserve" xmlns:serif="http://www.serif.com/" style="fill-rule:evenodd;clip-rule:evenodd;stroke-linejoin:round;stroke-miterlimit:2;">
    <g transform="matrix(1,0,0,1,-6972.069692,-34.998184)">
        <g transform="matrix(1,0,0,1,-2806.930308,0)">
            <g transform="matrix(1.346206,0,0,1.346206,7442.390417,-375.378856)">
                <path d="M1735.977,426.032C1736.571,418.414 1736.563,418.463 1736.618,417.805C1740.036,377.329 1770.582,334.189 1810.328,316.461C1883.518,283.815 1944.335,327.885 1962.253,351.442C1992.34,390.998 1990.998,426.287 1991.038,428.625C1991.804,474.029 1974.35,495.467 1969.434,504.395C1965.307,511.893 1979.226,518.716 1982.195,519.254C1991.605,520.958 1992.912,519.184 2003.926,530.374C2040.755,567.794 2041.237,567.295 2044.397,570.588C2058.945,585.745 2074.938,595.643 2068.51,616.946C2065.506,626.902 2055.026,633.601 2049.097,635.159C2035.526,638.725 2026.981,631.545 2025,630.262C2018.998,626.375 2019.573,625.693 1961.506,567.36C1948.6,554.395 1956.915,549.09 1948.539,540.027C1941.45,532.358 1936.484,537.668 1935.855,538.118C1928.716,543.223 1920.828,546.806 1918.186,548.199C1890.812,562.63 1847.221,561.759 1828.586,555.775C1725.799,522.768 1735.978,426.25 1735.977,426.032ZM1768.602,431.345C1768.606,431.197 1765.64,394.198 1796.933,364.529C1816.372,346.099 1841.174,334.401 1874.416,338.258C1956.418,347.773 1994.919,455.574 1917.215,511.53C1884.109,535.371 1833.778,533.488 1802.551,505.947C1767.204,474.773 1768.853,444.294 1768.602,431.345Z" style="fill:rgb(56,60,63);"/>
            </g>
        </g>
    </g>
</svg>
