<?xml version="1.0" encoding="UTF-8" standalone="no"?>
<!DOCTYPE svg PUBLIC "-//W3C//DTD SVG 1.1//EN" "http://www.w3.org/Graphics/SVG/1.1/DTD/svg11.dtd">
<svg width="100%" height="100%" viewBox="0 0 450 247" version="1.1" xmlns="http://www.w3.org/2000/svg" xmlns:xlink="http://www.w3.org/1999/xlink" xml:space="preserve" xmlns:serif="http://www.serif.com/" style="fill-rule:evenodd;clip-rule:evenodd;stroke-linejoin:round;stroke-miterlimit:2;">
    <g transform="matrix(1,0,0,1,-10911.326603,-2024.669647)">
        <g transform="matrix(1,0,0,1,-3934,1891.897378)">
            <g transform="matrix(1.351212,0,0,1.351212,12498.113882,-1190.804033)">
                <path d="M2070.076,1097.845C2070.172,1156.505 2070.793,1158.193 2065.782,1160.483C2061.333,1162.516 2054.413,1161.764 1783.157,1161.903C1743.682,1161.923 1739.678,1162.877 1737.834,1154.201C1736.958,1150.081 1736.793,992.588 1737.853,987.743C1739.968,978.066 1744.792,980.038 1796.596,979.852C1817.866,979.776 2056.835,978.919 2062.476,980.471C2071.715,983.014 2069.954,990.787 2070.025,1022.602C2070.042,1047.683 2070.059,1072.764 2070.076,1097.845ZM1949.775,1142.782C1932.305,1143.188 1932.079,1144.173 1931.121,1143.296C1927.758,1140.215 1933.148,1138.217 1933.582,1138.056C1935.868,1137.209 1945.662,1133.579 1955.468,1116.859C1980.45,1074.26 1961.165,1014.784 1933.427,1004.061C1931.207,1003.203 1930.544,1003.541 1930.361,1001.119C1930.156,998.398 1930.969,998.351 1933.666,998.461C1972.638,1000.053 1972.598,999.006 2011.583,999.225C2023.425,999.291 2015.945,1009.56 2032.281,1023.612C2043.189,1032.993 2050.37,1027.361 2050.794,1038.72C2050.858,1040.429 2050.845,1105.17 2050.767,1105.857C2049.717,1115.109 2038.92,1108.43 2025.568,1125.162C2018.116,1134.5 2021.395,1142.123 2014.225,1142.905C2012.933,1143.046 1990.25,1142.745 1949.775,1142.782ZM1850.341,999.266C1875.196,999.234 1877.768,997.192 1877.506,1001.123C1877.308,1004.079 1871.953,1003.758 1864.759,1010.231C1829.987,1041.517 1834.127,1111.187 1869.001,1135.679C1873.126,1138.576 1877.14,1138.176 1877.39,1140.812C1877.768,1144.806 1875.833,1143.818 1871.842,1143.513C1842.59,1141.271 1794.152,1144.726 1790.515,1141.756C1786.994,1138.881 1787.063,1123.092 1769.525,1114.384C1763.288,1111.288 1757.011,1113.852 1756.941,1103.228C1756.906,1097.832 1756.707,1038.182 1756.967,1036.105C1758.127,1026.846 1776.79,1033.177 1787.052,1006.884C1791.003,996.761 1793.798,999.191 1804.66,999.201C1819.887,999.222 1835.114,999.244 1850.341,999.266ZM1916.015,1089.686C1913.857,1083.908 1914.174,1083.388 1908.757,1080.306C1903.351,1077.23 1896.231,1075.225 1893.17,1074.103C1880.471,1069.445 1871.141,1058.334 1876.861,1043.937C1883.189,1028.006 1894.665,1034.669 1896.446,1022.645C1898.006,1012.113 1909.565,1015.848 1910.844,1020.277C1911.329,1021.956 1911.089,1023.779 1911.485,1025.481C1912.657,1030.527 1935.3,1034.914 1927.623,1043.496C1922.576,1049.138 1921.242,1048.205 1914.695,1044.341C1905.359,1038.831 1895.498,1042.796 1893.386,1046.807C1885.405,1061.967 1915.229,1063.753 1925.719,1073.518C1927.178,1074.875 1936.82,1083.85 1931.005,1097.859C1926.22,1109.385 1915.532,1112.492 1915.38,1112.578C1908.186,1116.656 1913.409,1126.972 1904.106,1126.45C1895.354,1125.959 1897.143,1119.888 1895.983,1116.676C1894.3,1112.01 1869.784,1107.813 1877.896,1098.459C1882.922,1092.662 1884.29,1093.472 1890.953,1097.337C1896.879,1100.774 1905.707,1101.084 1909.209,1099.753C1917.009,1096.786 1915.764,1091.042 1916.015,1089.686Z" style="fill:rgb(52,57,60);"/>
            </g>
        </g>
        <g transform="matrix(1,0,0,1,-3934,1891.897378)">
            <g transform="matrix(3.631382,0,0,3.631382,12498.113882,-1190.804033)">
                <path d="M663.803,399.435C663.616,390.069 671.676,392.308 672.397,392.7C680.434,397.075 673.963,406.011 668.543,404.345C664.015,402.952 663.912,399.741 663.803,399.435Z" style="fill:rgb(57,61,64);"/>
            </g>
        </g>
        <g transform="matrix(1,0,0,1,-3934,1891.897378)">
            <g transform="matrix(3.631382,0,0,3.631382,12498.113882,-1190.804033)">
                <path d="M753.049,398.486C752.93,399.076 752.913,401.595 750.434,403.396C744.244,407.893 735.625,397.538 744.573,392.643C747.228,391.19 750.167,393.131 750.571,393.398C753.059,395.041 752.995,398.107 753.049,398.486Z" style="fill:rgb(56,61,64);"/>
            </g>
        </g>
    </g>
</svg>
