<?xml version="1.0" encoding="UTF-8" standalone="no"?>
<!DOCTYPE svg PUBLIC "-//W3C//DTD SVG 1.1//EN" "http://www.w3.org/Graphics/SVG/1.1/DTD/svg11.dtd">
<svg width="100%" height="100%" viewBox="0 0 465 464" version="1.1" xmlns="http://www.w3.org/2000/svg" xmlns:xlink="http://www.w3.org/1999/xlink" xml:space="preserve" xmlns:serif="http://www.serif.com/" style="fill-rule:evenodd;clip-rule:evenodd;stroke-linejoin:round;stroke-miterlimit:2;">
    <g transform="matrix(1,0,0,1,-6403.046621,-1916.182513)">
        <g transform="matrix(1,0,0,1,-2809.930308,1891.897378)">
            <g transform="matrix(1.449308,0,0,1.449308,8214.978896,-425.258617)">
                <path d="M823.873,311.636C858.032,308.637 880.031,309.271 912.688,323.195C969.867,347.574 997.359,398.235 1004.431,431.212C1027.017,536.526 958.489,612.71 874.901,628.228C861.872,630.647 832.179,630.432 820.937,628.007C781.037,619.4 758.086,602.184 753.371,598.647C672.467,537.96 683.382,445.347 701.489,406.586C725.348,355.506 762.65,324.047 823.873,311.636ZM823.959,602.064C804.798,597.179 804.847,597.11 788.694,590.103C775.959,584.579 754.747,567.352 749.253,559.772C744.186,552.781 756.898,531.649 771.69,518.946C799.589,494.985 815.293,504.219 818.744,505.386C866.517,521.541 873.679,502.114 890.916,502.555C922.454,503.363 949.496,545.234 949.968,554.976C950.424,564.373 915.939,590.866 888.305,598.292C855.883,607.004 843.452,605.25 823.959,602.064ZM834.237,376.587C835.554,376.334 844.096,374.122 850.613,374.538C891.568,377.152 908.065,412.041 904.639,436.757C897.937,485.101 847.403,496.55 819.086,478.586C788.709,459.314 785.648,417.485 804.352,395.941C818.726,379.385 827.742,378.482 834.237,376.587Z" style="fill:rgb(55,59,63);"/>
            </g>
        </g>
    </g>
</svg>
