<?xml version="1.0" encoding="UTF-8" standalone="no"?>
<!DOCTYPE svg PUBLIC "-//W3C//DTD SVG 1.1//EN" "http://www.w3.org/Graphics/SVG/1.1/DTD/svg11.dtd">
<svg width="100%" height="100%" viewBox="0 0 450 469" version="1.1" xmlns="http://www.w3.org/2000/svg" xmlns:xlink="http://www.w3.org/1999/xlink" xml:space="preserve" xmlns:serif="http://www.serif.com/" style="fill-rule:evenodd;clip-rule:evenodd;stroke-linejoin:round;stroke-miterlimit:2;">
    <g transform="matrix(1,0,0,1,-5848.069692,-1299.419672)">
        <g transform="matrix(1,0,0,1,-3933.930308,1277.901547)">
            <g transform="matrix(3.949341,0,0,3.949341,7984.96001,-434.695631)">
                <path d="M501.595,186.2C501.802,186.251 508.217,188.753 519.429,187.083C524.996,186.254 529.872,183.33 530.698,182.834C533.979,180.866 534.497,180.609 543.264,184.96C547.738,187.179 557.125,194.331 562.334,203.591C566.437,210.884 574.266,231.423 563.587,233.889C563,234.025 563.031,234.281 473.5,234.23C462.312,234.223 458.575,234.9 455.879,230.287C452.865,225.13 457.563,202.502 473.852,189.923C482.775,183.033 489.29,180.792 491.398,181.734C491.724,181.879 491.75,181.891 495.345,183.796C497.397,184.882 500.868,185.933 501.595,186.2Z" style="fill:rgb(56,60,64);"/>
            </g>
        </g>
        <g transform="matrix(1,0,0,1,-3933.930308,1277.901547)">
            <g transform="matrix(3.949341,0,0,3.949341,7984.96001,-434.695631)">
                <path d="M506.579,115.937C508.282,115.76 520.967,113.19 532.702,123.266C533.634,124.066 543.715,131.988 543.188,147.49C542.241,175.372 510.691,186.565 492.219,170.827C473.405,154.796 482.642,134.184 485.27,130.353C493.191,118.807 501.221,117.477 506.579,115.937Z" style="fill:rgb(56,59,63);"/>
            </g>
        </g>
    </g>
</svg>
