<?xml version="1.0" encoding="UTF-8" standalone="no"?>
<!DOCTYPE svg PUBLIC "-//W3C//DTD SVG 1.1//EN" "http://www.w3.org/Graphics/SVG/1.1/DTD/svg11.dtd">
<svg width="100%" height="100%" viewBox="0 0 450 437" version="1.1" xmlns="http://www.w3.org/2000/svg" xmlns:xlink="http://www.w3.org/1999/xlink" xml:space="preserve" xmlns:serif="http://www.serif.com/" style="fill-rule:evenodd;clip-rule:evenodd;stroke-linejoin:round;stroke-miterlimit:2;">
    <g transform="matrix(1,0,0,1,-11468,-37.863484)">
        <g transform="matrix(1.325175,0,0,1.325175,11263.107442,-1160.921373)">
            <path d="M267.408,1233.434C255.44,1233.643 247.338,1235.883 244.818,1227.166C239.391,1208.389 242.076,1204.141 227.252,1199.511C216.14,1196.04 208.389,1208.955 200.332,1211.095C198.374,1211.614 194.081,1212.754 179.706,1196.403C168.311,1183.441 193.236,1174.663 189.508,1162.332C185.766,1149.953 180.289,1148.542 178.92,1148.19C163.05,1144.103 154.918,1147.814 154.775,1132.781C154.611,1115.656 152.724,1110.604 167.824,1107.813C178.237,1105.888 183.724,1106.935 187.062,1097.952C191.35,1086.412 189.464,1085.742 182.308,1075.722C174.721,1065.099 174.741,1063.135 182.086,1055.496C195.722,1041.312 197.812,1040.436 206.238,1045.706C217.38,1052.674 217.459,1056.849 229.784,1052.163C230.667,1051.827 238.891,1048.7 240.179,1046.561C243.571,1040.93 241.591,1021.481 251.282,1019.91C252.013,1019.791 271.611,1019.246 275.184,1020.606C282.743,1023.483 279.99,1046.704 288.461,1050.43C299.795,1055.416 301.011,1057.702 311.059,1050.44C322.617,1042.087 325.09,1038.776 335.2,1048.81C347.505,1061.021 349.897,1062.738 343.965,1071.789C335.222,1085.131 330.422,1086.145 338.344,1100.029C345.228,1112.095 368.556,1101.372 368.671,1119.336C368.787,1137.416 370.564,1142.728 358.581,1145.224C342.445,1148.585 338.546,1146.405 334.322,1162.261C331.371,1173.337 353.533,1182.854 345.06,1194.366C344.448,1195.196 331.941,1208.37 328.932,1210.217C319.97,1215.718 308.623,1195.962 296.928,1199.846C285.66,1203.589 284.56,1204.208 282.656,1215.94C279.918,1232.815 277.17,1233.041 267.408,1233.434ZM254.208,1085.72C255.069,1085.638 255.924,1085.496 256.785,1085.414C300.08,1081.295 317.727,1134.63 288.561,1159.251C251.437,1190.589 201.337,1140.82 227.893,1103.769C238.797,1088.555 250.919,1086.825 254.208,1085.72Z" style="fill:rgb(60,64,66);"/>
        </g>
        <g transform="matrix(1.325175,0,0,1.325175,11263.107442,-1160.921373)">
            <path d="M327.603,992.994C327.604,992.139 327.614,982.313 327.614,982.313C328.505,967.409 346.126,977.518 351.368,966.501C356.723,955.246 352.286,954.974 345.683,944.437C342.787,939.815 341.426,936.453 355.416,925.003C367.116,915.426 371.658,935.055 382.885,930.977C397.831,925.548 392.129,920.354 396.343,909.692C396.986,908.064 399.098,902.721 417.776,905.33C426.804,906.592 425.41,917.784 427.479,923.593C427.864,924.675 429.48,929.212 439.289,931.744C444.927,933.2 454.593,923.323 458.016,922.503C465.061,920.815 475.867,936.014 476.372,936.911C480.179,943.667 465.307,951.318 467.7,961.118C470.591,972.959 480.568,972.321 482.25,972.597C491.492,974.113 494.747,974.718 494.118,993.068C493.601,1008.155 475.676,999.577 469.958,1009.711C464.45,1019.471 466.869,1020.335 472.983,1029.792C479.18,1039.378 476.52,1040.794 468.299,1048.77C453.771,1062.866 451.24,1042.731 439.591,1045.089C417.807,1049.498 432.888,1071.661 415.244,1071.838C400.239,1071.989 396.496,1072.312 394.462,1057.441C392.532,1043.326 378.801,1042.827 372.793,1047.528C364.218,1054.238 361.086,1057.846 348.017,1044.106C336.712,1032.22 357.711,1027.019 353.53,1014.483C350.106,1004.216 347.945,1005.415 337.414,1003.157C326.402,1000.794 328.454,997.778 327.603,992.994ZM390.543,962.822C392.686,961.313 406.989,951.248 423.034,958.656C446.942,969.695 444.049,994.433 438.872,1003.476C421.299,1034.172 380.226,1019.543 378.407,990.287C377.282,972.203 386.322,966.511 390.543,962.822Z" style="fill:rgb(61,65,67);"/>
        </g>
    </g>
</svg>
