<?xml version="1.0" encoding="UTF-8" standalone="no"?>
<!DOCTYPE svg PUBLIC "-//W3C//DTD SVG 1.1//EN" "http://www.w3.org/Graphics/SVG/1.1/DTD/svg11.dtd">
<svg width="100%" height="100%" viewBox="0 0 450 258" version="1.1" xmlns="http://www.w3.org/2000/svg" xmlns:xlink="http://www.w3.org/1999/xlink" xml:space="preserve" xmlns:serif="http://www.serif.com/" style="fill-rule:evenodd;clip-rule:evenodd;stroke-linejoin:round;stroke-miterlimit:2;">
    <g transform="matrix(1,0,0,1,-9220,-3905.8601)">
        <g transform="matrix(1,0,0,1,-2810,3778.455611)">
            <g transform="matrix(2.93745,0,0,2.93745,11326.100765,-255.010338)">
                <path d="M273.502,165.85C255.076,165.83 252.93,166.308 252.197,163.601C251.123,159.632 256.023,159.486 256.5,159.472C265.611,159.201 277.159,160.181 279.611,158.629C280.42,158.117 282.035,153.898 276.492,153.83C246.95,153.469 246.262,154.509 244.731,152.335C243.585,150.708 244.377,147.82 247.511,147.651C254.52,147.273 285.992,148.095 287.759,146.956C290.243,145.355 289.274,142.051 285.496,141.931C280.572,141.774 257.584,142.613 255.61,141.327C253.654,140.051 253.57,136.131 257.521,135.914C264.275,135.541 264.976,136.536 266.087,134.361C267.547,131.504 267.323,130.921 270.469,130.32C271.201,130.18 271.203,130.172 317.5,130.198C336.583,130.208 337.319,129.826 339.119,132.719C340.112,134.316 339.735,136.17 339.818,174.502C339.831,180.524 339.789,180.493 339.815,186.5C339.859,196.532 339.807,198.981 339.917,201.474C340.087,205.346 338.379,204.557 334.5,204.549C313.689,204.508 312.83,204.866 312.246,203.657C312.125,203.406 310.585,191.279 298.436,188.823C297.987,188.732 282.556,186.469 279.003,202.407C278.45,204.887 277.132,204.925 271.494,204.665C264.757,204.354 266.073,198.64 266.076,187.504C266.077,184.504 265.499,183.3 268.493,183.25C268.973,183.242 268.969,183.277 274.501,183.234C277.172,183.213 277.969,183.083 278.934,181.744C279.193,181.386 280.576,177.858 275.489,177.75C260.518,177.431 242.794,178.395 240.791,177.08C239.373,176.15 238.069,171.399 244.5,171.363C291.689,171.099 292.023,171.511 293.245,170.245C293.822,169.647 295.19,166.274 290.482,165.842C290.179,165.815 280.526,165.846 273.502,165.85Z" style="fill:rgb(53,60,61);"/>
            </g>
        </g>
        <g transform="matrix(1,0,0,1,-2810,3778.455611)">
            <g transform="matrix(2.18601,0,0,2.18601,11326.100765,-255.010338)">
                <path d="M504.481,257.467C489.729,247.887 477.674,258.512 477.615,258.563C467.008,267.697 471.572,274.211 466.964,274.894C462.533,275.552 463.244,271.091 463.245,270.768C463.25,269.424 463.265,268.081 463.267,266.738C463.297,248.571 463.219,248.62 463.243,230.454C463.285,199.821 462.328,197.806 466.967,196.932C468.637,196.618 490.865,196.713 492.488,196.79C502.867,197.284 500.982,201.277 522.555,228.71C528.091,235.749 527.793,236.26 527.803,250.609C527.816,269.783 529.23,275.875 516.68,274.727C512.818,274.374 514.101,270.006 512.393,266.855C508.47,259.619 505.511,258.312 504.481,257.467ZM472.803,226.41C472.743,214.798 472.693,211.465 472.718,208.97C472.722,208.636 472.75,205.788 475.064,205.522C475.364,205.487 490.725,205.49 491.134,205.504C494.767,205.628 495.708,207.691 498.266,211.387C506.649,223.498 510.328,227.846 510.403,229.087C510.537,231.296 508.795,230.992 493.815,230.962C474.461,230.924 473.371,231.501 472.86,229.024C472.684,228.171 472.979,227.264 472.803,226.41Z" style="fill:rgb(53,61,61);"/>
            </g>
        </g>
        <g transform="matrix(1,0,0,1,-2810,3778.455611)">
            <g transform="matrix(2.18601,0,0,2.18601,11326.100765,-255.010338)">
                <path d="M508.106,276.137C506.63,300.755 472.364,295.979 475.434,273.519C477.549,258.049 501.798,253.342 507.518,272.031C507.965,273.493 507.825,273.484 508.106,276.137ZM397.083,292.568C371.742,291.023 377.933,255.195 401.08,260.17C417.352,263.667 417.778,291.241 398.439,292.52C397.988,292.55 397.535,292.538 397.083,292.568ZM391.658,280.202C386.771,271.492 396.151,266.939 400.736,270.033C409.245,275.775 399.453,288.845 391.658,280.202ZM485.181,274.654C485.35,274.24 485.4,273.784 485.569,273.37C486.9,270.104 491.5,267.633 494.9,269.88C504.505,276.228 492.728,289.084 486.158,279.919C484.517,277.629 485.038,277.45 485.181,274.654Z" style="fill:rgb(52,58,60);"/>
            </g>
        </g>
    </g>
</svg>
