<?xml version="1.0" encoding="UTF-8" standalone="no"?>
<!DOCTYPE svg PUBLIC "-//W3C//DTD SVG 1.1//EN" "http://www.w3.org/Graphics/SVG/1.1/DTD/svg11.dtd">
<svg width="100%" height="100%" viewBox="0 0 450 318" version="1.1" xmlns="http://www.w3.org/2000/svg" xmlns:xlink="http://www.w3.org/1999/xlink" xml:space="preserve" xmlns:serif="http://www.serif.com/" style="fill-rule:evenodd;clip-rule:evenodd;stroke-linejoin:round;stroke-miterlimit:2;">
    <g transform="matrix(1,0,0,1,-7534.069692,-2614.875275)">
        <g transform="matrix(1,0,0,1,-2247.930308,2517.545126)">
            <g transform="matrix(3.589835,0,0,3.589835,7463.726987,-1172.945832)">
                <path d="M645.924,358.528C646.355,356.376 645.895,356.046 647.666,354.718C649.133,353.617 649.348,353.882 688.499,353.881C720.651,353.881 720.924,353.762 722.063,354.931C723.281,356.179 723.146,356.45 723.15,389.499C723.152,404.987 723.564,405.937 721.46,406.26C720.587,406.394 669.979,406.314 665.503,406.307C648.777,406.28 646.261,407.002 645.919,403.468C645.901,403.282 645.829,375.587 645.924,358.528Z" style="fill:rgb(56,60,64);"/>
            </g>
        </g>
        <g transform="matrix(1,0,0,1,-2247.930308,2517.545126)">
            <g transform="matrix(1.335753,0,0,1.335753,7463.726987,-1172.945832)">
                <path d="M1992.781,986.158C2022.321,986.63 2025.669,983.932 2035.11,998.857C2068.285,1051.297 2068.375,1052.027 2069.041,1057.399C2071.417,1076.558 2067.032,1106.263 2071.715,1127.189C2076.101,1146.792 2059.358,1147.419 2057.371,1147.494C2049.797,1147.777 2048.139,1148.302 2045.931,1141.041C2035.424,1106.498 1980.729,1096.894 1962.32,1140.494C1958.061,1150.583 1955.333,1147.948 1944.407,1147.948C1854.352,1147.943 1854.334,1147.713 1852.591,1146.859C1849.76,1145.472 1848.416,1129.224 1830.873,1117.701C1829.398,1116.732 1789.916,1096.099 1767.92,1135.959C1765.115,1141.044 1765.15,1147.349 1758.886,1147.828C1732.026,1149.883 1735.71,1135.173 1735.744,1127.444C1735.801,1114.459 1733.752,1105.366 1742.756,1104.691C1752.247,1103.98 1907.676,1104.888 1936.339,1104.476C1947.822,1104.312 1955.81,1107.059 1957.007,1097.795C1957.838,1091.369 1956.053,996.031 1958.046,990.415C1959.955,985.034 1968.356,986.129 1992.781,986.158ZM2025.992,1016.571C2042.972,1046.01 2051.913,1051.912 2041.151,1052.107C2035.706,1052.206 1991.71,1051.944 1987.411,1051.919C1979.167,1051.87 1976.461,1052.402 1976.379,1044.097C1976.017,1007.267 1975.362,1006.855 1977.368,1004.39C1978.774,1002.662 1979.647,1002.684 2008.904,1002.753C2018.931,1002.777 2018.583,1004.975 2025.992,1016.571Z" style="fill:rgb(56,60,64);"/>
            </g>
        </g>
        <g transform="matrix(1,0,0,1,-2247.930308,2517.545126)">
            <g transform="matrix(1.335753,0,0,1.335753,7463.726987,-1172.945832)">
                <path d="M2019.987,1126.822C2027.275,1131.571 2027.605,1131.315 2032.564,1138.514C2046.674,1158.998 2027.798,1193.067 1998.353,1188.059C1965.789,1182.52 1960.702,1137.152 1992.764,1124.677C1993.863,1124.249 1997.888,1122.525 2006.192,1122.829C2013.514,1123.098 2013.372,1123.686 2019.987,1126.822ZM2011.833,1143.132C2011.923,1143.21 2017.976,1146.168 2018.882,1154.35C2021.177,1175.089 1984.66,1174.444 1990.277,1151.637C1992.148,1144.038 2001.381,1139.024 2008.608,1141.661C2009.718,1142.066 2010.723,1142.727 2011.833,1143.132Z" style="fill:rgb(57,60,64);"/>
            </g>
        </g>
        <g transform="matrix(1,0,0,1,-2247.930308,2517.545126)">
            <g transform="matrix(1.335753,0,0,1.335753,7463.726987,-1172.945832)">
                <path d="M1836.821,1140.897C1853.917,1174.103 1808.97,1206.764 1782.193,1176.582C1762.451,1154.329 1783.577,1115.722 1815.656,1123.724C1821.307,1125.134 1827.408,1129.487 1828.569,1130.43C1832.186,1133.369 1836.262,1139.989 1836.821,1140.897ZM1821.639,1154.193C1821.508,1155.24 1820.518,1163.176 1816.939,1166.508C1810.222,1172.763 1792.043,1169.827 1793.246,1154.233C1794.434,1138.827 1816.382,1136.214 1821.066,1151.507C1821.334,1152.382 1821.37,1153.318 1821.639,1154.193Z" style="fill:rgb(57,60,64);"/>
            </g>
        </g>
    </g>
</svg>
