<?xml version="1.0" encoding="UTF-8" standalone="no"?>
<!DOCTYPE svg PUBLIC "-//W3C//DTD SVG 1.1//EN" "http://www.w3.org/Graphics/SVG/1.1/DTD/svg11.dtd">
<svg width="100%" height="100%" viewBox="0 0 425 429" version="1.1" xmlns="http://www.w3.org/2000/svg" xmlns:xlink="http://www.w3.org/1999/xlink" xml:space="preserve" xmlns:serif="http://www.serif.com/" style="fill-rule:evenodd;clip-rule:evenodd;stroke-linejoin:round;stroke-miterlimit:2;">
    <g transform="matrix(1,0,0,1,-1738.968053,-1896.212334)">
        <g transform="matrix(1,0,0,1,-2800.768518,1841.897378)">
            <g transform="matrix(1.267859,0,0,1.280686,3004.968514,-334.181191)">
                <path d="M1374.722,413.633C1377.553,413.636 1396.481,413.654 1409.309,421.105C1469.862,456.276 1444.875,546.966 1374.601,545.263C1350.319,544.675 1331.671,527.286 1327.551,521.718C1293.764,476.047 1321.644,419.448 1374.722,413.633ZM1377.344,303.406C1508.698,303.408 1508.883,302.915 1514.477,304.821C1541.104,313.898 1545.116,329.209 1545.116,350.706C1545.115,370.851 1545.765,587.801 1544.934,600.775C1543.846,617.747 1529.454,636.156 1506.287,637.469C1500.714,637.786 1254.35,637.652 1251.064,637.574C1229.041,637.052 1214.151,619.863 1211.695,603.169C1209.821,590.42 1210.73,590.374 1210.807,442.094C1210.862,336.561 1209.85,335.728 1216.688,324.175C1226.031,308.39 1240.143,305.698 1240.485,305.583C1249.509,302.536 1249.74,303.572 1377.344,303.406ZM1469.854,482.434C1468.05,514.109 1453.531,529.924 1453.58,533.517C1453.689,541.588 1487.699,562.249 1487.282,576.464C1487.081,583.325 1476.565,597.153 1463.599,584.287C1452.516,573.288 1436.801,554.682 1431.196,555.438C1427.416,555.949 1419.543,566.142 1385.431,571.317C1379.596,572.202 1349.035,572.976 1323.288,552.671C1251.622,496.153 1291.702,388.325 1380.037,387.899C1417.088,387.721 1439.934,411.874 1443.761,415.92C1467.993,441.541 1469.6,466.149 1469.854,482.434ZM1405.696,472.001C1402.601,463.413 1401.781,460.497 1391.489,454.355C1381.868,448.613 1369.351,451.322 1370.09,442.101C1370.923,431.719 1382.648,434.004 1387.912,434.95C1416.761,440.135 1432.692,480.617 1417.618,484.982C1407.443,487.928 1405.757,472.265 1405.696,472.001ZM1351.647,361.531C1353.873,354.847 1353.745,352.274 1369.334,351.55C1399.379,350.153 1405.279,354.267 1403.675,364.047C1401.824,375.334 1391.87,368.596 1366.48,371.036C1350.516,372.57 1352.374,365.367 1351.647,361.531ZM1301.753,377.073C1302.707,376.508 1311.544,371.284 1315.611,377.524C1320.523,385.061 1316.035,389.763 1312.268,393.05C1302.148,401.881 1302.309,401.936 1293.339,411.929C1282.457,424.051 1269.965,410.471 1279.921,398.578C1291.113,385.21 1299.805,378.562 1301.753,377.073Z" style="fill:rgb(56,60,64);"/>
            </g>
        </g>
    </g>
</svg>
