<?xml version="1.0" encoding="UTF-8" standalone="no"?>
<!DOCTYPE svg PUBLIC "-//W3C//DTD SVG 1.1//EN" "http://www.w3.org/Graphics/SVG/1.1/DTD/svg11.dtd">
<svg width="100%" height="100%" viewBox="0 0 466 217" version="1.1" xmlns="http://www.w3.org/2000/svg" xmlns:xlink="http://www.w3.org/1999/xlink" xml:space="preserve" xmlns:serif="http://www.serif.com/" style="fill-rule:evenodd;clip-rule:evenodd;stroke-linejoin:round;stroke-miterlimit:2;">
    <g transform="matrix(1,0,0,1,-1150.195152,-1375.788156)">
        <g transform="matrix(1,0,0,1,-2806.885656,1227.901547)">
            <g transform="matrix(2.983107,0,0,2.983107,2069.848408,-258.483445)">
                <path d="M653.928,175.53C654.067,174.619 655.006,168.449 657.747,164.664C663.606,156.574 673.239,155.014 679.398,157.741C682.17,158.969 682.836,159.038 684.198,156.352C698.844,127.475 737.793,131.256 749.263,157.586C752.388,164.761 751.639,165.366 749.81,166.934C748.12,168.382 748.037,174.474 744.913,178.791C737.145,189.528 729.304,187.316 705.504,187.939C681.665,188.562 676.156,187.107 677.207,190.669C677.424,191.401 677.737,191.489 701.496,191.77C729.996,192.107 734.875,191.208 737.492,195.506C739.553,198.89 739.626,200.915 737.907,206.631C737.148,209.154 735.217,208.672 727.5,208.668C635.683,208.612 635.662,208.799 634.505,208.484C631.047,207.541 632.735,195.424 636.808,189.719C643.091,180.919 651.926,179.201 652.696,178.898C654.158,178.324 653.898,176.051 653.928,175.53Z" style="fill:rgb(57,62,65);"/>
            </g>
        </g>
        <g transform="matrix(1,0,0,1,-2806.885656,1227.901547)">
            <g transform="matrix(2.983107,0,0,2.983107,2069.848408,-258.483445)">
                <path d="M751.07,176.426C752.211,168.568 752.447,168.23 752.858,167.642C755.47,163.904 769.322,166.34 775.66,171.293C781.761,176.06 782.97,178.938 785.153,182.7C787.304,186.409 789.092,194.446 788.758,198.519C787.969,208.155 785.379,208.493 784.511,208.606C783.432,208.747 750.46,208.674 747.5,208.667C743.489,208.658 741.256,209.312 742.38,205.468C746.946,189.849 760.244,191.644 768.46,191.117C771.975,190.892 771.356,188.625 769.648,188.136C763.714,186.436 749.794,190.752 751.07,176.426Z" style="fill:rgb(57,62,65);"/>
            </g>
        </g>
    </g>
</svg>
