<?xml version="1.0" encoding="UTF-8" standalone="no"?>
<!DOCTYPE svg PUBLIC "-//W3C//DTD SVG 1.1//EN" "http://www.w3.org/Graphics/SVG/1.1/DTD/svg11.dtd">
<svg width="100%" height="100%" viewBox="0 0 440 318" version="1.1" xmlns="http://www.w3.org/2000/svg" xmlns:xlink="http://www.w3.org/1999/xlink" xml:space="preserve" xmlns:serif="http://www.serif.com/" style="fill-rule:evenodd;clip-rule:evenodd;stroke-linejoin:round;stroke-miterlimit:2;">
    <g transform="matrix(1,0,0,1,-601.47143,-1951.531092)">
        <g transform="matrix(1,0,0,1,-2806.993326,1841.897378)">
            <g transform="matrix(1.225969,0,0,1.225969,3234.736167,-307.965332)">
                <path d="M307.671,569.597C269.921,567.761 249.236,558.203 237.506,553.035C236.392,552.544 226.295,548.095 222.291,552.844C218.609,557.21 229.38,560.937 229.451,560.974C238.499,565.76 238.604,565.341 248.062,569.468C251.458,570.949 251.458,573.337 251.458,573.776C251.457,577.667 237.044,596.59 236.745,596.9C233.751,600 229.232,604.678 184.548,583.532C163.622,573.63 145.434,557.26 143.898,554.888C138.569,546.657 144.486,495.796 145.683,487.658C146.814,479.973 153.363,451.693 154.753,447.538C168.452,406.607 177.829,387.207 189.356,369.452C196.598,358.297 247.372,343.71 262.232,341.128C271.497,339.518 272.72,346.046 276.269,352.969C279.988,360.222 289.537,356.375 304.987,355.463C334.478,353.722 354.619,357.378 356.213,357.472C368.956,358.222 365.648,341.135 374.924,340.634C380.121,340.354 411.466,349.149 415.26,350.617C448.696,363.556 451.391,366.647 455.737,374.787C470.306,402.077 498.481,453.476 499.6,536.141C499.79,550.203 501.681,551.876 491.09,561.07C459.019,588.913 412.567,601.034 407.706,599.395C403.707,598.046 391.153,577.086 390.916,576.526C388.029,569.709 393.588,570.142 418.314,558.15C420.008,557.328 423.594,553.372 414.791,550.831C404.594,547.887 381.014,572.857 307.671,569.597ZM233.618,479.786C239.186,443.786 270.193,442.403 285.73,458.664C300.811,474.448 291.915,496.672 291.063,498.265C275.543,527.272 233.854,519.413 233.618,479.786ZM408.082,482.402C404.831,520.233 367.822,525.443 351.954,500.456C336.605,476.287 357.651,442.079 385.701,449.997C387.175,450.413 394.302,452.425 401.077,461.396C407.001,469.24 407.937,480.636 408.082,482.402Z" style="fill:rgb(57,61,64);"/>
            </g>
        </g>
    </g>
</svg>
