<?xml version="1.0" encoding="UTF-8" standalone="no"?>
<!DOCTYPE svg PUBLIC "-//W3C//DTD SVG 1.1//EN" "http://www.w3.org/Graphics/SVG/1.1/DTD/svg11.dtd">
<svg width="100%" height="100%" viewBox="0 0 453 446" version="1.1" xmlns="http://www.w3.org/2000/svg" xmlns:xlink="http://www.w3.org/1999/xlink" xml:space="preserve" xmlns:serif="http://www.serif.com/" style="fill-rule:evenodd;clip-rule:evenodd;stroke-linejoin:round;stroke-miterlimit:2;">
    <g transform="matrix(1,0,0,1,-1722.893785,-648.53841)">
        <g transform="matrix(1,0,0,1,-1678.993644,615.951026)">
            <g transform="matrix(3.598315,0,0,3.598315,373.102231,-1177.113239)">
                <path d="M913.852,455.496C913.833,447.86 913.861,447.875 913.855,433.499C913.849,420.899 913.81,417.138 913.943,416.628C914.392,414.91 919.819,415.542 925.499,415.452C928.351,415.406 928.387,413.509 929.294,406.472C929.855,402.126 930.521,399.15 929.705,398.304C928.522,397.076 915.665,398.414 914.54,397.442C913.97,396.951 913.657,396.788 913.885,386.523C914.127,375.624 922.028,376.964 928.504,376.91C930.263,376.895 931.11,376.607 931.168,374.483C931.496,362.43 931.243,362.238 930.423,361.612C930.209,361.449 915.263,358.166 905.458,363.431C889.772,371.855 896.645,394.86 894.279,397.272C893.276,398.294 884.313,397.658 881.513,397.813C880.985,397.842 879.49,397.962 879.238,399.458C879.199,399.685 879.225,413.355 879.248,413.534C879.563,415.957 881.982,415.385 889.499,415.384C893.326,415.383 894.858,414.697 894.854,418.502C894.81,457.955 894.854,457.957 894.794,458.545C894.504,461.361 890.045,459.514 888.597,459.132C854.934,450.254 842.668,420.269 841.908,404.472C841.462,395.211 841.149,383.595 849.447,368.467C862.973,343.81 888.388,336.522 901.493,336.217C913.722,335.933 917.628,337.636 919.599,338.101C921.871,338.637 934.22,341.551 945.55,351.441C971.678,374.246 976.889,416.262 947.301,444.282C933.439,457.409 916.128,460.586 914.711,460.007C913.106,459.351 913.97,458.778 913.852,455.496Z" style="fill:rgb(55,57,62);"/>
            </g>
        </g>
    </g>
</svg>
