<?xml version="1.0" encoding="UTF-8" standalone="no"?>
<!DOCTYPE svg PUBLIC "-//W3C//DTD SVG 1.1//EN" "http://www.w3.org/Graphics/SVG/1.1/DTD/svg11.dtd">
<svg width="100%" height="100%" viewBox="0 0 309 458" version="1.1" xmlns="http://www.w3.org/2000/svg" xmlns:xlink="http://www.w3.org/1999/xlink" xml:space="preserve" xmlns:serif="http://www.serif.com/" style="fill-rule:evenodd;clip-rule:evenodd;stroke-linejoin:round;stroke-miterlimit:2;">
    <g transform="matrix(1,0,0,1,-2358.947945,-1869.054856)">
        <g transform="matrix(1,0,0,1,-2800.768518,1841.897378)">
            <g transform="matrix(1.366585,0,0,1.366585,2706.028634,-387.074298)">
                <path d="M1911.312,483.025C1910.687,482.991 1907.53,479.78 1907.18,485.241C1907.05,487.263 1907.254,490.115 1907.284,490.538C1907.545,494.177 1908.329,505.126 1908.277,536.139C1908.195,585.403 1908.874,585.572 1905.521,597.652C1898.507,622.927 1875.088,634.551 1866.636,636.326C1814.357,647.309 1790.227,602.577 1796.448,573.753C1805.34,532.545 1840.187,529.329 1841.417,527.602C1846.4,520.608 1816.451,531.071 1799.362,490.435C1789.481,466.939 1802.407,444.316 1804.111,441.769C1824.421,411.415 1844.807,421.41 1844.826,415.219C1844.839,411.095 1833.978,415.63 1821.216,406.508C1780.167,377.167 1800.231,336.981 1803.727,331.339C1816.498,310.726 1832.113,307.177 1842.129,304.441C1847.932,302.856 1848.836,303.647 1947.101,303.409C1957.63,303.383 1992.966,298.341 2012.912,331.058C2015.317,335.003 2030.82,360.431 2012.341,388.812C1995.783,414.242 1972.843,412.914 1972.304,413.806C1972.047,414.23 1973.071,414.57 1973.095,415.065C1973.126,415.683 1972.207,416.238 1972.452,416.807C1972.788,417.584 1981.034,418.501 1981.79,418.585C2001.636,420.793 2027.004,450.877 2019.708,482.418C2009.498,526.555 1957.996,538.18 1930.381,515.375C1912.758,500.821 1912.113,486.92 1911.312,483.025ZM1952.296,413.407C1953.178,414.037 1954.061,414.667 1954.944,415.297C1954.521,415.912 1955.119,416.907 1954.697,417.522C1953.221,419.671 1938.959,418.783 1928.032,428.381C1909.663,444.517 1912.17,458.883 1911.089,460.142C1910.932,460.326 1907.86,460.431 1907.701,460.26C1907.579,460.129 1906.895,456.582 1907.127,452.784C1909.113,420.304 1907.742,420.108 1908.917,417.541C1910.991,413.009 1928.209,418.119 1952.296,413.407Z" style="fill:rgb(56,61,64);"/>
            </g>
        </g>
    </g>
</svg>
