<?xml version="1.0" encoding="UTF-8" standalone="no"?>
<!DOCTYPE svg PUBLIC "-//W3C//DTD SVG 1.1//EN" "http://www.w3.org/Graphics/SVG/1.1/DTD/svg11.dtd">
<svg width="100%" height="100%" viewBox="0 0 450 450" version="1.1" xmlns="http://www.w3.org/2000/svg" xmlns:xlink="http://www.w3.org/1999/xlink" xml:space="preserve" xmlns:serif="http://www.serif.com/" style="fill-rule:evenodd;clip-rule:evenodd;stroke-linejoin:round;stroke-miterlimit:2;">
    <g transform="matrix(1,0,0,1,-600.006356,-31)">
        <g transform="matrix(1,0,0,1,7.006356,0)">
            <g transform="matrix(3.900035,0,0,3.864852,-414.421647,-420.804912)">
                <path d="M323.46,233.073C321.977,233.144 294.002,236.917 272.692,213.329C248.97,187.072 254.429,140.588 290.305,123.116C291.803,122.387 302.002,116.066 321.476,116.994C332.31,117.509 342.048,122.278 343.704,123.089C344.647,123.55 349.973,126.158 354.676,130.3C357.732,132.992 355.548,133.717 350.64,138.644C341.658,147.661 341.216,149.139 338.694,147.232C321.584,134.298 299.232,138.224 288.134,155.255C276.337,173.36 282.761,198.261 303.604,207.258C319.429,214.089 340.444,208.753 347.325,191.439C347.528,190.928 349.407,187.267 346.579,187.042C345.877,186.987 324.425,186.97 322.499,186.968C319.429,186.966 316.848,187.8 316.819,184.496C316.817,184.251 316.791,166.533 316.791,166.523C316.798,166.32 316.851,164.802 318.52,164.669C320.125,164.541 363.582,164.61 367.5,164.616C369.589,164.62 372.17,163.937 372.812,167.432C376.679,188.5 366.69,204.975 364.985,207.787C364.038,209.349 357.87,220.125 342.648,227.823C335.634,231.37 325.036,232.852 323.46,233.073Z" style="fill:rgb(56,59,63);"/>
            </g>
        </g>
    </g>
</svg>
