<?xml version="1.0" encoding="UTF-8" standalone="no"?>
<!DOCTYPE svg PUBLIC "-//W3C//DTD SVG 1.1//EN" "http://www.w3.org/Graphics/SVG/1.1/DTD/svg11.dtd">
<svg width="100%" height="100%" viewBox="0 0 435 424" version="1.1" xmlns="http://www.w3.org/2000/svg" xmlns:xlink="http://www.w3.org/1999/xlink" xml:space="preserve" xmlns:serif="http://www.serif.com/" style="fill-rule:evenodd;clip-rule:evenodd;stroke-linejoin:round;stroke-miterlimit:2;">
    <g transform="matrix(1,0,0,1,-1162.979557,-3123.92745)">
        <g transform="matrix(1,0,0,1,-6376,3079.545126)">
            <g transform="matrix(3.744894,0,0,3.744894,4370.232307,-1236.598821)">
                <path d="M937.033,410.567C936.538,408.442 936.526,408.481 935.878,406.379C931.933,393.568 920.583,396.914 917.385,399.34C912.476,403.065 911.974,407.616 911.514,410.502C910.909,414.297 911.494,451.978 911.259,453.457C910.93,455.515 907.611,455.025 901.499,455.03C887.647,455.043 887.457,455.242 886.676,454.349C885.956,453.524 886.222,447.326 886.207,396.501C886.202,380.084 885.895,379.468 887.575,378.822C887.816,378.729 909.42,378.512 910.305,378.916C912.088,379.729 910.35,386.86 911.541,387.427C912.353,387.814 912.414,387.012 914.126,385.123C925.618,372.442 949.762,375.487 957.596,390.446C962.846,400.469 961.839,403.675 961.928,449.499C961.934,452.785 963.053,455.03 958.497,454.95C950.12,454.803 938.74,455.565 937.696,454.336C936.597,453.042 937.834,423.127 937.033,410.567Z" style="fill:rgb(56,60,63);"/>
            </g>
        </g>
        <g transform="matrix(1,0,0,1,-6376,3079.545126)">
            <g transform="matrix(3.744894,0,0,3.744894,4370.232307,-1236.598821)">
                <path d="M851.501,378.734C871.347,378.695 871.727,378.597 872.197,379.638C872.628,380.594 872.298,437.85 872.385,449.501C872.414,453.287 873.295,454.914 869.499,454.934C848.852,455.038 848.013,455.286 847.675,453.463C847.526,452.66 847.617,413.937 847.625,410.5C847.696,380.317 847.344,380.064 848.248,379.204C848.869,378.614 848.969,378.877 851.501,378.734Z" style="fill:rgb(55,59,62);"/>
            </g>
        </g>
        <g transform="matrix(1,0,0,1,-6376,3079.545126)">
            <g transform="matrix(3.744894,0,0,3.744894,4370.232307,-1236.598821)">
                <path d="M846.872,351.611C846.942,351.431 849.416,340.857 862.536,342.174C867.51,342.674 873.624,346.693 874.126,353.529C875.434,371.316 851.782,372.164 847.269,360.588C845.259,355.433 846.5,353.207 846.872,351.611Z" style="fill:rgb(55,59,62);"/>
            </g>
        </g>
    </g>
</svg>
