<?xml version="1.0" encoding="UTF-8" standalone="no"?>
<!DOCTYPE svg PUBLIC "-//W3C//DTD SVG 1.1//EN" "http://www.w3.org/Graphics/SVG/1.1/DTD/svg11.dtd">
<svg width="100%" height="100%" viewBox="0 0 431 430" version="1.1" xmlns="http://www.w3.org/2000/svg" xmlns:xlink="http://www.w3.org/1999/xlink" xml:space="preserve" xmlns:serif="http://www.serif.com/" style="fill-rule:evenodd;clip-rule:evenodd;stroke-linecap:round;stroke-linejoin:round;stroke-miterlimit:1.5;">
    <g transform="matrix(1,0,0,1,-1168.267304,-657.468941)">
        <g transform="matrix(1,0,0,1,-1682.993326,615.951026)">
            <g transform="matrix(0.989839,0,0,0.988905,1660.040858,-632.956817)">
                <path d="M1619.427,814.558L1619.427,984.063C1619.427,1046.968 1568.404,1098.04 1505.558,1098.04L1335.838,1098.04C1272.992,1098.04 1221.969,1046.968 1221.969,984.063L1221.969,814.558C1221.969,751.653 1272.992,700.581 1335.838,700.581L1505.558,700.581C1568.404,700.581 1619.427,751.653 1619.427,814.558Z" style="fill:rgb(0,2,178);fill-opacity:0;stroke:rgb(55,57,62);stroke-width:37.06px;"/>
            </g>
        </g>
        <g transform="matrix(1,0,0,1,-1682.993326,615.951026)">
            <g transform="matrix(1,0,0,1,1688.872278,-627.781486)">
                <circle cx="1377.235" cy="884.157" r="99.696" style="fill:rgb(0,170,255);fill-opacity:0;stroke:rgb(55,57,62);stroke-width:31.25px;"/>
            </g>
        </g>
        <g transform="matrix(1,0,0,1,-1682.993326,615.951026)">
            <g transform="matrix(3.120457,0,0,2.957039,-1503.301569,-2117.442044)">
                <ellipse cx="1502.319" cy="763.19" rx="9.034" ry="9.44" style="fill:rgb(55,57,62);"/>
            </g>
        </g>
    </g>
</svg>
