<?xml version="1.0" encoding="UTF-8" standalone="no"?>
<!DOCTYPE svg PUBLIC "-//W3C//DTD SVG 1.1//EN" "http://www.w3.org/Graphics/SVG/1.1/DTD/svg11.dtd">
<svg width="100%" height="100%" viewBox="0 0 360 430" version="1.1" xmlns="http://www.w3.org/2000/svg" xmlns:xlink="http://www.w3.org/1999/xlink" xml:space="preserve" xmlns:serif="http://www.serif.com/" style="fill-rule:evenodd;clip-rule:evenodd;stroke-linejoin:round;stroke-miterlimit:2;">
    <g transform="matrix(1,0,0,1,-2333.72766,-2510.424124)">
        <g transform="matrix(1,0,0,1,-4680.768518,2474.802936)">
            <g transform="matrix(3.326455,0,0,3.326455,4833.129278,-1070.209051)">
                <path d="M698.222,415.996C698.116,416.049 696.886,416.657 696.886,416.657C696.729,416.992 697.042,417.804 696.98,421.5C696.87,428.071 697.246,433.63 696.891,441.524C696.043,460.401 675.519,466.058 664.331,457.734C654.529,450.44 655.82,440.084 655.819,429.5C655.806,351.297 655.773,351.261 656.482,348.495C661.106,330.466 681.194,328.993 690.304,337.694C698.417,345.443 697.054,354.538 697.087,369.512C697.102,376.802 696.463,376.865 696.809,377.392C696.937,377.586 697.284,377.415 697.495,377.512C697.747,377.629 697.88,378.024 698.158,378.018C698.185,378.018 700.807,373.758 700.815,373.747C704.26,368.99 720.23,345.262 721.903,342.775C722.567,341.789 726.637,335.74 733.497,333.49C749.604,328.207 763.407,343.784 759.48,357.494C757.696,363.726 756.13,364.874 754.905,366.772C748.049,377.386 734.828,394.282 734.69,396.487C734.623,397.564 734.789,397.593 742.697,407.342C762.959,432.322 763.1,433.353 763.578,438.495C765.479,458.913 742.312,468.138 729.635,456.351C724.146,451.247 701.686,419.861 698.222,415.996Z" style="fill:rgb(57,61,64);"/>
            </g>
        </g>
    </g>
</svg>
