<?xml version="1.0" encoding="UTF-8" standalone="no"?>
<!DOCTYPE svg PUBLIC "-//W3C//DTD SVG 1.1//EN" "http://www.w3.org/Graphics/SVG/1.1/DTD/svg11.dtd">
<svg width="100%" height="100%" viewBox="0 0 455 400" version="1.1" xmlns="http://www.w3.org/2000/svg" xmlns:xlink="http://www.w3.org/1999/xlink" xml:space="preserve" xmlns:serif="http://www.serif.com/" style="fill-rule:evenodd;clip-rule:evenodd;stroke-linejoin:round;stroke-miterlimit:2;">
    <g transform="matrix(1,0,0,1,-2283.943128,-67.419644)">
        <g transform="matrix(1,0,0,1,7.006356,0)">
            <g transform="matrix(3.660715,0,0,3.660715,2066.053704,-1193.013667)">
                <path d="M120.198,381.164C121.501,377.232 121.92,371.135 129.043,358.25C138.874,340.464 152.673,340.218 162.08,354.774C175.298,375.228 180.831,415.724 181.52,442.5C181.723,450.364 181.929,452.859 180.433,453.277C180.217,453.337 166.846,453.725 165.844,453.04C163.771,451.622 167.125,441.143 162.942,402.449C162.871,401.788 160.915,387.018 160.827,386.443C160.605,384.987 158.397,374.597 158.179,373.569C157.44,370.091 153.385,355.116 148.555,353.362C146.438,352.593 143.366,353.184 141.465,356.478C140.329,358.448 135.383,367.018 132.765,383.545C129.86,401.882 128.271,411.056 127.828,441.504C127.824,441.797 127.783,444.601 127.153,445.097C126.405,445.686 113.197,446.011 112.089,444.923C110.406,443.273 112.347,442.733 110.243,415.524C110.21,415.104 109.923,402.925 106.011,380.587C105.606,378.28 102.239,364.131 98.766,358.352C98.547,357.987 95.865,351.208 90.475,353.444C82.803,356.627 74.704,392.331 74.126,440.495C73.991,451.785 74.644,453.329 71.496,453.364C59.083,453.499 58.947,453.579 58.177,452.841C57.613,452.3 57.63,452.268 57.614,451.491C57.497,445.737 58.807,418.254 61.356,405.47C61.736,403.56 70.02,342.465 93.51,344.356C107.396,345.475 114.572,367.119 116.724,372.411C118.097,375.785 118.766,381.01 118.954,381.155C119.033,381.215 119.045,381.155 120.198,381.164Z" style="fill:rgb(54,57,62);"/>
            </g>
        </g>
    </g>
</svg>
