<?xml version="1.0" encoding="UTF-8" standalone="no"?>
<!DOCTYPE svg PUBLIC "-//W3C//DTD SVG 1.1//EN" "http://www.w3.org/Graphics/SVG/1.1/DTD/svg11.dtd">
<svg width="100%" height="100%" viewBox="0 0 450 450" version="1.1" xmlns="http://www.w3.org/2000/svg" xmlns:xlink="http://www.w3.org/1999/xlink" xml:space="preserve" xmlns:serif="http://www.serif.com/" style="fill-rule:evenodd;clip-rule:evenodd;stroke-linejoin:round;stroke-miterlimit:2;">
    <g transform="matrix(1,0,0,1,-1162.006356,-31)">
        <g transform="matrix(1,0,0,1,7.006356,0)">
            <g transform="matrix(4.120214,0,0,4.163225,-729.563831,-472.660439)">
                <path d="M514.764,124.505C514.828,121.793 514.805,121.032 517.502,120.999C518.302,120.99 518.297,121 527.502,120.992C565.311,120.961 565.326,121.137 565.634,121.267C566.917,121.809 566.568,126.212 566.566,129.5C566.543,167.374 566.637,170.585 566.352,171.443C565.848,172.957 561.903,172.551 559.5,172.55C549.5,172.543 539.5,172.536 529.5,172.528C516.206,172.539 514.888,173.023 514.778,170.479C514.767,170.217 514.714,142.94 514.764,124.505Z" style="fill:rgb(56,58,63);"/>
            </g>
        </g>
        <g transform="matrix(1,0,0,1,7.006356,0)">
            <g transform="matrix(4.120214,0,0,4.163225,-729.563831,-472.660439)">
                <path d="M509.29,124.503C509.243,171.118 509.652,171.631 508.391,172.28C507.574,172.701 507.505,172.445 467.5,172.513C461.573,172.523 458.247,172.844 457.641,171.442C457.44,170.976 457.4,170.952 457.432,142.5C457.455,121.86 457.781,121.878 457.864,121.752C458.377,120.972 458.621,120.953 483.5,120.988C485.425,120.991 507.104,121.022 507.565,121.095C509.671,121.43 509.256,123.17 509.29,124.503Z" style="fill:rgb(56,58,63);"/>
            </g>
        </g>
        <g transform="matrix(1,0,0,1,7.006356,0)">
            <g transform="matrix(4.120214,0,0,4.163225,-729.563831,-472.660439)">
                <path d="M462.503,228.954C458.678,229.091 457.48,229.219 457.43,226.502C457.365,222.994 457.402,180.138 457.444,179.494C457.556,177.794 459.299,177.736 459.517,177.729C460.618,177.693 506.963,177.673 507.48,177.721C509.531,177.914 509.307,179.633 509.311,180.5C509.33,184.258 509.544,225.582 509.272,227.467C508.982,229.483 505.895,229.025 499.499,229.02C465.456,228.993 465.462,229.014 462.503,228.954Z" style="fill:rgb(56,58,63);"/>
            </g>
        </g>
        <g transform="matrix(1,0,0,1,7.006356,0)">
            <g transform="matrix(4.120214,0,0,4.163225,-729.563831,-472.660439)">
                <path d="M563.505,229.038C559.833,228.956 537.741,228.955 535.501,228.955C516.185,228.955 515.4,229.417 514.804,227.453C514.73,227.207 514.773,179.909 514.79,179.527C514.846,178.197 515.777,177.786 516.524,177.736C517.153,177.695 562.67,177.7 564.481,177.76C564.699,177.767 566.473,177.826 566.596,179.488C566.638,180.055 566.584,226.421 566.583,226.502C566.541,229.585 564.672,228.899 563.505,229.038Z" style="fill:rgb(56,58,63);"/>
            </g>
        </g>
    </g>
</svg>
