<?xml version="1.0" encoding="UTF-8" standalone="no"?>
<!DOCTYPE svg PUBLIC "-//W3C//DTD SVG 1.1//EN" "http://www.w3.org/Graphics/SVG/1.1/DTD/svg11.dtd">
<svg width="100%" height="100%" viewBox="0 0 471 171" version="1.1" xmlns="http://www.w3.org/2000/svg" xmlns:xlink="http://www.w3.org/1999/xlink" xml:space="preserve" xmlns:serif="http://www.serif.com/" style="fill-rule:evenodd;clip-rule:evenodd;stroke-linejoin:round;stroke-miterlimit:2;">
    <g transform="matrix(1,0,0,1,-27.740448,-786.830676)">
        <g transform="matrix(1,0,0,1,-2802.993644,615.951026)">
            <g transform="matrix(3.653437,0,0,3.653437,1913.189283,-1201.192441)">
                <path d="M279.504,401.943C281.375,401.87 281.508,402.487 303.504,396.514C319.261,392.235 319.174,392.033 320.553,391.707C327.864,389.979 328.536,389.422 331.558,388.729C336.36,387.626 340.191,386.265 342.558,385.749C348.618,384.43 348.471,383.945 354.522,382.592C363.483,380.589 378.46,374.877 379.437,375.623C379.611,375.756 381.171,377.054 377.71,377.754C377.134,377.87 377.15,377.92 366.424,382.31C356.815,386.244 356.07,386.913 353.322,388.087C351.573,388.834 341.64,393.08 331.577,397.682C319.417,403.243 293.086,414.777 290.704,415.915C269.423,426.079 256.311,422.528 252.5,414.5C246.84,402.579 260.415,386.09 265.735,378.711C267.049,376.888 267.69,375.442 268.642,377.47C268.901,378.021 268.602,377.987 267.361,380.458C266.063,383.045 265.013,387.626 265.355,390.515C266.674,401.659 275.638,401.723 279.504,401.943Z" style="fill:rgb(56,58,63);"/>
            </g>
        </g>
    </g>
</svg>
