<?xml version="1.0" encoding="UTF-8" standalone="no"?>
<!DOCTYPE svg PUBLIC "-//W3C//DTD SVG 1.1//EN" "http://www.w3.org/Graphics/SVG/1.1/DTD/svg11.dtd">
<svg width="100%" height="100%" viewBox="0 0 401 450" version="1.1" xmlns="http://www.w3.org/2000/svg" xmlns:xlink="http://www.w3.org/1999/xlink" xml:space="preserve" xmlns:serif="http://www.serif.com/" style="fill-rule:evenodd;clip-rule:evenodd;stroke-linejoin:round;stroke-miterlimit:2;">
    <g transform="matrix(1,0,0,1,-1741.960447,-3110.545126)">
        <g transform="matrix(1,0,0,1,-6376,3079.545126)">
            <g transform="matrix(3.617286,0,0,3.617286,5755.647048,-1185.450632)">
                <path d="M721.387,402.031C693.979,407.466 686.558,398.72 684.046,413.415C681.897,425.991 681.481,425.889 679.357,438.48C678.165,445.547 677.765,446.821 671.504,446.84C655.852,446.885 655.807,446.912 654.56,446.38C653.609,445.974 651.888,445.239 654.264,433.453C658.579,412.045 657.903,411.948 659.99,400.587C660.825,396.045 660.948,396.104 661.75,391.545C663.421,382.048 663.438,382.089 664.919,372.565C665.501,368.824 666.392,366.212 667.695,357.53C668.829,349.971 669.38,350.082 670.349,342.483C671.261,335.327 675.158,336.342 693.5,336.333C724.573,336.317 728.375,336.044 739.491,341.517C741.586,342.548 745.888,346.873 747.064,348.789C751.805,356.513 750.337,365.921 750.104,367.413C747.731,382.622 742.562,389.278 734.585,395.603C730.399,398.923 726.288,399.992 721.387,402.031Z" style="fill:rgb(52,57,59);"/>
            </g>
        </g>
        <g transform="matrix(1,0,0,1,-6376,3079.545126)">
            <g transform="matrix(3.617286,0,0,3.617286,5755.647048,-1185.450632)">
                <path d="M688.799,415.574C689.273,414.298 689.812,411.288 693.578,409.693C699.11,407.349 733.047,415.036 749.216,386.345C755.072,375.953 753.84,369.688 755.54,368.89C757.405,368.015 771.006,383.907 758.296,407.398C757.462,408.938 752.572,417.976 742.547,422.6C731.675,427.614 721.732,427.306 718.5,427.501C710.79,427.965 711.784,432.061 709.893,441.584C706.736,457.474 707.49,458.311 704.252,460.06C702.931,460.773 702.849,460.777 685.499,460.578C685.241,460.575 683.093,460.55 682.432,459.56C680.861,457.204 681.671,456.864 688.799,415.574Z" style="fill:rgb(52,60,60);"/>
            </g>
        </g>
    </g>
</svg>
