<?xml version="1.0" encoding="UTF-8" standalone="no"?>
<!DOCTYPE svg PUBLIC "-//W3C//DTD SVG 1.1//EN" "http://www.w3.org/Graphics/SVG/1.1/DTD/svg11.dtd">
<svg width="100%" height="100%" viewBox="0 0 474 419" version="1.1" xmlns="http://www.w3.org/2000/svg" xmlns:xlink="http://www.w3.org/1999/xlink" xml:space="preserve" xmlns:serif="http://www.serif.com/" style="fill-rule:evenodd;clip-rule:evenodd;stroke-linejoin:round;stroke-miterlimit:2;">
    <g transform="matrix(1,0,0,1,-590.533672,-2521.681391)">
        <g transform="matrix(1,0,0,1,-6362.768518,2474.802936)">
            <g transform="matrix(1.319005,0,0,1.319005,6767.229546,-1151.32486)">
                <path d="M441.978,970.512C411.186,970.68 410.035,945.322 407.028,942.103C404.347,939.234 377.2,934.974 361.565,930.882C352.258,928.446 348.92,926.899 347.161,936.388C345.386,945.96 330.209,999.84 332.227,1003.6C333.564,1006.09 342.471,1005.97 353.259,1007.539C395.686,1013.709 423.798,1031.639 429.251,1035.117C439.548,1041.685 443.237,1023.359 471.447,1028.898C500.409,1034.585 511.709,1079.297 484.373,1099.53C480.852,1102.137 479.536,1101.539 479.372,1105.887C479.285,1108.171 483.878,1137.787 457.874,1170.152C432.449,1201.796 383.266,1224.145 334.614,1225.273C300.98,1226.053 250.713,1227.23 198.496,1185.327C174.649,1166.191 166.479,1140.123 165.044,1135.545C158.096,1113.376 166.358,1106.376 157.398,1100.254C125.672,1078.578 141.791,1018.259 191.806,1029.292C200.056,1031.112 204.765,1038.839 210.712,1035.558C218.684,1031.158 218.293,1030.594 226.553,1026.762C232.142,1024.169 256.18,1010.588 299.644,1006.304C310.002,1005.284 313.558,1008.542 316.067,998.472C336.509,916.398 335.584,913.552 342.576,912.043C345.557,911.4 345.438,912.869 380.068,918.934C401.35,922.661 408.548,928.746 414.063,922.247C420.359,914.828 419.91,914.029 428.911,910.377C456.182,899.311 483.97,937.62 461.126,960.996C454.644,967.629 443.646,970.133 441.978,970.512ZM233.649,1097.685C233.852,1092.229 233.155,1092.127 235.038,1087.044C244.532,1061.422 276.973,1064.778 284.18,1086.871C294.528,1118.595 243.905,1141.282 233.649,1097.685ZM359.191,1108.354C358.878,1107.616 358.414,1106.949 358.101,1106.212C348.257,1083.022 373.975,1060.134 393.167,1071.877C421.985,1089.509 403.012,1128.898 374.518,1120.662C366.069,1118.22 360.09,1109.644 359.191,1108.354ZM310.487,1174.57C320.854,1174.799 331.327,1176.393 355.714,1169.238C369.591,1165.167 379.046,1152.107 385.473,1159.819C397.203,1173.895 326.873,1206.698 270.382,1177.871C268.438,1176.878 250.469,1168.709 254.448,1159.915C258.998,1149.86 269.605,1164.381 286.5,1169.476C297.212,1172.706 308.544,1174.297 310.487,1174.57Z" style="fill:rgb(57,61,64);"/>
            </g>
        </g>
    </g>
</svg>
