<?xml version="1.0" encoding="UTF-8" standalone="no"?>
<!DOCTYPE svg PUBLIC "-//W3C//DTD SVG 1.1//EN" "http://www.w3.org/Graphics/SVG/1.1/DTD/svg11.dtd">
<svg width="100%" height="100%" viewBox="0 0 382 434" version="1.1" xmlns="http://www.w3.org/2000/svg" xmlns:xlink="http://www.w3.org/1999/xlink" xml:space="preserve" xmlns:serif="http://www.serif.com/" style="fill-rule:evenodd;clip-rule:evenodd;stroke-linejoin:round;stroke-miterlimit:2;">
    <g transform="matrix(1,0,0,1,-630.281135,-1265.064111)">
        <g transform="matrix(1,0,0,1,-2800.768518,1227.901547)">
            <g transform="matrix(1.16404,0,0,1.161105,2634.900896,-989.728241)">
                <path d="M780.499,1235.961C763.079,1231.935 690.348,1220.194 686.758,1218.578C680.834,1215.912 685.791,1198.346 688.033,1183.645C690.307,1168.74 712.239,999.166 715.611,990.086C719.238,980.315 751.561,980.6 757.533,972.121C759.266,969.661 766.502,930.68 788.485,906.773C816.529,876.276 842.436,883.086 852.592,891.745C861.959,899.73 886.24,894.916 896.774,925.663C899.079,932.391 900.076,932.761 907.139,932.185C920.298,931.112 922.223,935.729 933.745,947.493C946.287,960.298 970.459,951.767 973.18,961.14C973.985,963.91 979.464,1002.789 979.975,1006.415C986.273,1051.102 986.39,1051.066 986.918,1054.952C992,1092.36 993.574,1097.318 995.093,1108.683C1002.046,1160.71 1002.434,1160.62 1003.012,1165.144C1008.832,1210.645 1013.807,1227.616 1010.688,1231.158C1008.988,1233.089 989.413,1237.779 985.182,1238.641C965.793,1242.587 914.582,1257.104 904.368,1257.377C899.647,1257.503 866.413,1251.892 863.97,1251.285C857.229,1249.609 787.183,1237.15 780.499,1235.961ZM807.831,1015.791C811.791,1015.242 823.116,1013.115 834.49,1014.256C841.827,1014.992 855.123,1017.414 856.367,1019.517C858.141,1022.518 857.602,1024.713 853.192,1035.997C848.037,1049.184 848.928,1049.398 847.097,1054.549C845.942,1057.8 845.911,1058.427 842.495,1058.349C842.019,1058.339 842.06,1058.278 836.67,1056.174C814.833,1047.649 802.999,1055.617 801.593,1056.582C777.903,1072.845 815.865,1093.269 823.189,1098.604C858.704,1124.476 844.997,1163.163 838.041,1173.646C826.372,1191.234 815.707,1195.154 796.829,1197.036C784.279,1198.288 763.863,1192.786 758.77,1190.19C735.226,1178.186 739.06,1172.675 743.661,1159.865C746.83,1151.042 744.11,1146.849 751.423,1147.721C752.936,1147.901 784.051,1168.959 795.875,1156.139C804.661,1146.613 795.428,1134.172 794.306,1132.661C787.168,1123.043 744.078,1105.246 758.436,1059.955C769.669,1024.521 799.437,1018.239 807.831,1015.791ZM804.01,952.472C801.705,960.616 801.272,961.468 788.513,965.214C787.695,965.454 779.241,967.936 778.166,967.808C777.797,967.764 777.779,967.159 777.501,966.912C775.748,965.351 775.491,965.151 776.528,961.026C791.476,901.584 834.011,895.143 837.102,899.024C839.28,901.758 836.918,903.41 836.615,903.622C835.486,904.413 833.02,903.927 825.349,911.31C811.6,924.544 808.071,939.813 804.01,952.472ZM852.024,926.061C854.232,939.873 856.568,945.986 848.197,948.303C823.406,955.166 823.218,956.075 821.316,954.94C820,954.156 818.009,952.968 825.949,936.366C829.463,929.017 845.742,907.631 849.983,918.049C849.983,918.049 851.86,925.42 852.024,926.061ZM868.307,931.443C867.144,926.011 867.268,926.093 865.987,920.61C862.604,906.133 873.363,914.574 877.417,920.509C887.644,935.482 884.081,937.708 880.081,939.087C868.918,942.936 869.347,937.373 868.307,931.443Z" style="fill:rgb(58,62,65);"/>
            </g>
        </g>
    </g>
</svg>
