<?xml version="1.0" encoding="UTF-8" standalone="no"?>
<!DOCTYPE svg PUBLIC "-//W3C//DTD SVG 1.1//EN" "http://www.w3.org/Graphics/SVG/1.1/DTD/svg11.dtd">
<svg width="100%" height="100%" viewBox="0 0 433 429" version="1.1" xmlns="http://www.w3.org/2000/svg" xmlns:xlink="http://www.w3.org/1999/xlink" xml:space="preserve" xmlns:serif="http://www.serif.com/" style="fill-rule:evenodd;clip-rule:evenodd;stroke-linejoin:round;stroke-miterlimit:2;">
    <g transform="matrix(1,0,0,1,-1172.795539,-1883.630331)">
        <g transform="matrix(1,0,0,1,-2800.768518,1841.897378)">
            <g transform="matrix(3.44252,0,0,3.44252,3100.741226,-347.009451)">
                <path d="M278.504,145.944C281.867,146.014 297.037,145.913 300.526,146.055C309.46,146.417 312.187,153.504 312.477,154.507C315.388,164.573 307.823,171.267 301.448,172.075C299.923,172.269 266.626,172.209 265.539,172.098C254.677,170.987 250.874,158.605 255.732,151.658C260.476,144.876 267.347,145.961 278.504,145.944Z" style="fill:rgb(57,61,65);"/>
            </g>
        </g>
        <g transform="matrix(1,0,0,1,-2800.768518,1841.897378)">
            <g transform="matrix(3.44252,0,0,3.44252,3100.741226,-347.009451)">
                <path d="M319.937,191.513C320.034,190.917 320.764,186.429 322.302,184.354C326.896,178.152 331.307,178.868 344.502,178.854C369.437,178.829 369.508,178.9 371.394,179.75C384.091,185.468 379.977,202.927 369.55,204.741C365.706,205.41 332.476,204.98 331.462,204.892C326.34,204.451 323.044,200.495 322.44,199.546C319.616,195.103 320.009,192.255 319.937,191.513Z" style="fill:rgb(57,62,65);"/>
            </g>
        </g>
        <g transform="matrix(1,0,0,1,-2800.768518,1841.897378)">
            <g transform="matrix(3.44252,0,0,3.44252,3100.741226,-347.009451)">
                <path d="M319.967,130.49C320.01,129.271 318.976,117.951 327.445,114.365C332.717,112.133 334.889,112.954 337.67,114.03C338.737,114.442 345.799,117.172 346.168,125.53C346.298,128.484 346.216,157.934 346.203,158.493C345.822,174.25 324.982,178.112 320.411,161.524C319.752,159.13 319.98,159.084 319.967,130.49Z" style="fill:rgb(56,61,64);"/>
            </g>
        </g>
        <g transform="matrix(1,0,0,1,-2800.768518,1841.897378)">
            <g transform="matrix(3.44252,0,0,3.44252,3100.741226,-347.009451)">
                <path d="M305.663,180.191C313.207,184.988 313.034,186.217 313.015,203.485C312.988,228.108 313.176,228.461 310.283,232.347C304.248,240.452 287.108,239.652 286.828,222.497C286.785,219.852 286.357,193.684 287.107,189.434C287.751,185.783 292.861,175.05 305.663,180.191Z" style="fill:rgb(57,61,64);"/>
            </g>
        </g>
        <g transform="matrix(1,0,0,1,-2800.768518,1841.897378)">
            <g transform="matrix(3.44252,0,0,3.44252,3100.741226,-347.009451)">
                <path d="M280.083,190.506C279.949,192.175 280.62,194.254 277.579,199.552C272.401,208.576 254.461,206.732 253.566,192.497C253.169,186.188 257.652,179.033 266.517,178.891C278.728,178.694 278.865,178.647 279.618,179.377C280.349,180.088 280.138,182.532 280.083,190.506Z" style="fill:rgb(58,62,65);"/>
            </g>
        </g>
        <g transform="matrix(1,0,0,1,-2800.768518,1841.897378)">
            <g transform="matrix(3.44252,0,0,3.44252,3100.741226,-347.009451)">
                <path d="M367.468,145.943C367.968,146.042 371.773,146.008 375.371,149.631C383.53,157.847 377.751,171.937 366.485,172.164C354.448,172.408 354.272,172.21 353.584,171.438C352.991,170.772 352.73,157.578 353.762,154.584C353.979,153.953 355.205,150.398 358.827,147.961C361.909,145.887 366.758,145.936 367.468,145.943Z" style="fill:rgb(56,61,64);"/>
            </g>
        </g>
        <g transform="matrix(1,0,0,1,-2800.768518,1841.897378)">
            <g transform="matrix(3.44252,0,0,3.44252,3100.741226,-347.009451)">
                <path d="M299.512,112.924C303.082,113.326 303.185,113.073 306.326,114.818C307.734,115.601 308.429,116.254 308.59,116.405C313.689,121.2 313.08,126.836 312.977,136.517C312.959,138.28 313.137,138.672 311.447,139.182C311.322,139.219 301.896,139.266 299.522,139.176C290.257,138.822 285.586,130.726 287.114,123.424C289.021,114.307 298.223,113.094 299.512,112.924Z" style="fill:rgb(55,61,64);"/>
            </g>
        </g>
        <g transform="matrix(1,0,0,1,-2800.768518,1841.897378)">
            <g transform="matrix(3.44252,0,0,3.44252,3100.741226,-347.009451)">
                <path d="M320.062,217.485C320.066,217.077 320.102,212.792 320.242,212.388C320.571,211.438 320.857,211.153 332.502,211.289C333.321,211.298 338.44,211.358 342.077,214.904C352.464,225.034 341.476,241.235 328.467,236.587C318.02,232.855 320.052,218.027 320.062,217.485Z" style="fill:rgb(56,61,64);"/>
            </g>
        </g>
    </g>
</svg>
