<?xml version="1.0" encoding="UTF-8" standalone="no"?>
<!DOCTYPE svg PUBLIC "-//W3C//DTD SVG 1.1//EN" "http://www.w3.org/Graphics/SVG/1.1/DTD/svg11.dtd">
<svg width="100%" height="100%" viewBox="0 0 394 443" version="1.1" xmlns="http://www.w3.org/2000/svg" xmlns:xlink="http://www.w3.org/1999/xlink" xml:space="preserve" xmlns:serif="http://www.serif.com/" style="fill-rule:evenodd;clip-rule:evenodd;stroke-linejoin:round;stroke-miterlimit:2;">
    <g transform="matrix(1,0,0,1,-2314.159072,-1262.5692)">
        <g transform="matrix(1,0,0,1,-1116.993644,1227.901547)">
            <g transform="matrix(3.186627,0,0,3.186627,1366.889099,-1014.035216)">
                <path d="M732.499,329.095C735.333,329.377 735.335,329.296 735.558,329.4C737.312,330.217 736.929,340.423 744.302,348.676C757.312,363.241 769.991,359.998 771.046,362.697C771.419,363.654 771.384,384.903 771.207,385.39C770.664,386.895 766.397,386.234 764.537,386.081C744.3,384.415 738.319,374.16 736.477,376.487C736.276,376.74 736.38,376.78 736.441,379.5C736.509,382.519 736.538,406.842 736.543,409.5C736.561,417.546 738.285,437.194 727.619,450.591C716.547,464.497 704.305,466.695 700.473,467.329C663.333,473.47 637.898,436.772 651.507,405.504C664.54,375.562 697.322,377.174 699.08,379.789C699.481,380.385 699.482,383.201 699.483,383.5C699.49,400.993 699.6,400.984 699.516,402.502C699.429,404.069 699.039,404.178 697.472,403.935C696.481,403.782 695.498,403.583 694.507,403.434C682.385,401.619 670.552,413.717 672.258,425.532C674.749,442.777 694.681,449.055 705.556,438.556C713.257,431.12 712.105,426.297 712.107,406.499C712.113,330.365 712,330.194 712.593,329.592C713.148,329.03 713.289,329.105 732.499,329.095Z" style="fill:rgb(58,62,65);"/>
            </g>
        </g>
    </g>
</svg>
