<?xml version="1.0" encoding="UTF-8" standalone="no"?>
<!DOCTYPE svg PUBLIC "-//W3C//DTD SVG 1.1//EN" "http://www.w3.org/Graphics/SVG/1.1/DTD/svg11.dtd">
<svg width="100%" height="100%" viewBox="0 0 450 446" version="1.1" xmlns="http://www.w3.org/2000/svg" xmlns:xlink="http://www.w3.org/1999/xlink" xml:space="preserve" xmlns:serif="http://www.serif.com/" style="fill-rule:evenodd;clip-rule:evenodd;stroke-linejoin:round;stroke-miterlimit:2;">
    <g transform="matrix(1,0,0,1,-2279,-3112.58916)">
        <g transform="matrix(1,0,0,1,-6376,3079.545126)">
            <g transform="matrix(2.255776,0,0,2.255776,7327.612021,-272.107518)">
                <path d="M707.603,137.127C711.082,137.844 741.626,141.82 767.58,174.312C779.742,189.538 793.687,222.442 785.452,254.649C783.027,264.131 783.259,264.196 779.494,273.231C774.197,285.945 759.76,306.992 739.43,318.627C734.382,321.516 718.95,330.89 694.056,332.746C674.52,334.202 650.12,327.812 634.606,316.902C627.436,311.859 590.643,288.996 588.476,234.481C588.018,222.973 591.895,201.395 602.179,184.449C628.814,140.561 673.338,130.514 707.603,137.127ZM645.876,152.875C648.187,151.739 662.569,144.673 676.59,143.251C699.473,140.93 711.607,145.737 715.644,146.788C735.192,151.876 751.664,166.909 758.69,175.24C771.674,190.638 775.888,206.133 776.692,209.092C777.259,211.175 780.846,224.366 780.243,235.833C779.433,251.238 778.679,251.114 776.605,258.825C775.093,264.448 774.797,264.297 772.643,269.708C771.799,271.827 767.393,282.895 757.448,293.83C746.006,306.412 740.24,309.193 735.512,312.101C688.013,341.314 623.871,321.079 601.806,265.16C587.66,229.307 599.518,177.107 645.876,152.875Z" style="fill:rgb(50,57,58);"/>
            </g>
        </g>
        <g transform="matrix(1,0,0,1,-6376,3079.545126)">
            <g transform="matrix(3.031199,0,0,3.031199,7327.612021,-272.107518)">
                <path d="M540.94,209.135C540.535,207.877 540.621,207.314 536.375,194.539C533.374,185.505 533.252,185.579 530.292,176.558C529.969,175.572 529.893,175.623 525.964,164.327C524.958,161.434 525.291,161.34 523.401,156.538C522.621,154.557 522.859,154.492 521.49,150.503C521.098,149.359 519.173,146.653 523.5,146.48C523.644,146.474 529.959,146.997 529.676,143.482C529.379,139.797 523.7,141.611 508.5,141.469C500.435,141.393 491.6,139.369 492.958,144.33C493.847,147.575 500.424,145.101 501.738,148.395C502.356,149.944 506.705,161.995 507.834,165.387C509.295,169.774 510.342,169.858 508.862,173.653C505.896,181.255 499.61,200.292 498.842,202.62C497.227,207.509 497.032,207.438 496.955,207.878C496.792,208.806 497.131,209.022 496.43,209.39C495.136,210.071 495.458,208.772 488.86,189.366C486.446,182.264 486.005,181.841 483.847,174.411C483.451,173.048 483.138,173.174 478.188,157.592C476.512,152.318 474.016,147.081 476.555,146.731C478.529,146.459 478.515,146.708 480.489,146.42C485.133,145.741 485.154,141.226 480.5,141.128C476.201,141.037 462.744,141.689 462.461,141.602C460.837,141.105 461.965,139.561 465.432,135.445C472.729,126.779 476.352,125.376 481.695,121.797C483.726,120.436 492.666,116.173 498.455,115.214C501.795,114.661 522.351,110.327 541.663,121.168C542.656,121.726 554.583,128.421 552.467,130.443C552.001,130.888 548.107,129.844 544.269,135.347C542.162,138.369 541.475,143.589 544.732,149.382C547.304,153.958 556.608,164.488 550.164,183.389C548.764,187.496 543.189,205.118 543.124,205.395C542.738,207.018 542.661,208.015 542.505,208.503C542.203,209.453 541.923,209.167 540.94,209.135Z" style="fill:rgb(54,60,61);"/>
            </g>
        </g>
        <g transform="matrix(1,0,0,1,-6376,3079.545126)">
            <g transform="matrix(3.031199,0,0,3.031199,7327.612021,-272.107518)">
                <path d="M505.87,199.633C508.463,192.564 511.363,183.319 511.583,182.535C511.64,182.332 512.943,177.684 514.06,181.648C516.157,189.093 516.57,188.915 518.505,194.498C530.712,229.717 532.076,230.106 530.569,231.573C528.301,233.78 508.603,236.405 497.383,232.829C493.83,231.697 496.216,229.217 498.807,220.591C500.071,216.383 500.584,215.967 501.093,214.368C505.421,200.785 505.509,200.819 505.87,199.633Z" style="fill:rgb(53,60,60);"/>
            </g>
        </g>
        <g transform="matrix(1,0,0,1,-6376,3079.545126)">
            <g transform="matrix(3.031199,0,0,3.031199,7327.612021,-272.107518)">
                <path d="M480.149,215.629C483.908,226.435 484.619,226.695 484.164,227.317C483.385,228.384 483.117,227.427 476.273,222.881C466.6,216.457 447.713,196.218 451.937,165.565C452.096,164.413 452.234,163.407 455.407,151.453C455.83,149.86 457.202,149.794 457.593,151.457C459.53,159.707 462.686,165.535 467.575,180.473C469.864,187.467 474.194,198.8 474.798,200.383C475.259,201.591 475.046,201.64 480.149,215.629Z" style="fill:rgb(53,61,61);"/>
            </g>
        </g>
        <g transform="matrix(1,0,0,1,-6376,3079.545126)">
            <g transform="matrix(3.031199,0,0,3.031199,7327.612021,-272.107518)">
                <path d="M573.147,177.476C572.882,179.987 571.865,204.771 549.679,221.751C547.462,223.448 547.354,223.245 545.195,225.05C545.038,225.182 541.29,228.316 542.677,224.533C543.769,221.555 543.985,221.678 544.999,218.656C546.867,213.092 546.993,213.173 548.855,207.618C556.777,183.996 566.82,160.851 565.665,150.494C565.335,147.531 564.919,147.442 565.536,146.535C565.606,146.431 566.291,145.424 567.076,146.811C567.202,147.034 571.006,157.643 571.785,161.443C573.566,170.134 573.237,172.544 573.147,177.476Z" style="fill:rgb(53,60,60);"/>
            </g>
        </g>
    </g>
</svg>
