<?xml version="1.0" encoding="UTF-8" standalone="no"?>
<!DOCTYPE svg PUBLIC "-//W3C//DTD SVG 1.1//EN" "http://www.w3.org/Graphics/SVG/1.1/DTD/svg11.dtd">
<svg width="100%" height="100%" viewBox="0 0 464 325" version="1.1" xmlns="http://www.w3.org/2000/svg" xmlns:xlink="http://www.w3.org/1999/xlink" xml:space="preserve" xmlns:serif="http://www.serif.com/" style="fill-rule:evenodd;clip-rule:evenodd;stroke-linejoin:round;stroke-miterlimit:2;">
    <g transform="matrix(1,0,0,1,-27.185737,-2568.559847)">
        <g transform="matrix(1,0,0,1,-6369.056662,2474.802936)">
            <g transform="matrix(1.290825,0,0,1.290825,3483.218415,-351.306607)">
                <path d="M2260.338,533.605C2259.68,527.825 2257.582,512.686 2257.368,506.516C2255.388,449.388 2258.457,425.001 2259.342,417.971C2261.842,398.1 2260.889,361.925 2296.77,351.768C2314.912,346.632 2422.237,343.54 2476.533,345.276C2579.301,348.562 2586.986,348.481 2602.186,369.988C2620.121,395.365 2616.08,503.252 2613.95,522.755C2609.794,560.823 2604.776,578.621 2578.885,587.922C2565.154,592.854 2486.7,596.044 2446.972,596.159C2438.151,596.185 2375.964,596.365 2336.759,592.892C2305.131,590.091 2298.121,590.991 2288.032,585.21C2268.412,573.967 2263.3,562.818 2260.338,533.605ZM2399.763,428.658C2399.715,421.313 2399.582,415.137 2406.208,418.825C2407.716,419.664 2421.382,427.269 2424.944,429.511C2428.627,431.828 2438.449,437.436 2439.631,438.111C2478.004,460.022 2478.146,459.716 2481.37,461.8C2490.146,467.475 2492.015,466.301 2492.214,469.047C2492.359,471.048 2492.24,471.2 2490.415,472.143C2460.81,487.442 2461.255,488.059 2406.391,519.498C2405.938,519.758 2401.093,522.534 2399.869,519.593C2399.706,519.201 2399.758,435.933 2399.763,428.658Z" style="fill:rgb(57,61,64);"/>
            </g>
        </g>
    </g>
</svg>
