<?xml version="1.0" encoding="UTF-8" standalone="no"?>
<!DOCTYPE svg PUBLIC "-//W3C//DTD SVG 1.1//EN" "http://www.w3.org/Graphics/SVG/1.1/DTD/svg11.dtd">
<svg width="100%" height="100%" viewBox="0 0 450 443" version="1.1" xmlns="http://www.w3.org/2000/svg" xmlns:xlink="http://www.w3.org/1999/xlink" xml:space="preserve" xmlns:serif="http://www.serif.com/" style="fill-rule:evenodd;clip-rule:evenodd;stroke-linejoin:round;stroke-miterlimit:2;">
    <g transform="matrix(1,0,0,1,-5286.069692,-1312.619789)">
        <g transform="matrix(1,0,0,1,-3933.930308,1279.897378)">
            <g transform="matrix(1.375842,0,0,1.375842,6826.420315,-392.171506)">
                <path d="M1932.363,329.436C1935.445,348.138 1934.536,353.605 1941.802,355.822C1961.617,361.868 1962.452,367.317 1970.9,360.958C1998.049,340.525 2000.762,341.517 2003.58,342.549C2005.143,343.121 2033.969,368.062 2034.057,374.869C2034.151,382.161 2011.668,405.77 2011.94,412.516C2012.028,414.714 2019.078,433.572 2022.897,435.729C2030.564,440.061 2059.795,439.404 2064.924,447.67C2067.236,451.396 2067.753,487.869 2064.449,492.499C2059.647,499.23 2025.453,497.872 2020.13,506.854C2010.028,523.9 2012.064,528.454 2012.863,530.243C2016.601,538.606 2034.827,559.448 2033.187,565.75C2031.583,571.916 2010.921,590.675 2010.323,591.271C2002.773,598.796 2001.057,599.438 1992.162,593.533C1965.997,576.162 1965.904,575.919 1963.196,575.991C1959.088,576.101 1959.836,578.315 1944.73,582.968C1931.869,586.929 1937.49,592.073 1929.699,621.865C1927.913,628.695 1926.489,630.92 1901.401,630.426C1883.614,630.076 1878.729,630.385 1876.364,619.701C1869.876,590.388 1873.595,586.848 1864.096,583.58C1845.878,577.311 1845.261,573.38 1836.665,578.797C1812.722,593.886 1809.525,602.34 1798.955,592.96C1772.89,569.827 1769.33,566.598 1776.334,555.835C1791.405,532.675 1798.335,532.004 1792.283,519.5C1786.291,507.12 1787.666,504.45 1780.809,502.673C1747.867,494.137 1740.983,498.303 1740.047,485.1C1739.286,474.351 1739.972,453.075 1740.893,450.323C1743.457,442.668 1749.855,443.728 1777.565,438.339C1788.711,436.171 1785.806,432.254 1791.9,420.949C1797.281,410.967 1795.191,409.847 1784.669,394.615C1774.738,380.24 1766.907,377.445 1778.715,365.052C1801.512,341.124 1804.557,341.651 1807.454,342.152C1812.926,343.098 1838.115,364.575 1844.691,363.028C1847.396,362.391 1852.425,359.126 1861.197,356.457C1868.348,354.282 1870.701,354.975 1872.59,342.79C1877.428,311.584 1878.815,310.289 1885.149,309.402C1887.421,309.084 1918.309,308.257 1923.121,309.446C1928.854,310.863 1928.411,314.348 1932.363,329.436ZM1915.059,531.995C1904.325,533.221 1876.544,537.588 1852.101,507.335C1836.768,488.357 1827.061,439.585 1874.784,413.013C1897.843,400.173 1947.666,404.947 1963.922,449.907C1970.416,467.869 1970.263,519.056 1915.059,531.995Z" style="fill:rgb(56,60,63);"/>
            </g>
        </g>
    </g>
</svg>
