<?xml version="1.0" encoding="UTF-8" standalone="no"?>
<!DOCTYPE svg PUBLIC "-//W3C//DTD SVG 1.1//EN" "http://www.w3.org/Graphics/SVG/1.1/DTD/svg11.dtd">
<svg width="100%" height="100%" viewBox="0 0 383 450" version="1.1" xmlns="http://www.w3.org/2000/svg" xmlns:xlink="http://www.w3.org/1999/xlink" xml:space="preserve" xmlns:serif="http://www.serif.com/" style="fill-rule:evenodd;clip-rule:evenodd;stroke-linejoin:round;stroke-miterlimit:2;">
    <g transform="matrix(1,0,0,1,-9253.555927,-37.249502)">
        <g transform="matrix(1,0,0,1,-1124,6.249502)">
            <g transform="matrix(2.373152,0,0,2.373152,8309.222258,-1007.581424)">
                <path d="M1020.508,464.657C1030.674,466.336 1032.253,466.033 1032.581,470.988C1032.851,475.064 1033.958,491.781 1029.44,521.959C1028.338,529.315 1023.737,548.228 1020.183,555.449C1018.04,559.802 1019.269,560.378 1009.919,577.197C1009.199,578.492 1000.141,591.699 996.205,595.775C979.916,612.645 970.623,618.507 955.773,626.273C954.474,626.952 953.265,629.436 941.531,622.453C918.963,609.023 907.52,594.792 905.135,591.826C902.13,588.088 886.264,568.356 878.645,538.042C878.231,536.396 875.413,523.403 875.136,522.129C873.008,512.318 869.472,471.115 873.16,467.334C875.355,465.085 895.462,464.337 916.978,455.861C918.769,455.155 933.482,449.359 938.831,445.809C940.302,444.832 941.338,444.26 942.913,443.173C948.272,439.474 951.546,437.047 953.241,437.764C957.991,439.773 972.68,453.807 1011.184,462.871C1013.546,463.427 1013.539,463.298 1020.508,464.657ZM1011.773,532.95C1001.279,576.902 974.56,597.526 961.174,606.275C961.065,606.347 956.989,608.53 954.925,609.908C952.954,611.224 952.317,609.462 952.294,608.023C951.985,588.606 952.273,475.767 952.303,464.266C952.309,461.866 952.181,456.977 952.55,456.506C953.759,454.959 954.052,456.679 971.121,465.059C991.554,475.09 1016.223,478.472 1017.307,479.64C1019.22,481.702 1017.116,514.429 1011.773,532.95Z" style="fill:rgb(54,61,62);"/>
            </g>
        </g>
    </g>
</svg>
