<?xml version="1.0" encoding="UTF-8" standalone="no"?>
<!DOCTYPE svg PUBLIC "-//W3C//DTD SVG 1.1//EN" "http://www.w3.org/Graphics/SVG/1.1/DTD/svg11.dtd">
<svg width="100%" height="100%" viewBox="0 0 366 377" version="1.1" xmlns="http://www.w3.org/2000/svg" xmlns:xlink="http://www.w3.org/1999/xlink" xml:space="preserve" xmlns:serif="http://www.serif.com/" style="fill-rule:evenodd;clip-rule:evenodd;stroke-linejoin:round;stroke-miterlimit:2;">
    <g transform="matrix(1,0,0,1,-2329.679629,-683.969956)">
        <g transform="matrix(1,0,0,1,2315.506356,671.951026)">
            <path d="M153.444,26.43C155.945,24.76 175.611,6.321 211.429,13.794C214.93,14.524 234.327,18.571 249.213,37.688C249.944,38.325 250.676,38.962 251.407,39.598C251.673,40.287 251.939,40.975 252.205,41.663L253.542,43.464C254.4,44.893 255.258,46.321 256.115,47.75C256.515,48.358 256.915,48.967 257.315,49.575L259.022,52.846C261.174,56.806 261.235,56.561 263.402,60.54C263.85,61.487 264.299,62.434 264.747,63.381C265.172,64.188 265.597,64.994 266.021,65.801L267.174,67.635L268.201,69.69C285.07,101.475 284.922,101.509 288.479,107.507C290.311,111.134 290.111,111.006 292.041,114.781L293.15,116.669C315.728,159.745 315.345,159.868 317.411,163.551L318.679,166.432C319.624,167.015 319.39,167.201 325.025,178.782C328.267,185.052 328.111,185.022 328.433,185.534C329.319,187.28 330.205,189.026 331.092,190.772C331.223,190.98 332.256,192.613 332.569,193.465C332.913,194.126 333.258,194.787 333.602,195.448C334.703,198.136 334.695,198.12 334.791,198.351C334.922,198.666 335.116,198.289 335.278,198.608C336.408,200.842 345.829,219.448 349.327,226.566C349.471,226.895 350.248,228.66 351.45,230.516C352.122,231.94 352.145,231.68 353.453,232.544C353.35,235.069 353.806,235.368 357.405,242.552C360.259,248.652 360.148,248.581 372.731,277.448C373.041,278.098 373.351,278.749 373.66,279.399C374.771,284.094 374.708,284 376.83,293.49C377.024,295.816 378.307,311.241 374.857,322.594L374.789,323.549L373.993,326.605C373.628,327.639 373.878,327.517 373.526,328.516C373.416,328.83 373.419,328.805 372.078,332.416C363.15,348.784 364.597,349.737 349.643,365.678L349.51,366.514C348.306,366.825 348.467,366.675 347.425,367.394C346.675,368.023 345.925,368.653 345.175,369.282C341.197,374.807 320.675,382.201 318.411,383.017C317.827,383.127 288.358,392.327 252.624,378.205L250.562,377.325L248.724,376.214C245.498,374.503 239.389,370.804 238.587,370.318C236.39,368.801 214.58,353.739 211.911,350.275C211.209,349.547 210.507,348.82 209.804,348.092L205.525,344.48C202.531,341.81 202.6,341.982 199.508,339.484C199.107,337.958 199.423,337.876 196.572,335.391C194.81,333.855 187.759,342.452 187.134,343.084C183.401,346.594 182.985,346.102 180.505,350.503C178.383,350.985 179.343,352.527 158.539,366.561C158.234,366.808 158.234,366.787 150.571,371.653L148.162,373.015C147.462,373.385 147.536,373.357 142.44,376.318C140.067,377.28 137.694,378.242 135.321,379.204C132.388,380.227 125.408,382.464 124.543,382.74C123.525,382.976 122.506,383.211 121.488,383.447C119.831,383.833 118.175,384.22 116.518,384.607C96.342,387.479 87.548,385.211 79.522,384.406C78.5,384.206 77.478,384.006 76.457,383.806C76.218,383.713 76.286,383.84 73.389,382.866L72.448,382.738C71.654,382.481 65.279,380.409 62.598,379.299C58.984,377.316 38.934,366.313 24.682,344.415C22.426,341.778 23.413,341.415 21.59,338.426C12.822,317.818 10.95,298.543 20.769,271.67C21.195,270.564 21.62,269.458 22.046,268.352C23.2,266.081 31.731,249.29 35.416,239.458C35.754,238.793 36.092,238.129 36.429,237.464C37.166,236.589 36.8,236.494 37.563,235.532C37.872,234.853 38.181,234.174 38.49,233.495C43.328,227.146 41.215,226.191 45.536,219.518C45.844,218.838 46.152,218.159 46.459,217.479C47.285,216.447 46.957,216.382 53.942,202.748L56.257,198.389C56.597,197.701 56.721,197.929 57.05,197.263C57.161,197.04 57.05,197.263 58.284,194.402C60.947,189.219 61.005,189.452 62.603,185.542L63.583,183.563L64.379,182.444C64.838,181.514 65.296,180.584 65.754,179.654C66.394,178.289 67.034,176.924 67.674,175.559C71.24,169.03 71.189,169.234 74.643,162.574C74.938,161.887 75.233,161.201 75.528,160.515C76.93,158.663 76.397,158.372 88.939,134.767L91.511,129.506C93.159,127.033 93.062,127.15 94.304,124.412C95.441,121.862 94.295,121.275 96.593,119.575C97.749,117.443 97.208,117.369 98.556,115.523C99.137,114.473 99.718,113.422 100.299,112.372L101.061,111.285L101.94,109.78L102.993,107.707C104.935,104.077 104.956,104.251 106.619,100.57C112.232,90.012 112.406,90.26 117.554,79.531C119.995,74.869 124.863,67.079 127.606,60.543C127.918,59.541 128.23,58.539 128.543,57.537C132.276,52.824 131.826,52.689 134.888,47.665C135.482,46.898 135.383,46.956 137.408,43.424L138.777,41.636C143.823,34.482 149.369,30.019 151.587,27.605C152.206,27.213 152.825,26.822 153.444,26.43ZM216.967,60.493C214.013,65.792 220.042,67.932 219.476,70.502C219.155,71.957 225.659,73.167 226.055,74.72C226.99,78.387 228.466,77.31 230.378,80.518C228.618,83.918 230.516,83.7 233.832,85.638C233.452,87.29 233.272,87.293 234.421,88.578C246.637,102.244 243.427,104.325 244.649,105.309C250.333,109.885 244.825,113.571 254.655,123.36C255.801,124.501 254.713,126.522 255.788,128.327C258.973,133.676 258.975,133.878 259.51,133.891C265.264,134.029 258.073,141.741 264.557,143.002C268.739,143.816 265.868,146.772 267.374,148.592C267.935,149.269 270.678,152.586 272.004,158.551C272.046,158.738 276.878,173.514 278.524,173.344C281.884,172.996 280.015,175.34 283.348,183.581C284.915,187.455 287.157,185.06 289.455,188.542C289.656,190.175 289.493,190.091 290.586,191.385C290.826,191.768 290.579,192.799 292.527,194.482C296.19,197.647 293.801,199.045 294.116,199.537C295.082,201.047 300.506,199.461 296.928,205.542C297.151,206.464 297.714,208.8 301.658,216.416C315.043,242.262 317.086,240.965 317.828,243.367C315.681,245.56 315.496,246.28 318.015,247.867C318.566,248.389 319.117,248.911 319.668,249.433C324.275,270.441 330.45,267.873 332.022,276.788C334.392,290.229 337.51,290.616 337.093,303.503C337.088,303.667 337.093,303.503 337.814,305.425C336.574,307.304 336.613,307.231 337.068,309.555C336.992,316.381 330.278,319.739 331.918,322.025C332.788,323.237 333.714,323.51 331.177,326.346C330.428,327.745 330.434,327.545 330.03,329.181C327.869,334.606 324.433,339.313 329.355,344.333L327.62,345.617C323.916,339.021 324.17,338.575 323.538,338.696C319.855,339.403 323.28,345.893 320.685,343.297C314.314,336.927 314.077,345.357 304.49,346.937C299.652,344.265 296.669,349.327 289.346,348.316C287.88,350.519 287.459,349.292 285.282,347.679C279.969,345.055 280.127,351.117 277.466,350.756C277.212,350.722 277.243,350.675 274.45,349.661C272.382,348.535 272.625,348.509 271.747,346.538C271.613,345.375 271.477,344.201 259.686,338.246C256.299,336.536 251.396,341.59 251.446,335.51C251.466,333.012 244.942,328.292 244.259,327.797C244.123,327.044 243.771,325.09 239.042,319.773C230.825,311.013 225.981,319.965 225.735,316.474C225.462,312.599 231.059,316.342 231.995,310.538C233.33,302.255 238.559,304.214 238.928,295.735C238.932,295.652 241.85,292.022 242.407,291.446C244.18,289.26 244.134,289.15 243.536,286.495C243.457,286.146 245.816,287.374 245.569,282.507C245.792,282.735 249.576,286.623 249.419,281.487C249.277,276.83 251.978,277.988 253.723,273.629C259.111,260.175 259.832,260.685 260.001,259.456C260.56,255.402 269.033,247.386 271.352,213.493C271.462,211.886 264.937,211.401 270.105,208.477C270.28,207.524 270.454,206.57 270.628,205.617C271.73,200.732 275.448,190.04 268.519,188.433C263.358,187.236 264.029,166.926 246.481,153.524C246.23,153.332 246.001,153.157 242.558,153.143L241.393,151.67C239.062,149.232 239.234,149.209 236.512,147.223C235.82,147.8 235.128,148.378 234.437,148.956C234.109,148.578 230.929,144.921 231.419,143.482C233.493,137.384 227.369,141.896 223.558,140.118C219.853,139.523 220.251,141.367 216.464,141.603C213.007,137.426 212.277,138.943 211.492,138.945C202.368,137.323 199.773,139.074 198.462,136.535C198.092,136.429 197.721,136.324 197.351,136.219C197.128,136.396 197.994,138.139 191.372,138.15C185.76,137.872 185.95,139.148 180.485,138.887C179.601,138.845 172.669,138.514 169.569,140.667C164.218,144.384 161.887,140.883 158.614,146.512C152.915,149.355 152.616,150.869 152.494,151.489C151.705,152.068 142.83,158.588 142.606,158.698C141.285,159.341 132.448,163.646 129.35,171.423C125.133,182.01 124.12,181.558 123.986,182.536C123.525,185.905 130.347,184.524 127.378,186.375C128.188,189.182 128.56,188.739 130.541,190.6C130.237,191.428 128.864,195.175 128.752,201.485C128.299,203.669 125.571,216.82 129.846,229.344C129.971,229.709 131.939,229.597 132.122,229.587L132.124,230.543C130.691,232.575 130.598,233.647 133.09,233.628L133.206,234.561C130.007,238.928 132.077,239.283 133.895,244.329C134.075,244.829 135.116,247.719 137.5,249.906C135.089,255.117 140.515,255.026 139.081,260.464C136.665,266.772 142.286,264.106 144.183,266.959C144.704,267.743 143.862,268.175 149.769,277.323C149.862,277.466 149.769,277.323 151.67,276.373C151.997,277.065 152.324,277.756 152.651,278.447C151.906,280.371 151.935,280.208 151.906,280.371C151.642,281.887 152.496,280.587 153.894,280.208L155.412,282.543C154.321,284.296 153.587,284.257 154.56,285.443C158.539,290.29 167.356,307.046 175.738,312.255C176.684,313.218 176.48,313.224 176.627,314.572C175.743,314.962 167.638,318.536 168.688,323.669C167.989,324.324 167.29,324.979 166.591,325.633C163.869,325.739 164.255,326.41 162.594,328.562C162.037,329.476 162.342,329.693 152.165,338.092C152.072,338.019 145.894,335.211 148.617,340.623C147.958,341.049 147.3,341.474 146.642,341.9C141.659,339.666 142.317,343.69 130.556,348.611C121.742,352.3 119.96,355.124 119.387,356.031C117.635,354.817 116.664,354.651 116.737,356.888C115.99,357.073 115.242,357.258 114.494,357.443C112.424,355.661 112.236,356.945 109.577,357.256C106.051,356.789 106.175,356.717 102.555,356.679L101.502,356.601C98.374,356.849 96.179,357.178 98.498,359.397L91.565,359.05C90.388,355.89 89.013,356.769 88.51,356.735C87.094,356.487 87.161,356.606 86.144,355.659C85.585,355.565 85.027,355.471 84.468,355.377C83.892,355.401 82.455,355.461 77.453,353.709C69.883,350.511 69.613,350.669 67.59,346.436C67.032,345.27 62.931,344.289 62.497,344.185C62.497,344.185 60.468,344.629 60.292,344.668C60.122,341.526 59.451,340.069 56.924,342.09L55.079,339.853C55.132,339.224 56.383,339.16 56.436,338.531C56.465,338.181 56.6,336.56 52.577,336.426C52.201,335.9 49.89,332.669 48.215,329.621C48.536,328.957 49.236,327.506 46.856,320.508C49.711,319.142 50.033,318.6 50.196,318.325C51.72,315.765 49.226,317.601 46.263,317.758C45.933,316.992 44.745,314.237 44.456,307.486C46.986,306.88 49.813,307.631 49.052,305.732C48.91,305.379 42.032,288.224 45.765,302.288C46.379,304.604 46.733,305.447 44.179,305.545C44.048,295.073 48.39,294.176 43.798,289.56C44.255,288.148 44.711,286.735 45.167,285.323C45.744,285.323 53.21,285.317 47.632,278.544L48.192,277.31C56.043,277.305 56.885,274.077 52.509,267.503L53.201,266.282C54.648,266.304 56.372,266.33 63.226,251.221C67.315,252.06 67.148,252.435 67.502,252.402C72.872,251.9 64.418,249.554 64.069,249.457C64.511,248.774 64.954,248.092 65.396,247.409C68.098,246.605 68.432,246.295 67.618,243.501C67.835,243.02 69.423,239.502 70.125,237.39C73.414,227.493 78.184,228.943 77.293,218.419C77.624,218.054 77.954,217.689 78.285,217.324C84.216,214.227 85.224,205.023 84.523,203.509L86.151,200.315C88.05,200.281 88.009,200.427 88.05,200.281C89.054,196.659 91.657,196.837 89.608,193.539C91.082,190.734 92.556,187.93 94.029,185.125C97.455,183.594 97.968,182.844 114.691,149.595C116.17,146.654 117.61,146.845 116.112,142.351C116.784,140.991 117.456,139.631 118.128,138.271C118.676,138.29 118.812,139.342 119.36,139.361C120.229,139.39 124.777,129.384 125.186,128.485C125.962,128.882 126.738,129.278 127.513,129.675C128.57,130.358 129.627,131.04 130.683,131.723C132.069,129.784 131.463,129.754 131.207,127.402C133.943,127.643 134.05,127.484 134.182,127.286C135.441,125.404 136.444,127.772 138.088,126.35C141.42,121.455 145.686,108.098 147.33,105.396C160.963,82.981 157.521,81.577 158.83,79.748C165.406,70.562 166.73,71.594 166.94,70.641C168.05,65.617 170.109,67.336 173.707,63.603C175.189,63.155 175.039,63.189 176.353,62.276C179.075,58.891 179.767,59.042 179.167,57.62C176.996,52.483 181.872,55.247 194.602,48.766C195.752,48.181 198.449,50.009 199.531,49.789C200.2,49.652 204.426,48.791 207.693,52.291C210.407,55.197 220.344,52.859 217.491,55.489C216.667,56.248 214.22,56.159 216.967,60.493ZM195.474,174.092L196.53,174.1C199.778,177.213 200.209,176.866 204.464,174.928L205.414,174.893C205.267,177.451 206.496,177.296 208.437,175.822L209.359,175.932C209.267,182.856 218.065,176.852 221.753,188.275C230.165,191.939 229.916,202.954 232.868,206.092C233.917,207.207 233.109,207.354 233.315,208.429C232.012,213.264 233.02,220.989 230.84,225.643C230.737,225.863 230.224,226.958 232.087,228.413L232.003,229.355C226.284,229.299 229.61,234.305 224.491,236.487C221.159,236.933 222.681,238.155 222.69,239.597L222.69,240.493C225.524,246.026 221.173,245.68 219.816,252.506C217.87,255.962 215.814,255.867 217.895,259.655C215.896,262.973 216.302,263.033 213.74,265.702C213.697,265.988 213.654,266.275 213.612,266.562L211.769,269.659C208.097,268.24 207.169,275.19 195.587,288.831C194.659,287.498 185.396,274.193 183.43,272.562C179.113,268.981 182.29,264.09 175.126,262.754L173.383,259.548C174.859,251.593 169.433,252.746 167.504,240.035C164.686,238.709 164.688,238.582 164.127,235.625C164.097,235.47 164.127,235.625 162.157,235.681L160.681,231.452C165.526,225.717 158.675,224.967 159.47,212.495C159.662,209.476 159.761,209.601 159.572,206.578C166.561,205.96 162.809,203.086 162.5,202.868C162.33,202.749 162.817,204.438 159.97,203.435C160.105,202.986 159.907,203.169 160.106,202.508C160.181,202.262 160.179,202.281 161.08,199.447C161.182,199.001 162.171,194.67 163.417,194.222C164.001,194.013 161.876,192.486 168.173,188.092C168.217,188.061 172.184,183.439 172.594,180.593C176.002,178.426 175.872,178.564 179.541,176.66C180.977,177.843 181.678,177.715 181.604,175.855C182.62,175.713 184.005,174.372 187.445,175.707C191.814,176.255 192.263,177.217 195.474,174.092ZM170.127,48.03C176.388,48.965 193.091,31.137 220.542,49.409C224.127,52.351 224.134,52.281 224.415,52.566C225.455,55.076 225.162,56.35 227.849,55.225C230.2,58.388 230.094,58.343 230.302,58.605C229.976,60.303 229.948,61.23 231.611,60.402C234.826,65.935 235.16,65.545 237.825,71.441C237.728,76.363 237.832,76.225 240.195,80.652C256.577,111.338 257.129,111.689 259.697,113.324C260.063,113.675 260.43,114.026 260.796,114.378C260.791,115.376 260.734,127.62 266.775,125.331L268.409,128.537C265.563,135.224 271.101,135.285 271.703,135.292C272.296,136.364 272.89,137.436 273.484,138.509C272.675,147.492 280.636,151.82 277.889,156.634C277.021,158.155 277.874,158.347 279.424,157.889C283.137,156.794 281.947,159.347 287.605,171.463C285.107,174.806 284.62,174.123 284.413,174.401C283.629,175.46 284.86,176.727 288.71,174.141C292.519,178.438 290.669,180.324 295.963,182.266L297.249,184.613C294.893,186.067 298.509,195.516 302.698,195.377L304.375,198.556C303.243,199.932 302.853,199.802 303.233,201.579C302.966,201.919 303.395,202.318 296.928,205.542C300.506,199.461 295.082,201.047 294.116,199.537C293.801,199.045 296.19,197.647 292.527,194.482C290.579,192.799 290.826,191.768 290.586,191.385C293.315,191.742 293.095,191.751 293.315,191.742C293.687,191.727 298.652,183.369 289.455,188.542C287.157,185.06 284.915,187.455 283.348,183.581C280.015,175.34 281.884,172.996 278.524,173.344C276.878,173.514 272.046,158.738 272.004,158.551C270.678,152.586 267.935,149.269 267.374,148.592C265.868,146.772 268.739,143.816 264.557,143.002C258.073,141.741 265.264,134.029 259.51,133.891C258.975,133.878 258.973,133.676 255.788,128.327C254.713,126.522 255.801,124.501 254.655,123.36C244.825,113.571 250.333,109.885 244.649,105.309C243.427,104.325 246.637,102.244 234.421,88.578C233.272,87.293 233.452,87.29 233.832,85.638C235.77,82.017 234.531,81.417 230.378,80.518C228.466,77.31 226.99,78.387 226.055,74.72C225.659,73.167 219.155,71.957 219.476,70.502C220.042,67.932 214.013,65.792 216.967,60.493C214.22,56.159 216.667,56.248 217.491,55.489C220.344,52.859 210.407,55.197 207.693,52.291C204.426,48.791 200.2,49.652 199.531,49.789C198.449,50.009 195.752,48.181 194.602,48.766C181.872,55.247 176.996,52.483 179.167,57.62C179.767,59.042 179.075,58.891 176.353,62.276C174.416,60.841 173.478,61.25 173.707,63.603C170.109,67.336 168.05,65.617 166.94,70.641C166.73,71.594 165.406,70.562 158.83,79.748C157.521,81.577 160.963,82.981 147.33,105.396C145.686,108.098 141.42,121.455 138.088,126.35C133.868,123.836 131.797,122.506 131.207,127.402C131.463,129.754 132.069,129.784 130.683,131.723C129.627,131.04 128.57,130.358 127.513,129.675C128.419,128.802 128.292,128.851 129.207,128.041C130.499,126.899 129.012,127.247 127.487,126.58C125.184,125.572 133.916,110.858 134.669,109.588C148.48,86.313 147.846,85.969 149.247,84.082C156.987,91.876 151.346,80.523 151.192,80.213C152.846,75.786 154.263,74.077 154.773,70.64C156.434,69.344 156.37,69.472 157.062,67.515C158.648,65.038 159.427,65.035 158.238,62.374C161.765,58.55 160.477,57.605 164.556,54.553C166.141,52.964 168.24,50.882 168.561,50.563C169.948,48.134 170.04,48.252 170.127,48.03ZM211.492,138.945C212.277,138.943 213.007,137.426 216.464,141.603C219.464,145.34 220.543,143.954 223.558,140.118C227.369,141.896 233.493,137.384 231.419,143.482C230.929,144.921 234.109,148.578 234.437,148.956C237.341,151.757 237.319,151.688 237.758,152.229C238.6,155.501 239.8,155.222 242.558,153.143C246.001,153.157 246.23,153.332 246.481,153.524C264.029,166.926 263.358,187.236 268.519,188.433C275.448,190.04 271.73,200.732 270.628,205.617C268.679,205.654 267.967,203.887 267.795,205.67C267.767,205.96 267.748,206.162 270.105,208.477C264.937,211.401 271.462,211.886 271.352,213.493C269.033,247.386 260.56,255.402 260.001,259.456C259.832,260.685 259.111,260.175 253.723,273.629C251.978,277.988 249.277,276.83 249.419,281.487C249.576,286.623 245.792,282.735 245.569,282.507C243.87,279.621 243.787,279.967 241.428,277.464C245.099,271.881 242.7,271.714 242.59,271.537L244.411,268.44C253.53,267.256 249.936,254.678 257.855,247.988C257.709,240.908 263.705,225.887 263.073,224.5C262.664,223.604 261.458,223.243 261.049,222.347C262.4,220.613 263.315,221.024 262.992,218.463C262.948,218.119 266.197,211.518 261.707,216.48L261.765,209.543C264,208.468 265.446,203.825 261.031,201.641L260.971,200.485C265.941,192.733 254.321,180.102 253.441,174.558C247.004,164.895 244.563,167.241 240.39,160.616C239.744,159.589 239.519,159.616 239.408,159.63C238.298,159.765 239.241,160.756 238.258,160.876C235.654,159.111 233.05,157.346 230.446,155.581C230.413,153.347 229.772,153.631 227.464,153.806C220.032,150.905 220.03,150.988 219.388,150.732C219.346,147.075 210.531,146.256 207.454,145.196C207.186,144.462 206.009,144.329 205.742,143.595C204.916,141.327 211.413,142.744 211.937,141.962C213.715,139.31 211.587,139.587 211.492,138.945ZM240.611,288.546C241.209,289.512 241.808,290.479 242.407,291.446C241.85,292.022 238.932,295.652 238.928,295.735C238.559,304.214 233.33,302.255 231.995,310.538C231.059,316.342 225.462,312.599 225.735,316.474C225.981,319.965 230.825,311.013 239.042,319.773C238.781,319.954 225.039,329.516 237.483,323.428C241.708,321.361 239.554,328.732 244.259,327.797C244.942,328.292 251.466,333.012 251.446,335.51C251.396,341.59 256.299,336.536 259.686,338.246C271.477,344.201 271.613,345.375 271.747,346.538C267.393,347.948 266.619,350.173 270.648,352.102C270.974,352.258 271.544,352.531 274.45,349.661C277.243,350.675 277.212,350.722 277.466,350.756C280.127,351.117 279.969,345.055 285.282,347.679C285.335,350.996 285.266,351.65 288.474,352.034C291.167,352.355 289.888,350.876 289.346,348.316C296.669,349.327 299.652,344.265 304.49,346.937C314.077,345.357 314.314,336.927 320.685,343.297C323.28,345.893 319.855,339.403 323.538,338.696C324.17,338.575 323.916,339.021 327.62,345.617C325.733,347.668 325.048,347.237 324.838,349.884C323.687,350.681 322.536,351.478 321.385,352.275C320.718,351.182 320.871,350.841 319.482,351.1C313.893,352.141 313.674,355.145 313.631,355.741L312.422,356.191C309.321,352.069 308.556,354.828 303.469,356.431C294.409,359.285 285.793,354.417 280.511,358.131C279.799,358.008 279.087,357.885 278.376,357.762C275.93,353.375 274.754,354.477 272.548,356.238C269.488,355.058 266.427,353.878 263.367,352.698C263.309,350.96 263.213,350.973 261.678,350.164C245.264,341.515 243.975,335.279 238.365,336.707C238.026,336.4 235.729,334.317 234.556,332.441C232.353,330.35 229.491,323.222 225.919,326.052L225.035,324.723C224.537,323.271 223.583,316.628 219.031,318.969L216.356,315.6C216.618,313.3 216.843,313.422 216.062,311.349C217.065,309.918 218.068,308.487 219.071,307.056C220.609,307.672 220.856,308.214 221.182,307.33C221.306,306.992 220.652,306.043 222.425,305.436C223.711,304.994 229.53,297 230.094,296.225C231.305,295.738 231.215,295.677 231.435,294.456C231.887,293.591 232.34,292.726 232.792,291.861C233.384,292.193 237.129,294.294 240.611,288.546ZM317.828,243.367C321.866,248.783 323.159,245.695 325.88,246.263C332.351,254.371 342.932,289.5 348.005,289.652L348.074,290.579C346.787,291.643 345.817,292.446 348.005,311.459C347.017,314.496 346.095,314.718 348.204,317.445C347.066,321.087 347.362,320.94 345.785,324.675C340.381,324.721 343.934,327.556 343.978,328.667L342.388,331.424C342.214,331.459 342.287,331.551 340.395,332.42C339.014,334.779 338.887,334.494 336.518,335.551C331.687,332.986 331.368,337.142 333.755,338.556C329.699,343.92 329.734,343.903 329.355,344.333C324.433,339.313 327.869,334.606 330.03,329.181C332.55,329.817 332.967,330.723 333.211,329.359C333.262,329.072 333.314,328.786 331.177,326.346C333.714,323.51 332.788,323.237 331.918,322.025C330.278,319.739 336.992,316.381 337.068,309.555C340.999,307.449 338.192,306.566 337.814,305.425C337.093,303.503 337.088,303.667 337.093,303.503C337.51,290.616 334.392,290.229 332.022,276.788C330.45,267.873 324.275,270.441 319.668,249.433C319.117,248.911 318.566,248.389 318.015,247.867C315.496,246.28 315.681,245.56 317.828,243.367ZM197.351,136.219L198.462,136.535C199.773,139.074 202.368,137.323 211.492,138.945C211.587,139.587 213.715,139.31 211.937,141.962C211.413,142.744 204.916,141.327 205.742,143.595C206.009,144.329 207.186,144.462 207.454,145.196C202.293,145.363 203.176,140.973 198.256,142.257C198.019,142.981 198.192,145.565 191.547,144.412C184.26,143.148 182.997,148.993 180.17,144.725C178.63,142.401 179.142,146.227 176.37,147.053C169.557,149.081 169.605,151.035 169.621,151.69L168.408,152.231C165.599,150.706 165.458,151.223 162.664,152.827C162.525,152.907 162.664,152.827 162.715,154.831L160.712,155.963C160.258,155.691 155.032,152.563 154.5,158.206L155.483,159.477C144.214,168.063 140.134,173.04 132.726,191.569C131.73,193.542 131.702,193.415 131.767,195.573C131.015,199.574 130.966,199.44 130.254,203.5C129.753,202.828 129.253,202.157 128.752,201.485C128.864,195.175 130.237,191.428 130.541,190.6C128.56,188.739 128.188,189.182 127.378,186.375C130.347,184.524 123.525,185.905 123.986,182.536C124.12,181.558 125.133,182.01 129.35,171.423C132.448,163.646 141.285,159.341 142.606,158.698C142.83,158.588 151.705,152.068 152.494,151.489C156.259,152.972 160.473,150.111 158.614,146.512C161.887,140.883 164.218,144.384 169.569,140.667C172.669,138.514 179.601,138.845 180.485,138.887C185.95,139.148 185.76,137.872 191.372,138.15C197.994,138.139 197.128,136.396 197.351,136.219ZM303.233,201.579C312.476,218.102 312.948,218.698 311.64,219.604C308.792,221.575 313.181,221.617 317.159,227.874C319.134,230.98 319.683,237.319 323.779,237.283L324.472,238.511C323.429,240.795 325.623,245.688 325.88,246.263C323.159,245.695 321.866,248.783 317.828,243.367C317.086,240.965 315.043,242.262 301.658,216.416C297.714,208.8 297.151,206.464 296.928,205.542C303.395,202.318 302.966,201.919 303.233,201.579ZM154.305,69.386L154.773,70.64C154.263,74.077 152.846,75.786 151.192,80.213C149.817,82.077 150.053,82 149.247,84.082C147.846,85.969 148.48,86.313 134.669,109.588C133.916,110.858 125.184,125.572 127.487,126.58C129.012,127.247 130.499,126.899 129.207,128.041C128.292,128.851 128.419,128.802 127.513,129.675C126.738,129.278 125.962,128.882 125.186,128.485L124.389,126.464C125.383,124.241 134.19,104.55 138.495,99.498C138.842,98.838 139.189,98.178 139.536,97.519C139.848,96.841 140.16,96.163 140.472,95.485C140.933,94.826 150.225,76.54 154.305,69.386ZM170.127,48.03C199.972,26.231 223.471,48.218 224.415,52.566C224.134,52.281 224.127,52.351 220.542,49.409C193.091,31.137 176.388,48.965 170.127,48.03ZM172.594,180.593C172.184,183.439 168.217,188.061 168.173,188.092C161.876,192.486 164.001,194.013 163.417,194.222C162.171,194.67 161.182,199.001 161.08,199.447C160.179,202.281 160.181,202.262 160.106,202.508C159.907,203.169 160.105,202.986 159.97,203.435C158.113,205.73 158.153,205.498 158.113,205.73C158.017,206.284 159.668,206.024 159.572,206.578C159.761,209.601 159.662,209.476 159.47,212.495C158.675,224.967 165.526,225.717 160.681,231.452C157.963,222.018 157.904,222.159 156.617,212.495C157.626,208.999 157.065,207.237 157.755,202.538L157.848,201.58C158.13,200.576 158.413,199.572 158.695,198.569C159.573,189.962 171.118,181.655 172.594,180.593ZM77.293,218.419C78.184,228.943 73.414,227.493 70.125,237.39C69.423,239.502 67.835,243.02 67.618,243.501C65.768,244.982 65.799,244.932 65.396,247.409C64.954,248.092 64.511,248.774 64.069,249.457C63.788,250.045 63.507,250.633 63.226,251.221C56.372,266.33 54.648,266.304 53.201,266.282C53.625,265.419 58.136,256.246 58.464,255.483C58.76,254.797 59.055,254.112 59.351,253.426C62.547,248.756 61.66,248.54 64.461,243.477C65.265,242.53 65.18,242.655 65.362,241.428C65.72,240.774 66.077,240.121 66.435,239.467C66.746,238.788 67.058,238.109 67.369,237.43C71.781,230.326 71.087,230.077 71.532,229.516C71.843,228.838 72.154,228.16 72.465,227.482C72.778,226.97 76.909,219.145 77.293,218.419ZM324.472,238.511C337.163,263.025 336.616,263.259 337.735,265.379C338.02,266.072 338.305,266.765 338.59,267.458C338.795,268.669 338.704,268.519 339.52,269.49C340.038,270.221 340.555,270.952 341.072,271.683C342.373,278.57 344.831,278.494 348.005,289.652C342.932,289.5 332.351,254.371 325.88,246.263C325.623,245.688 323.429,240.795 324.472,238.511ZM261.049,222.347C261.458,223.243 262.664,223.604 263.073,224.5C263.705,225.887 257.709,240.908 257.855,247.988C249.936,254.678 253.53,267.256 244.411,268.44C244.603,267.871 244.624,267.931 246.572,264.536C246.911,263.872 247.25,263.209 247.589,262.545C247.616,262.399 247.887,260.898 247.99,260.734C252.603,253.363 253.224,248.815 254.633,246.551C254.956,245.546 255.28,244.541 255.603,243.536L256.03,243.298L256.601,240.533C256.752,240.213 256.544,240.178 258.016,236.35L258.672,233.546C258.787,233.215 259.11,231.577 259.144,231.404C259.189,231.175 259.613,229.025 259.718,228.538C260.405,225.351 260.368,225.512 261.049,222.347ZM273.484,138.509C274.183,139.548 274.12,139.565 290.406,171.548C290.75,172.21 291.093,172.871 291.437,173.532C291.745,174.382 295.591,181.572 295.963,182.266C290.669,180.324 292.519,178.438 288.71,174.141C288.297,172.569 288.318,172.796 287.605,171.463C281.947,159.347 283.137,156.794 279.424,157.889C277.874,158.347 277.021,158.155 277.889,156.634C280.636,151.82 272.675,147.492 273.484,138.509ZM237.825,71.441C241.822,78.454 241.362,78.533 245.503,85.498C245.832,86.167 246.161,86.837 246.49,87.506C251.182,93.141 257.276,106.963 258.056,108.732C259.055,110.997 259.13,110.746 259.697,113.324C257.129,111.689 256.577,111.338 240.195,80.652C237.832,76.225 237.728,76.363 237.825,71.441ZM116.112,142.351C117.61,146.845 116.17,146.654 114.691,149.595C97.968,182.844 97.455,183.594 94.029,185.125C95.97,180.545 95.919,180.645 98.528,176.518C98.807,175.822 99.086,175.125 99.365,174.428C99.599,174.053 114.698,144.514 116.112,142.351ZM241.428,277.464C243.787,279.967 243.87,279.621 245.569,282.507C245.816,287.374 243.457,286.146 243.536,286.495C244.134,289.15 244.18,289.26 242.407,291.446C241.808,290.479 241.209,289.512 240.611,288.546C237.129,294.294 233.384,292.193 232.792,291.861C234.404,289.292 234.394,289.552 235.814,286.692C236.517,285.239 236.029,285.312 235.805,283.655L237.184,281.255C240.425,282.5 239.964,280.78 241.428,277.464ZM304.375,198.556C304.473,198.69 323.143,235.924 323.779,237.283C319.683,237.319 319.134,230.98 317.159,227.874C313.181,221.617 308.792,221.575 311.64,219.604C312.948,218.698 312.476,218.102 303.233,201.579C302.853,199.802 303.243,199.932 304.375,198.556ZM43.798,289.56C48.39,294.176 44.048,295.073 44.179,305.545C44.272,306.192 44.364,306.839 44.456,307.486C44.745,314.237 45.933,316.992 46.263,317.758C46.461,318.674 46.658,319.591 46.856,320.508C49.236,327.506 48.536,328.957 48.215,329.621C45.936,325.653 46.602,325.527 44.482,321.506C44.328,320.558 44.175,319.609 44.021,318.661C43.565,316.933 43.11,315.205 42.654,313.476L42.161,310.537C41.993,309.835 41.603,308.194 41.823,301.514C41.954,300.39 42.232,300.65 42.367,299.487C42.413,299.092 42.394,299.12 42.732,294.538C43.088,292.878 43.443,291.219 43.798,289.56ZM238.258,160.876C239.241,160.756 238.298,159.765 239.408,159.63C239.519,159.616 239.744,159.589 240.39,160.616C244.563,167.241 247.004,164.895 253.441,174.558C254.321,180.102 265.941,192.733 260.971,200.485C257.065,187.433 256.898,187.575 256.729,186.411C256.287,185.455 255.846,184.499 255.404,183.543C250.434,173.538 247.447,168.493 238.258,160.876ZM209.359,175.932C215.317,178.267 215.534,177.64 223.48,184.519C224.117,185.209 224.755,185.899 225.392,186.589C228.369,190.432 228.369,190.264 230.724,194.385C230.99,195.087 231.256,195.789 231.523,196.49C232.208,197.514 231.8,197.53 232.419,198.529C232.712,199.536 233.005,200.542 233.298,201.549C233.775,205.017 234.436,204.953 233.315,208.429C233.109,207.354 233.917,207.207 232.868,206.092C229.916,202.954 230.165,191.939 221.753,188.275C218.065,176.852 209.267,182.856 209.359,175.932ZM198.256,142.257C199.796,144.219 199.831,144.433 198.495,146.623L196.506,147.195L192.484,147.241C189.38,146.55 189.463,146.589 186.495,147.452C184.428,148.12 184.599,148.093 184.428,148.12C182.42,148.441 182.604,148 180.468,148.341C179.144,148.723 177.82,149.105 176.496,149.487C175.384,150.09 170.178,151.536 169.621,151.69C169.605,151.035 169.557,149.081 176.37,147.053C179.142,146.227 178.63,142.401 180.17,144.725C182.997,148.993 184.26,143.148 191.547,144.412C198.192,145.565 198.019,142.981 198.256,142.257ZM155.412,282.543C157.106,284.873 172.86,306.54 175.738,312.255C167.356,307.046 158.539,290.29 154.56,285.443C153.587,284.257 154.321,284.296 155.412,282.543ZM175.126,262.754C182.29,264.09 179.113,268.981 183.43,272.562C185.396,274.193 194.659,287.498 195.587,288.831C196.546,289.045 197.505,289.259 198.464,289.472C197.267,290.491 197.652,290.535 196.513,291.521C195.897,291.204 196.011,291.635 195.527,291.386C195.427,291.335 195.527,291.386 194.36,290.625C186.52,281.73 176.521,265.077 175.126,262.754ZM312.422,356.191C302.61,359.602 295.516,360.768 280.511,358.131C285.793,354.417 294.409,359.285 303.469,356.431C308.556,354.828 309.321,352.069 312.422,356.191ZM146.642,341.9C143.176,344.618 137.35,348.038 136.515,348.528C135.835,348.836 135.155,349.145 134.476,349.453C133.809,349.785 133.142,350.117 132.476,350.45C130.528,351.971 120.457,355.641 119.387,356.031C119.96,355.124 121.742,352.3 130.556,348.611C142.317,343.69 141.659,339.666 146.642,341.9ZM232.003,229.355C231.741,230.092 229.268,237.037 228.301,238.409C227.548,239.348 227.621,239.207 227.339,240.424C227.044,240.775 226.749,241.126 226.455,241.477C226.148,242.49 225.842,243.502 225.536,244.515C223.016,249.756 223.069,249.515 220.661,254.555C220.379,253.872 220.098,253.189 219.816,252.506C221.173,245.68 225.524,246.026 222.69,240.493L222.69,239.597C224.611,238.721 224.542,238.55 224.491,236.487C229.61,234.305 226.284,229.299 232.003,229.355ZM128.752,201.485C129.253,202.157 129.753,202.828 130.254,203.5C130.113,205.588 129.247,218.398 132.122,229.587C131.939,229.597 129.971,229.709 129.846,229.344C125.571,216.82 128.299,203.669 128.752,201.485ZM238.365,336.707C243.975,335.279 245.264,341.515 261.678,350.164C263.213,350.973 263.309,350.96 263.367,352.698C261.203,351.721 247.108,345.352 238.365,336.707ZM235.421,284.463L235.814,286.692C234.394,289.552 234.404,289.292 232.792,291.861C232.34,292.726 231.887,293.591 231.435,294.456C230.439,295.184 230.477,295.015 230.094,296.225C229.53,297 223.711,304.994 222.425,305.436C220.652,306.043 221.306,306.992 221.182,307.33C220.856,308.214 220.609,307.672 219.071,307.056C220.048,305.637 225.905,298.264 226.507,297.506C226.871,296.861 227.234,296.217 227.598,295.572C231.322,289.825 231.541,290.259 235.421,284.463ZM162.157,235.681C164.127,235.625 164.097,235.47 164.127,235.625C164.688,238.582 164.686,238.709 167.504,240.035C169.433,252.746 174.859,251.593 173.383,259.548C171.28,255.974 171.312,256.102 169.466,252.517C169.234,251.208 169.301,251.37 168.598,250.452C166.372,247.509 162.59,236.895 162.157,235.681ZM211.769,269.659C210.757,271.278 204.787,280.839 198.464,289.472C197.505,289.259 196.546,289.045 195.587,288.831C207.169,275.19 208.097,268.24 211.769,269.659ZM139.081,260.464C141.612,261.91 141.195,262.328 143.816,263.307L144.51,263.495C148.379,269.862 148.232,269.805 151.67,276.373C149.769,277.323 149.862,277.466 149.769,277.323C143.862,268.175 144.704,267.743 144.183,266.959C142.286,264.106 136.665,266.772 139.081,260.464ZM198.256,142.257C203.176,140.973 202.293,145.363 207.454,145.196C210.531,146.256 219.346,147.075 219.388,150.732L209.401,147.941C208.101,147.788 206.802,147.636 205.502,147.483L203.499,147.411C201.831,147.148 200.163,146.885 198.495,146.623C199.831,144.433 199.796,144.219 198.256,142.257ZM340.395,332.42L340.456,334.473C339.144,336.703 339.227,336.495 337.419,338.428C334.994,340.756 335.152,340.608 333.433,343.433C329.946,348.021 325.645,349.59 324.838,349.884C325.048,347.237 325.733,347.668 327.62,345.617L329.355,344.333C329.734,343.903 329.699,343.92 333.755,338.556C334.676,337.554 335.597,336.553 336.518,335.551C338.887,334.494 339.014,334.779 340.395,332.42ZM348.074,290.579C349.651,294.894 350.896,300.808 349.173,313.47L348.005,311.459C345.817,292.446 346.787,291.643 348.074,290.579ZM60.292,344.668C60.468,344.629 62.497,344.185 62.497,344.185C62.931,344.289 67.032,345.27 67.59,346.436C69.613,350.669 69.883,350.511 77.453,353.709L75.407,354.723C74.106,354.078 62.599,348.376 60.292,344.668ZM233.315,208.429C237.451,216.435 232.742,226.951 232.087,228.413C230.224,226.958 230.737,225.863 230.84,225.643C233.02,220.989 232.012,213.264 233.315,208.429ZM138.483,249.506C139.602,252.313 143.543,261.283 143.627,261.439L143.816,263.307C141.195,262.328 141.612,261.91 139.081,260.464C140.515,255.026 135.089,255.117 137.5,249.906L138.483,249.506ZM133.206,234.561C134.897,239.877 138.04,248.318 138.483,249.506L137.5,249.906C135.116,247.719 134.075,244.829 133.895,244.329C132.077,239.283 130.007,238.928 133.206,234.561ZM101.502,356.601C101.853,356.627 102.204,356.653 102.555,356.679C106.175,356.717 106.051,356.789 109.577,357.256L110.492,358.108C104.653,359.96 104.668,359.176 98.498,359.397C96.179,357.178 98.374,356.849 101.502,356.601ZM239.042,319.773C243.771,325.09 244.123,327.044 244.259,327.797C239.554,328.732 241.708,321.361 237.483,323.428C225.039,329.516 238.781,319.954 239.042,319.773ZM84.523,203.509C85.224,205.023 84.216,214.227 78.285,217.324C80.6,210.029 80.868,210.361 84.523,203.509ZM260.796,114.378C262.503,117.006 266.319,124.442 266.775,125.331C260.734,127.62 260.791,115.376 260.796,114.378ZM124.389,126.464L125.186,128.485C124.777,129.384 120.229,139.39 119.36,139.361C118.812,139.342 118.676,138.29 118.128,138.271C121.224,132.3 121.052,132.484 124.389,126.464ZM297.249,184.613C298.104,186.203 298.271,185.908 302.698,195.377C298.509,195.516 294.893,186.067 297.249,184.613ZM77.453,353.709C82.455,355.461 83.892,355.401 84.468,355.377L86.144,355.659C87.161,356.606 87.094,356.487 88.51,356.735L86.522,358.25C80.832,356.806 80.941,356.928 75.407,354.723L77.453,353.709ZM242.59,271.537C242.7,271.714 245.099,271.881 241.428,277.464C239.964,280.78 240.425,282.5 237.184,281.255C241.079,274.127 240.956,274.21 242.59,271.537ZM158.614,146.512C160.473,150.111 156.259,152.972 152.494,151.489C152.616,150.869 152.915,149.355 158.614,146.512ZM52.509,267.503C56.885,274.077 56.043,277.305 48.192,277.31C50.285,272.364 50.203,272.544 52.509,267.503ZM289.455,188.542C298.652,183.369 293.687,191.727 293.315,191.742C293.095,191.751 293.315,191.742 290.586,191.385C289.493,190.091 289.656,190.175 289.455,188.542ZM271.747,346.538C272.625,348.509 272.382,348.535 274.45,349.661C271.544,352.531 270.974,352.258 270.648,352.102C266.619,350.173 267.393,347.948 271.747,346.538ZM225.919,326.052C229.491,323.222 232.353,330.35 234.556,332.441C231.316,331.78 231.821,331.196 225.919,326.052ZM176.627,314.572C173.439,319.848 172.91,319.217 168.688,323.669C167.638,318.536 175.743,314.962 176.627,314.572ZM138.088,126.35C136.444,127.772 135.441,125.404 134.182,127.286C134.05,127.484 133.943,127.643 131.207,127.402C131.797,122.506 133.868,123.836 138.088,126.35ZM236.512,147.223C239.234,149.209 239.062,149.232 241.393,151.67C240.181,151.856 238.97,152.043 237.758,152.229C237.319,151.688 237.341,151.757 234.437,148.956C235.128,148.378 235.82,147.8 236.512,147.223ZM44.179,305.545C46.733,305.447 46.379,304.604 45.765,302.288C42.032,288.224 48.91,305.379 49.052,305.732C49.813,307.631 46.986,306.88 44.456,307.486C44.364,306.839 44.272,306.192 44.179,305.545ZM230.378,80.518C234.531,81.417 235.77,82.017 233.832,85.638C230.516,83.7 228.618,83.918 230.378,80.518ZM321.385,352.275C317.51,354.159 317.662,354.123 313.631,355.741C313.674,355.145 313.893,352.141 319.482,351.1C320.871,350.841 320.718,351.182 321.385,352.275ZM160.712,155.963C160.284,156.229 157.663,157.855 155.483,159.477L154.5,158.206C155.032,152.563 160.258,155.691 160.712,155.963ZM47.632,278.544C53.21,285.317 45.744,285.323 45.167,285.323C46.365,281.861 46.333,282 47.632,278.544ZM219.816,252.506C220.098,253.189 220.379,253.872 220.661,254.555C219.358,257.337 219.471,257.2 217.895,259.655C215.814,255.867 217.87,255.962 219.816,252.506ZM89.608,193.539C91.657,196.837 89.054,196.659 88.05,200.281C88.009,200.427 88.05,200.281 86.151,200.315C87.11,198.628 89.34,194.085 89.608,193.539ZM223.558,140.118C220.543,143.954 219.464,145.34 216.464,141.603C220.251,141.367 219.853,139.523 223.558,140.118ZM261.031,201.641C265.446,203.825 264,208.468 261.765,209.543C261.246,205.522 261.595,205.631 261.031,201.641ZM195.474,174.092C192.263,177.217 191.814,176.255 187.445,175.707C191.105,173.649 191.146,173.976 195.474,174.092ZM219.031,318.969C223.583,316.628 224.537,323.271 225.035,324.723C221.968,321.606 221.867,322.014 219.031,318.969ZM336.518,335.551C335.597,336.553 334.676,337.554 333.755,338.556C331.368,337.142 331.687,332.986 336.518,335.551ZM285.282,347.679C287.459,349.292 287.88,350.519 289.346,348.316C289.888,350.876 291.167,352.355 288.474,352.034C285.266,351.65 285.335,350.996 285.282,347.679ZM151.192,80.213C151.346,80.523 156.987,91.876 149.247,84.082C150.053,82 149.817,82.077 151.192,80.213ZM261.707,216.48C266.197,211.518 262.948,218.119 262.992,218.463C263.315,221.024 262.4,220.613 261.049,222.347C261.816,217.837 261.829,217.869 261.877,217.476C261.944,216.93 261.622,217.173 261.707,216.48ZM196.53,174.1C200.707,173.957 200.503,173.98 204.464,174.928C200.209,176.866 199.778,177.213 196.53,174.1ZM159.97,203.435C162.817,204.438 162.33,202.749 162.5,202.868C162.809,203.086 166.561,205.96 159.572,206.578C159.668,206.024 158.017,206.284 158.113,205.73C158.153,205.498 158.113,205.73 159.97,203.435ZM168.408,152.231L162.715,154.831C162.664,152.827 162.525,152.907 162.664,152.827C165.458,151.223 165.599,150.706 168.408,152.231ZM268.409,128.537C269.507,130.789 270.605,133.04 271.703,135.292C271.101,135.285 265.563,135.224 268.409,128.537ZM241.393,151.67L242.558,153.143C239.8,155.222 238.6,155.501 237.758,152.229C238.97,152.043 240.181,151.856 241.393,151.67ZM64.069,249.457C64.418,249.554 72.872,251.9 67.502,252.402C67.148,252.435 67.315,252.06 63.226,251.221C63.507,250.633 63.788,250.045 64.069,249.457ZM287.605,171.463C288.318,172.796 288.297,172.569 288.71,174.141C284.86,176.727 283.629,175.46 284.413,174.401C284.62,174.123 285.107,174.806 287.605,171.463ZM272.548,356.238C274.754,354.477 275.93,353.375 278.376,357.762C275.341,357.232 275.507,357.253 272.548,356.238ZM348.005,311.459L349.173,313.47C348.85,314.795 348.527,316.12 348.204,317.445C346.095,314.718 347.017,314.496 348.005,311.459ZM158.238,62.374C159.427,65.035 158.648,65.038 157.062,67.515L155.707,66.583C156.551,65.18 157.394,63.777 158.238,62.374ZM152.165,338.092L148.617,340.623C145.894,335.211 152.072,338.019 152.165,338.092ZM46.263,317.758C49.226,317.601 51.72,315.765 50.196,318.325C50.033,318.6 49.711,319.142 46.856,320.508C46.658,319.591 46.461,318.674 46.263,317.758ZM67.618,243.501C68.432,246.295 68.098,246.605 65.396,247.409C65.799,244.932 65.768,244.982 67.618,243.501ZM88.51,356.735C89.013,356.769 90.388,355.89 91.565,359.05C86.844,358.208 86.917,358.354 86.522,358.25L88.51,356.735ZM224.491,236.487C224.542,238.55 224.611,238.721 222.69,239.597C222.681,238.155 221.159,236.933 224.491,236.487ZM337.814,305.425C338.192,306.566 340.999,307.449 337.068,309.555C336.613,307.231 336.574,307.304 337.814,305.425ZM52.577,336.426C56.6,336.56 56.465,338.181 56.436,338.531C56.383,339.16 55.132,339.224 55.079,339.853C54.245,338.711 53.411,337.569 52.577,336.426ZM331.177,326.346C333.314,328.786 333.262,329.072 333.211,329.359C332.967,330.723 332.55,329.817 330.03,329.181C330.434,327.545 330.428,327.745 331.177,326.346ZM345.785,324.675C345.182,326.006 344.58,327.337 343.978,328.667C343.934,327.556 340.381,324.721 345.785,324.675ZM224.415,52.566C226.417,53.681 226.186,53.709 227.849,55.225C225.162,56.35 225.455,55.076 224.415,52.566ZM155.707,66.583L157.062,67.515C156.37,69.472 156.434,69.344 154.773,70.64L154.305,69.386C154.772,68.452 155.24,67.518 155.707,66.583ZM56.924,342.09C59.451,340.069 60.122,341.526 60.292,344.668C58.706,343.138 58.564,343.547 56.924,342.09ZM227.464,153.806C229.772,153.631 230.413,153.347 230.446,155.581C229.452,154.989 228.458,154.397 227.464,153.806ZM176.353,62.276C175.039,63.189 175.189,63.155 173.707,63.603C173.478,61.25 174.416,60.841 176.353,62.276ZM109.577,357.256C112.236,356.945 112.424,355.661 114.494,357.443C113.16,357.665 111.826,357.886 110.492,358.108L109.577,357.256ZM205.414,174.893C206.421,175.203 207.429,175.513 208.437,175.822C206.496,177.296 205.267,177.451 205.414,174.893ZM216.062,311.349C216.843,313.422 216.618,313.3 216.356,315.6C214.745,313.338 214.812,313.223 216.062,311.349ZM270.628,205.617C270.454,206.57 270.28,207.524 270.105,208.477C267.748,206.162 267.767,205.96 267.795,205.67C267.967,203.887 268.679,205.654 270.628,205.617ZM116.737,356.888C116.664,354.651 117.635,354.817 119.387,356.031L116.737,356.888ZM132.124,230.543C132.446,231.571 132.768,232.599 133.09,233.628C130.598,233.647 130.691,232.575 132.124,230.543ZM230.302,58.605L231.611,60.402C229.948,61.23 229.976,60.303 230.302,58.605ZM231.435,294.456C231.215,295.677 231.305,295.738 230.094,296.225C230.477,295.015 230.439,295.184 231.435,294.456Z" style="fill:rgb(58,62,65);fill-opacity:1;"/>
        </g>
        <g transform="matrix(1,0,0,1,2315.506356,671.951026)">
            <path d="M252.624,378.205C288.358,392.327 317.827,383.127 318.411,383.017C316.618,384.908 317.026,385.314 314.436,386.19C314.068,386.187 313.699,386.185 313.331,386.182C300.042,391.506 256.714,387.429 252.624,378.205Z" style="fill:rgb(77,79,79);fill-opacity:0.05;"/>
        </g>
        <g transform="matrix(1,0,0,1,2315.506356,671.951026)">
            <path d="M124.543,382.74L125.467,383.787C123.093,385.313 116.562,389.508 90.498,388.407C89.421,388.361 76.3,387.806 77.294,385.721C78.239,383.737 79.185,384.605 79.522,384.406C87.548,385.211 96.342,387.479 116.518,384.607C117.12,384.522 117.064,384.511 121.488,383.447C122.506,383.211 123.525,382.976 124.543,382.74Z" style="fill:rgb(68,69,70);fill-opacity:0.04;"/>
        </g>
        <g transform="matrix(1,0,0,1,2315.506356,671.951026)">
            <path d="M198.256,142.257C199.796,144.219 199.831,144.433 198.495,146.623L196.506,147.195L192.484,147.241C189.38,146.55 189.463,146.589 186.495,147.452C184.428,148.12 184.599,148.093 184.428,148.12C182.42,148.441 182.604,148 180.468,148.341C179.144,148.723 177.82,149.105 176.496,149.487C175.384,150.09 170.178,151.536 169.621,151.69C169.605,151.035 169.557,149.081 176.37,147.053C179.142,146.227 178.63,142.401 180.17,144.725C182.997,148.993 184.26,143.148 191.547,144.412C198.192,145.565 198.019,142.981 198.256,142.257Z" style="fill:rgb(50,51,51);fill-opacity:0.04;"/>
        </g>
        <g transform="matrix(1,0,0,1,2315.506356,671.951026)">
            <path d="M377.681,292.538C381.494,299.273 379.653,322.835 374.857,322.594C378.307,311.241 377.024,295.816 376.83,293.49L377.681,292.538Z" style="fill:rgb(71,73,73);fill-opacity:0.06;"/>
        </g>
        <g transform="matrix(1,0,0,1,2315.506356,671.951026)">
            <path d="M128.752,201.485C129.253,202.157 129.753,202.828 130.254,203.5C130.113,205.588 129.247,218.398 132.122,229.587C131.939,229.597 129.971,229.709 129.846,229.344C125.571,216.82 128.299,203.669 128.752,201.485Z" style="fill:rgb(109,114,114);fill-opacity:0.06;"/>
        </g>
        <g transform="matrix(1,0,0,1,2315.506356,671.951026)">
            <path d="M348.074,290.579C349.651,294.894 350.896,300.808 349.173,313.47L348.005,311.459C345.817,292.446 346.787,291.643 348.074,290.579Z" style="fill:rgb(48,49,49);fill-opacity:0.05;"/>
        </g>
        <g transform="matrix(1,0,0,1,2315.506356,671.951026)">
            <path d="M233.315,208.429C237.451,216.435 232.742,226.951 232.087,228.413C230.224,226.958 230.737,225.863 230.84,225.643C233.02,220.989 232.012,213.264 233.315,208.429Z" style="fill:rgb(81,84,84);fill-opacity:0.04;"/>
        </g>
        <g transform="matrix(1,0,0,1,2315.506356,671.951026)">
            <path d="M101.502,356.601C101.853,356.627 102.204,356.653 102.555,356.679C106.175,356.717 106.051,356.789 109.577,357.256L110.492,358.108C104.653,359.96 104.668,359.176 98.498,359.397C96.179,357.178 98.374,356.849 101.502,356.601Z" style="fill:rgb(128,132,131);fill-opacity:0.04;"/>
        </g>
        <g transform="matrix(1,0,0,1,2315.506356,671.951026)">
            <path d="M84.523,203.509C85.224,205.023 84.216,214.227 78.285,217.324C80.6,210.029 80.868,210.361 84.523,203.509Z" style="fill:rgb(56,58,58);fill-opacity:0.07;"/>
        </g>
        <g transform="matrix(1,0,0,1,2315.506356,671.951026)">
            <path d="M124.389,126.464L125.186,128.485C124.777,129.384 120.229,139.39 119.36,139.361C118.812,139.342 118.676,138.29 118.128,138.271C121.224,132.3 121.052,132.484 124.389,126.464Z" style="fill:rgb(53,56,56);fill-opacity:0.06;"/>
        </g>
        <g transform="matrix(1,0,0,1,2315.506356,671.951026)">
            <path d="M77.453,353.709C82.455,355.461 83.892,355.401 84.468,355.377L86.144,355.659C87.161,356.606 87.094,356.487 88.51,356.735L86.522,358.25C80.832,356.806 80.941,356.928 75.407,354.723L77.453,353.709Z" style="fill:rgb(100,102,102);fill-opacity:0.06;"/>
        </g>
        <g transform="matrix(1,0,0,1,2315.506356,671.951026)">
            <path d="M62.523,183.521C62.55,184.195 62.576,184.869 62.603,185.542C61.005,189.452 60.947,189.219 58.284,194.402L57.5,194.229C55.956,190.562 61.878,184.213 62.523,183.521Z" style="fill:rgb(101,104,103);fill-opacity:0.05;"/>
        </g>
        <g transform="matrix(1,0,0,1,2315.506356,671.951026)">
            <path d="M242.59,271.537C242.7,271.714 245.099,271.881 241.428,277.464C239.964,280.78 240.425,282.5 237.184,281.255C241.079,274.127 240.956,274.21 242.59,271.537Z" style="fill:rgb(71,73,73);fill-opacity:0.05;"/>
        </g>
        <g transform="matrix(1,0,0,1,2315.506356,671.951026)">
            <path d="M52.509,267.503C56.885,274.077 56.043,277.305 48.192,277.31C50.285,272.364 50.203,272.544 52.509,267.503Z" style="fill:rgb(57,60,60);fill-opacity:0.05;"/>
        </g>
        <g transform="matrix(1,0,0,1,2315.506356,671.951026)">
            <path d="M158.539,366.561C158.813,367.489 159.087,368.418 159.361,369.346C154.789,371.229 154.936,374.245 150.571,371.653C158.234,366.787 158.234,366.808 158.539,366.561Z" style="fill:rgb(58,59,60);fill-opacity:0.06;"/>
        </g>
        <g transform="matrix(1,0,0,1,2315.506356,671.951026)">
            <path d="M225.919,326.052C229.491,323.222 232.353,330.35 234.556,332.441C231.316,331.78 231.821,331.196 225.919,326.052Z" style="fill:rgb(107,109,110);fill-opacity:0.1;"/>
        </g>
        <g transform="matrix(1,0,0,1,2315.506356,671.951026)">
            <path d="M176.627,314.572C173.439,319.848 172.91,319.217 168.688,323.669C167.638,318.536 175.743,314.962 176.627,314.572Z" style="fill:rgb(68,70,70);fill-opacity:0.11;"/>
        </g>
        <g transform="matrix(1,0,0,1,2315.506356,671.951026)">
            <path d="M105.804,98.546L106.619,100.57C104.956,104.251 104.935,104.077 102.993,107.707C101.112,102.822 103.214,103.102 105.804,98.546Z" style="fill:rgb(70,73,72);fill-opacity:0.07;"/>
        </g>
        <g transform="matrix(1,0,0,1,2315.506356,671.951026)">
            <path d="M353.453,232.544C354.002,233.111 358.225,237.473 357.928,241.34L357.405,242.552C353.806,235.368 353.35,235.069 353.453,232.544Z" style="fill:rgb(83,86,86);fill-opacity:0.06;"/>
        </g>
        <g transform="matrix(1,0,0,1,2315.506356,671.951026)">
            <path d="M321.385,352.275C317.51,354.159 317.662,354.123 313.631,355.741C313.674,355.145 313.893,352.141 319.482,351.1C320.871,350.841 320.718,351.182 321.385,352.275Z" style="fill:rgb(112,117,116);fill-opacity:0.09;"/>
        </g>
        <g transform="matrix(1,0,0,1,2315.506356,671.951026)">
            <path d="M325.025,178.782C330.209,178.955 330.446,184.215 328.433,185.534C328.111,185.022 328.267,185.052 325.025,178.782Z" style="fill:rgb(86,89,89);fill-opacity:0.06;"/>
        </g>
        <g transform="matrix(1,0,0,1,2315.506356,671.951026)">
            <path d="M160.712,155.963C160.284,156.229 157.663,157.855 155.483,159.477L154.5,158.206C155.032,152.563 160.258,155.691 160.712,155.963Z" style="fill:rgb(103,106,107);fill-opacity:0.07;"/>
        </g>
        <g transform="matrix(1,0,0,1,2315.506356,671.951026)">
            <path d="M259.022,52.846C259.636,52.792 259.784,51.664 260.398,51.61C261.339,51.528 263.934,57.961 264.17,58.547L263.402,60.54C261.235,56.561 261.174,56.806 259.022,52.846Z" style="fill:rgb(57,59,59);fill-opacity:0.07;"/>
        </g>
        <g transform="matrix(1,0,0,1,2315.506356,671.951026)">
            <path d="M47.632,278.544C53.21,285.317 45.744,285.323 45.167,285.323C46.365,281.861 46.333,282 47.632,278.544Z" style="fill:rgb(70,73,73);fill-opacity:0.06;"/>
        </g>
        <g transform="matrix(1,0,0,1,2315.506356,671.951026)">
            <path d="M219.816,252.506C220.098,253.189 220.379,253.872 220.661,254.555C219.358,257.337 219.471,257.2 217.895,259.655C215.814,255.867 217.87,255.962 219.816,252.506Z" style="fill:rgb(113,115,115);fill-opacity:0.05;"/>
        </g>
        <g transform="matrix(1,0,0,1,2315.506356,671.951026)">
            <path d="M89.608,193.539C91.657,196.837 89.054,196.659 88.05,200.281C88.009,200.427 88.05,200.281 86.151,200.315C87.11,198.628 89.34,194.085 89.608,193.539Z" style="fill:rgb(74,76,77);fill-opacity:0.08;"/>
        </g>
        <g transform="matrix(1,0,0,1,2315.506356,671.951026)">
            <path d="M261.031,201.641C265.446,203.825 264,208.468 261.765,209.543C261.246,205.522 261.595,205.631 261.031,201.641Z" style="fill:rgb(54,57,57);fill-opacity:0.1;"/>
        </g>
        <g transform="matrix(1,0,0,1,2315.506356,671.951026)">
            <path d="M195.474,174.092C192.263,177.217 191.814,176.255 187.445,175.707C191.105,173.649 191.146,173.976 195.474,174.092Z" style="fill:rgb(81,83,84);fill-opacity:0.14;"/>
        </g>
        <g transform="matrix(1,0,0,1,2315.506356,671.951026)">
            <path d="M219.031,318.969C223.583,316.628 224.537,323.271 225.035,324.723C221.968,321.606 221.867,322.014 219.031,318.969Z" style="fill:rgb(120,122,123);fill-opacity:0.09;"/>
        </g>
        <g transform="matrix(1,0,0,1,2315.506356,671.951026)">
            <path d="M148.162,373.015C148.211,373.635 149.353,373.788 149.402,374.408C149.691,378.058 143.002,376.453 142.44,376.318C147.536,373.357 147.462,373.385 148.162,373.015Z" style="fill:rgb(57,59,60);fill-opacity:0.07;"/>
        </g>
        <g transform="matrix(1,0,0,1,2315.506356,671.951026)">
            <path d="M261.707,216.48C266.197,211.518 262.948,218.119 262.992,218.463C263.315,221.024 262.4,220.613 261.049,222.347C261.816,217.837 261.829,217.869 261.877,217.476C261.944,216.93 261.622,217.173 261.707,216.48Z" style="fill:rgb(74,77,77);fill-opacity:0.09;"/>
        </g>
        <g transform="matrix(1,0,0,1,2315.506356,671.951026)">
            <path d="M196.53,174.1C200.707,173.957 200.503,173.98 204.464,174.928C200.209,176.866 199.778,177.213 196.53,174.1Z" style="fill:rgb(81,86,86);fill-opacity:0.18;"/>
        </g>
        <g transform="matrix(1,0,0,1,2315.506356,671.951026)">
            <path d="M168.408,152.231L162.715,154.831C162.664,152.827 162.525,152.907 162.664,152.827C165.458,151.223 165.599,150.706 168.408,152.231Z" style="fill:rgb(74,76,76);fill-opacity:0.09;"/>
        </g>
        <g transform="matrix(1,0,0,1,2315.506356,671.951026)">
            <path d="M268.409,128.537C269.507,130.789 270.605,133.04 271.703,135.292C271.101,135.285 265.563,135.224 268.409,128.537Z" style="fill:rgb(60,62,62);fill-opacity:0.11;"/>
        </g>
        <g transform="matrix(1,0,0,1,2315.506356,671.951026)">
            <path d="M272.548,356.238C274.754,354.477 275.93,353.375 278.376,357.762C275.341,357.232 275.507,357.253 272.548,356.238Z" style="fill:rgb(75,76,77);fill-opacity:0.11;"/>
        </g>
        <g transform="matrix(1,0,0,1,2315.506356,671.951026)">
            <path d="M348.005,311.459L349.173,313.47C348.85,314.795 348.527,316.12 348.204,317.445C346.095,314.718 347.017,314.496 348.005,311.459Z" style="fill:rgb(80,82,83);fill-opacity:0.08;"/>
        </g>
        <g transform="matrix(1,0,0,1,2315.506356,671.951026)">
            <path d="M96.593,119.575C94.295,121.275 95.441,121.862 94.304,124.412C90.31,121.999 95.225,119.7 96.593,119.575Z" style="fill:rgb(82,85,84);fill-opacity:0.07;"/>
        </g>
        <g transform="matrix(1,0,0,1,2315.506356,671.951026)">
            <path d="M158.238,62.374C159.427,65.035 158.648,65.038 157.062,67.515L155.707,66.583C156.551,65.18 157.394,63.777 158.238,62.374Z" style="fill:rgb(123,125,127);fill-opacity:0.11;"/>
        </g>
        <g transform="matrix(1,0,0,1,2315.506356,671.951026)">
            <path d="M152.165,338.092L148.617,340.623C145.894,335.211 152.072,338.019 152.165,338.092Z" style="fill:rgb(105,110,108);fill-opacity:0.08;"/>
        </g>
        <g transform="matrix(1,0,0,1,2315.506356,671.951026)">
            <path d="M137.408,43.424C135.383,46.956 135.482,46.898 134.888,47.665C133.298,44.704 133.924,43.894 137.408,43.424Z" style="fill:rgb(87,90,91);fill-opacity:0.13;"/>
        </g>
        <g transform="matrix(1,0,0,1,2315.506356,671.951026)">
            <path d="M58.284,194.402C57.05,197.263 57.161,197.04 57.05,197.263C56.721,197.929 56.597,197.701 56.257,198.389C52.655,196.201 55.992,195.564 57.5,194.229L58.284,194.402Z" style="fill:rgb(110,114,113);fill-opacity:0.11;"/>
        </g>
        <g transform="matrix(1,0,0,1,2315.506356,671.951026)">
            <path d="M88.51,356.735C89.013,356.769 90.388,355.89 91.565,359.05C86.844,358.208 86.917,358.354 86.522,358.25L88.51,356.735Z" style="fill:rgb(87,89,90);fill-opacity:0.19;"/>
        </g>
        <g transform="matrix(1,0,0,1,2315.506356,671.951026)">
            <path d="M205.525,344.48L209.804,348.092C208.662,348.262 209.595,349.251 208.569,349.403C208.459,349.42 208.195,349.459 207.571,348.424C206.369,346.434 205.738,346.85 205.525,344.48Z" style="fill:rgb(98,99,99);fill-opacity:0.2;"/>
        </g>
        <g transform="matrix(1,0,0,1,2315.506356,671.951026)">
            <path d="M65.754,179.654C65.296,180.584 64.838,181.514 64.379,182.444C64.164,182.32 57.965,176.718 65.754,179.654Z" style="fill:rgb(103,105,106);fill-opacity:0.06;"/>
        </g>
        <g transform="matrix(1,0,0,1,2315.506356,671.951026)">
            <path d="M52.577,336.426C56.6,336.56 56.465,338.181 56.436,338.531C56.383,339.16 55.132,339.224 55.079,339.853C54.245,338.711 53.411,337.569 52.577,336.426Z" style="fill:rgb(105,108,108);fill-opacity:0.13;"/>
        </g>
        <g transform="matrix(1,0,0,1,2315.506356,671.951026)">
            <path d="M345.785,324.675C345.182,326.006 344.58,327.337 343.978,328.667C343.934,327.556 340.381,324.721 345.785,324.675Z" style="fill:rgb(66,68,68);fill-opacity:0.1;"/>
        </g>
        <g transform="matrix(1,0,0,1,2315.506356,671.951026)">
            <path d="M264.17,58.547C264.576,59.24 264.981,59.933 265.386,60.626C266.038,62.21 266.217,62.415 264.747,63.381C264.299,62.434 263.85,61.487 263.402,60.54L264.17,58.547Z" style="fill:rgb(114,115,116);fill-opacity:0.07;"/>
        </g>
        <g transform="matrix(1,0,0,1,2315.506356,671.951026)">
            <path d="M224.415,52.566C226.417,53.681 226.186,53.709 227.849,55.225C225.162,56.35 225.455,55.076 224.415,52.566Z" style="fill:rgb(105,108,107);fill-opacity:0.07;"/>
        </g>
        <g transform="matrix(1,0,0,1,2315.506356,671.951026)">
            <path d="M155.707,66.583L157.062,67.515C156.37,69.472 156.434,69.344 154.773,70.64L154.305,69.386C154.772,68.452 155.24,67.518 155.707,66.583Z" style="fill:rgb(56,58,58);fill-opacity:0.06;"/>
        </g>
        <g transform="matrix(1,0,0,1,2315.506356,671.951026)">
            <path d="M56.924,342.09C59.451,340.069 60.122,341.526 60.292,344.668C58.706,343.138 58.564,343.547 56.924,342.09Z" style="fill:rgb(126,127,127);fill-opacity:0.08;"/>
        </g>
        <g transform="matrix(1,0,0,1,2315.506356,671.951026)">
            <path d="M317.846,162.321C319.764,164.031 319.911,164.268 318.679,166.432L317.411,163.551L317.846,162.321Z" style="fill:rgb(58,60,60);fill-opacity:0.07;"/>
        </g>
        <g transform="matrix(1,0,0,1,2315.506356,671.951026)">
            <path d="M157.755,202.538C157.065,207.237 157.626,208.999 156.617,212.495C156.77,206.803 155.821,206.747 157.755,202.538Z" style="fill:rgb(123,127,128);fill-opacity:0.51;"/>
        </g>
        <g transform="matrix(1,0,0,1,2315.506356,671.951026)">
            <path d="M227.464,153.806C229.772,153.631 230.413,153.347 230.446,155.581C229.452,154.989 228.458,154.397 227.464,153.806Z" style="fill:rgb(92,95,93);fill-opacity:0.09;"/>
        </g>
        <g transform="matrix(1,0,0,1,2315.506356,671.951026)">
            <path d="M337.419,338.428C335.94,341.383 336.085,341.332 333.433,343.433C335.152,340.608 334.994,340.756 337.419,338.428Z" style="fill:rgb(126,130,132);fill-opacity:0.42;"/>
        </g>
        <g transform="matrix(1,0,0,1,2315.506356,671.951026)">
            <path d="M109.577,357.256C112.236,356.945 112.424,355.661 114.494,357.443C113.16,357.665 111.826,357.886 110.492,358.108L109.577,357.256Z" style="fill:rgb(137,141,142);fill-opacity:0.2;"/>
        </g>
        <g transform="matrix(1,0,0,1,2315.506356,671.951026)">
            <path d="M168.561,50.563C168.24,50.882 166.141,52.964 164.556,54.553C165.174,52.157 165.942,51.228 168.561,50.563Z" style="fill:rgb(111,114,115);fill-opacity:0.19;"/>
        </g>
        <g transform="matrix(1,0,0,1,2315.506356,671.951026)">
            <path d="M205.414,174.893C206.421,175.203 207.429,175.513 208.437,175.822C206.496,177.296 205.267,177.451 205.414,174.893Z" style="fill:rgb(73,78,77);fill-opacity:0.18;"/>
        </g>
        <g transform="matrix(1,0,0,1,2315.506356,671.951026)">
            <path d="M216.062,311.349C216.843,313.422 216.618,313.3 216.356,315.6C214.745,313.338 214.812,313.223 216.062,311.349Z" style="fill:rgb(97,99,100);fill-opacity:0.13;"/>
        </g>
        <g transform="matrix(1,0,0,1,2315.506356,671.951026)">
            <path d="M73.389,382.866C76.286,383.84 76.218,383.713 76.457,383.806C74.509,385.276 73.291,385.429 73.389,382.866Z" style="fill:rgb(75,77,78);fill-opacity:0.18;"/>
        </g>
        <g transform="matrix(1,0,0,1,2315.506356,671.951026)">
            <path d="M292.041,114.781C292.636,114.735 292.799,113.653 293.394,113.607C295.606,113.436 293.674,114.808 294.158,116.882L293.15,116.669L292.041,114.781Z" style="fill:rgb(78,81,80);fill-opacity:0.1;"/>
        </g>
        <g transform="matrix(1,0,0,1,2315.506356,671.951026)">
            <path d="M253.542,43.464C256.384,43.826 256.164,45.952 256.551,46.469L256.115,47.75C255.258,46.321 254.4,44.893 253.542,43.464Z" style="fill:rgb(101,107,106);fill-opacity:0.24;"/>
        </g>
        <g transform="matrix(1,0,0,1,2315.506356,671.951026)">
            <path d="M256.551,46.469C258.177,47.577 258.114,47.786 257.315,49.575C256.915,48.967 256.515,48.358 256.115,47.75L256.551,46.469Z" style="fill:rgb(69,72,71);fill-opacity:0.09;"/>
        </g>
        <g transform="matrix(1,0,0,1,2315.506356,671.951026)">
            <path d="M116.737,356.888C116.664,354.651 117.635,354.817 119.387,356.031L116.737,356.888Z" style="fill:rgb(57,59,59);fill-opacity:0.13;"/>
        </g>
        <g transform="matrix(1,0,0,1,2315.506356,671.951026)">
            <path d="M132.124,230.543C132.446,231.571 132.768,232.599 133.09,233.628C130.598,233.647 130.691,232.575 132.124,230.543Z" style="fill:rgb(71,74,75);fill-opacity:0.19;"/>
        </g>
        <g transform="matrix(1,0,0,1,2315.506356,671.951026)">
            <path d="M42.732,294.538C42.394,299.12 42.413,299.092 42.367,299.487C42.232,300.65 41.954,300.39 41.823,301.514C41.899,297.859 41.91,298.053 42.732,294.538Z" style="fill:rgb(124,128,131);fill-opacity:0.5;"/>
        </g>
        <g transform="matrix(1,0,0,1,2315.506356,671.951026)">
            <path d="M166.591,325.633C164.667,327.297 164.846,327.247 162.594,328.562C164.255,326.41 163.869,325.739 166.591,325.633Z" style="fill:rgb(99,106,105);fill-opacity:0.25;"/>
        </g>
        <g transform="matrix(1,0,0,1,2315.506356,671.951026)">
            <path d="M186.495,147.452C189.463,146.589 189.38,146.55 192.484,147.241C190.487,147.311 188.491,147.382 186.495,147.452Z" style="fill:rgb(145,148,148);fill-opacity:0.49;"/>
        </g>
        <g transform="matrix(1,0,0,1,2315.506356,671.951026)">
            <path d="M198.495,146.623C200.163,146.885 201.831,147.148 203.499,147.411L196.506,147.195L198.495,146.623Z" style="fill:rgb(126,128,128);fill-opacity:0.55;"/>
        </g>
        <g transform="matrix(1,0,0,1,2315.506356,671.951026)">
            <path d="M230.302,58.605L231.611,60.402C229.948,61.23 229.976,60.303 230.302,58.605Z" style="fill:rgb(84,87,88);fill-opacity:0.1;"/>
        </g>
        <g transform="matrix(1,0,0,1,2315.506356,671.951026)">
            <path d="M100.299,112.372C99.718,113.422 99.137,114.473 98.556,115.523C97.803,113.262 97.964,112.781 100.299,112.372Z" style="fill:rgb(86,90,89);fill-opacity:0.15;"/>
        </g>
        <g transform="matrix(1,0,0,1,2315.506356,671.951026)">
            <path d="M266.021,65.801C267.476,65.675 267.996,64.075 268.132,65.618C268.132,65.618 267.251,67.474 267.174,67.635L266.021,65.801Z" style="fill:rgb(88,91,91);fill-opacity:0.18;"/>
        </g>
        <g transform="matrix(1,0,0,1,2315.506356,671.951026)">
            <path d="M342.388,331.424C341.744,332.44 341.1,333.457 340.456,334.473L340.395,332.42C342.287,331.551 342.214,331.459 342.388,331.424Z" style="fill:rgb(94,99,99);fill-opacity:0.18;"/>
        </g>
        <g transform="matrix(1,0,0,1,2315.506356,671.951026)">
            <path d="M101.94,109.78L101.061,111.285C100.878,110.2 100.067,110.768 99.874,109.622C99.602,108.013 100.454,109.667 101.94,109.78Z" style="fill:rgb(81,85,84);fill-opacity:0.13;"/>
        </g>
        <g transform="matrix(1,0,0,1,2315.506356,671.951026)">
            <path d="M181.604,175.855C181.678,177.715 180.977,177.843 179.541,176.66L181.604,175.855Z" style="fill:rgb(105,108,109);fill-opacity:0.19;"/>
        </g>
        <g transform="matrix(1,0,0,1,2315.506356,671.951026)">
            <path d="M152.651,278.447L153.894,280.208C152.496,280.587 151.642,281.887 151.906,280.371C151.935,280.208 151.906,280.371 152.651,278.447Z" style="fill:rgb(69,71,73);fill-opacity:0.13;"/>
        </g>
        <g transform="matrix(1,0,0,1,2315.506356,671.951026)">
            <path d="M374.789,323.549C376.622,326.083 374.797,326.135 373.993,326.605L374.789,323.549Z" style="fill:rgb(88,92,94);fill-opacity:0.26;"/>
        </g>
        <g transform="matrix(1,0,0,1,2315.506356,671.951026)">
            <path d="M128.543,57.537C128.23,58.539 127.918,59.541 127.606,60.543C127.508,59.819 127.41,59.095 127.312,58.37C127.722,58.093 128.132,57.815 128.543,57.537Z" style="fill:rgb(83,85,85);fill-opacity:0.15;"/>
        </g>
        <g transform="matrix(1,0,0,1,2315.506356,671.951026)">
            <path d="M248.724,376.214L250.562,377.325C249.122,377.912 248.664,377.776 248.724,376.214Z" style="fill:rgb(33,35,35);fill-opacity:0.12;"/>
        </g>
        <g transform="matrix(1,0,0,1,2315.506356,671.951026)">
            <path d="M194.36,290.625C195.527,291.386 195.427,291.335 195.527,291.386C196.011,291.635 195.897,291.204 196.513,291.521C195.22,292.51 195.254,291.876 194.36,290.625Z" style="fill:rgb(152,156,158);fill-opacity:0.35;"/>
        </g>
        <g transform="matrix(1,0,0,1,2315.506356,671.951026)">
            <path d="M121.488,383.447C117.064,384.511 117.12,384.522 116.518,384.607C118.175,384.22 119.831,383.833 121.488,383.447Z" style="fill:rgb(111,116,117);fill-opacity:0.52;"/>
        </g>
        <g transform="matrix(1,0,0,1,2315.506356,671.951026)">
            <path d="M180.468,148.341C179.144,148.723 177.82,149.105 176.496,149.487C177.82,149.105 179.144,148.723 180.468,148.341Z" style="fill:rgb(112,116,117);fill-opacity:0.53;"/>
        </g>
        <g transform="matrix(1,0,0,1,2315.506356,671.951026)">
            <path d="M227.339,240.424L227.279,241.402C226.971,242.079 226.663,242.757 226.356,243.435L226.455,241.477C226.749,241.126 227.044,240.775 227.339,240.424Z" style="fill:rgb(107,111,112);fill-opacity:0.45;"/>
        </g>
        <g transform="matrix(1,0,0,1,2315.506356,671.951026)">
            <path d="M349.51,366.514C348.549,367.397 348.714,367.483 347.425,367.394C348.467,366.675 348.306,366.825 349.51,366.514Z" style="fill:rgb(91,94,95);fill-opacity:0.2;"/>
        </g>
        <g transform="matrix(1,0,0,1,2315.506356,671.951026)">
            <path d="M235.805,283.655C236.029,285.312 236.517,285.239 235.814,286.692L235.421,284.463L235.805,283.655Z" style="fill:rgb(106,111,111);fill-opacity:0.11;"/>
        </g>
        <g transform="matrix(1,0,0,1,2315.506356,671.951026)">
            <path d="M226.455,241.477L226.356,243.435C226.083,243.795 225.809,244.155 225.536,244.515C225.842,243.502 226.148,242.49 226.455,241.477Z" style="fill:rgb(97,100,101);fill-opacity:0.39;"/>
        </g>
        <g transform="matrix(1,0,0,1,2315.506356,671.951026)">
            <path d="M205.502,147.483C206.802,147.636 208.101,147.788 209.401,147.941C207.409,148.235 207.551,148.213 205.502,147.483Z" style="fill:rgb(112,114,116);fill-opacity:0.53;"/>
        </g>
        <g transform="matrix(1,0,0,1,2315.506356,671.951026)">
            <path d="M132.726,191.569C132.287,194.446 132.339,194.219 132.287,194.446C132.131,195.121 131.918,194.919 131.767,195.573C131.702,193.415 131.73,193.542 132.726,191.569Z" style="fill:rgb(119,120,122);fill-opacity:0.45;"/>
        </g>
        <g transform="matrix(1,0,0,1,2315.506356,671.951026)">
            <path d="M228.301,238.409C227.96,239.407 227.619,240.404 227.279,241.402L227.339,240.424C227.621,239.207 227.548,239.348 228.301,238.409Z" style="fill:rgb(95,97,98);fill-opacity:0.46;"/>
        </g>
        <g transform="matrix(1,0,0,1,2315.506356,671.951026)">
            <path d="M255.603,243.536C255.28,244.541 254.956,245.546 254.633,246.551C254.956,245.546 255.28,244.541 255.603,243.536Z" style="fill:rgb(121,124,126);fill-opacity:0.43;"/>
        </g>
        <g transform="matrix(1,0,0,1,2315.506356,671.951026)">
            <path d="M339.52,269.49C340.63,270.9 340.654,270.762 341.072,271.683C340.555,270.952 340.038,270.221 339.52,269.49Z" style="fill:rgb(110,110,114);fill-opacity:0.54;"/>
        </g>
        <g transform="matrix(1,0,0,1,2315.506356,671.951026)">
            <path d="M338.59,267.458C338.9,268.136 339.21,268.813 339.52,269.49C338.704,268.519 338.795,268.669 338.59,267.458Z" style="fill:rgb(133,134,137);fill-opacity:0.46;"/>
        </g>
        <g transform="matrix(1,0,0,1,2315.506356,671.951026)">
            <path d="M36.429,237.464C36.092,238.129 35.754,238.793 35.416,239.458C35.704,238.232 35.629,238.37 36.429,237.464Z" style="fill:rgb(115,117,117);fill-opacity:0.45;"/>
        </g>
        <g transform="matrix(1,0,0,1,2315.506356,671.951026)">
            <path d="M62.523,183.521L63.583,183.563L62.603,185.542C62.576,184.869 62.55,184.195 62.523,183.521Z" style="fill:rgb(55,58,59);fill-opacity:0.25;"/>
        </g>
        <g transform="matrix(1,0,0,1,2315.506356,671.951026)">
            <path d="M223.48,184.519C224.51,185.563 224.421,185.466 225.392,186.589C224.755,185.899 224.117,185.209 223.48,184.519Z" style="fill:rgb(116,121,123);fill-opacity:0.51;"/>
        </g>
        <g transform="matrix(1,0,0,1,2315.506356,671.951026)">
            <path d="M65.362,241.428C65.18,242.655 65.265,242.53 64.461,243.477C64.762,242.794 65.062,242.111 65.362,241.428Z" style="fill:rgb(134,138,139);fill-opacity:0.45;"/>
        </g>
        <g transform="matrix(1,0,0,1,2315.506356,671.951026)">
            <path d="M143.627,261.439C143.922,262.124 144.216,262.81 144.51,263.495L143.816,263.307L143.627,261.439Z" style="fill:rgb(123,124,126);fill-opacity:0.48;"/>
        </g>
        <g transform="matrix(1,0,0,1,2315.506356,671.951026)">
            <path d="M332.569,193.465C333.377,194.413 333.288,194.268 333.602,195.448C333.258,194.787 332.913,194.126 332.569,193.465Z" style="fill:rgb(103,107,108);fill-opacity:0.47;"/>
        </g>
        <g transform="matrix(1,0,0,1,2315.506356,671.951026)">
            <path d="M158.695,198.569C158.413,199.572 158.13,200.576 157.848,201.58C158.13,200.576 158.413,199.572 158.695,198.569Z" style="fill:rgb(105,110,109);fill-opacity:0.52;"/>
        </g>
        <g transform="matrix(1,0,0,1,2315.506356,671.951026)">
            <path d="M134.476,349.453C133.809,349.785 133.142,350.117 132.476,350.45C133.142,350.117 133.809,349.785 134.476,349.453Z" style="fill:rgb(120,124,124);fill-opacity:0.45;"/>
        </g>
        <g transform="matrix(1,0,0,1,2315.506356,671.951026)">
            <path d="M139.536,97.519C139.189,98.178 138.842,98.838 138.495,99.498C138.842,98.838 139.189,98.178 139.536,97.519Z" style="fill:rgb(119,122,124);fill-opacity:0.47;"/>
        </g>
        <g transform="matrix(1,0,0,1,2315.506356,671.951026)">
            <path d="M255.404,183.543C255.846,184.499 256.287,185.455 256.729,186.411C256.287,185.455 255.846,184.499 255.404,183.543Z" style="fill:rgb(103,107,110);fill-opacity:0.52;"/>
        </g>
        <g transform="matrix(1,0,0,1,2315.506356,671.951026)">
            <path d="M168.598,250.452C169.301,251.37 169.234,251.208 169.466,252.517C169.177,251.829 168.888,251.141 168.598,250.452Z" style="fill:rgb(103,105,108);fill-opacity:0.48;"/>
        </g>
        <g transform="matrix(1,0,0,1,2315.506356,671.951026)">
            <path d="M337.735,265.379C338.377,266.325 338.304,266.19 338.59,267.458C338.305,266.765 338.02,266.072 337.735,265.379Z" style="fill:rgb(132,135,138);fill-opacity:0.47;"/>
        </g>
        <g transform="matrix(1,0,0,1,2315.506356,671.951026)">
            <path d="M46.459,217.479C46.152,218.159 45.844,218.838 45.536,219.518C45.844,218.838 46.152,218.159 46.459,217.479Z" style="fill:rgb(108,113,113);fill-opacity:0.48;"/>
        </g>
        <g transform="matrix(1,0,0,1,2315.506356,671.951026)">
            <path d="M67.369,237.43C67.058,238.109 66.746,238.788 66.435,239.467C66.746,238.788 67.058,238.109 67.369,237.43Z" style="fill:rgb(121,128,129);fill-opacity:0.48;"/>
        </g>
        <g transform="matrix(1,0,0,1,2315.506356,671.951026)">
            <path d="M227.598,295.572C227.234,296.217 226.871,296.861 226.507,297.506C226.811,296.266 226.801,296.404 227.598,295.572Z" style="fill:rgb(128,134,135);fill-opacity:0.44;"/>
        </g>
        <g transform="matrix(1,0,0,1,2315.506356,671.951026)">
            <path d="M59.351,253.426C59.055,254.112 58.76,254.797 58.464,255.483C58.76,254.797 59.055,254.112 59.351,253.426Z" style="fill:rgb(121,125,126);fill-opacity:0.48;"/>
        </g>
        <g transform="matrix(1,0,0,1,2315.506356,671.951026)">
            <path d="M256.601,240.533L256.03,243.298C255.856,241.808 255.968,241.955 256.601,240.533Z" style="fill:rgb(122,126,127);fill-opacity:0.5;"/>
        </g>
        <g transform="matrix(1,0,0,1,2315.506356,671.951026)">
            <path d="M99.365,174.428C99.086,175.125 98.807,175.822 98.528,176.518C98.807,175.822 99.086,175.125 99.365,174.428Z" style="fill:rgb(126,128,128);fill-opacity:0.48;"/>
        </g>
        <g transform="matrix(1,0,0,1,2315.506356,671.951026)">
            <path d="M44.021,318.661C44.175,319.609 44.328,320.558 44.482,321.506C43.933,320.029 43.851,320.168 44.021,318.661Z" style="fill:rgb(125,128,131);fill-opacity:0.48;"/>
        </g>
        <g transform="matrix(1,0,0,1,2315.506356,671.951026)">
            <path d="M230.724,194.385C231.332,195.359 231.262,195.204 231.523,196.49C231.256,195.789 230.99,195.087 230.724,194.385Z" style="fill:rgb(124,129,130);fill-opacity:0.47;"/>
        </g>
        <g transform="matrix(1,0,0,1,2315.506356,671.951026)">
            <path d="M136.515,348.528C135.835,348.836 135.155,349.145 134.476,349.453C135.155,349.145 135.835,348.836 136.515,348.528Z" style="fill:rgb(108,111,112);fill-opacity:0.48;"/>
        </g>
        <g transform="matrix(1,0,0,1,2315.506356,671.951026)">
            <path d="M349.643,365.678C350.292,365.651 350.941,365.623 351.59,365.596C350.897,365.902 350.204,366.208 349.51,366.514L349.643,365.678Z" style="fill:rgb(136,139,140);fill-opacity:0.09;"/>
        </g>
        <g transform="matrix(1,0,0,1,2315.506356,671.951026)">
            <path d="M247.589,262.545C247.25,263.209 246.911,263.872 246.572,264.536C246.911,263.872 247.25,263.209 247.589,262.545Z" style="fill:rgb(98,102,103);fill-opacity:0.48;"/>
        </g>
        <g transform="matrix(1,0,0,1,2315.506356,671.951026)">
            <path d="M42.161,310.537L42.654,313.476C42.094,312.016 42.018,312.166 42.161,310.537Z" style="fill:rgb(95,101,100);fill-opacity:0.55;"/>
        </g>
        <g transform="matrix(1,0,0,1,2315.506356,671.951026)">
            <path d="M290.406,171.548C290.75,172.21 291.093,172.871 291.437,173.532C291.093,172.871 290.75,172.21 290.406,171.548Z" style="fill:rgb(95,98,101);fill-opacity:0.48;"/>
        </g>
        <g transform="matrix(1,0,0,1,2315.506356,671.951026)">
            <path d="M38.49,233.495C38.181,234.174 37.872,234.853 37.563,235.532C37.872,234.853 38.181,234.174 38.49,233.495Z" style="fill:rgb(110,114,115);fill-opacity:0.49;"/>
        </g>
        <g transform="matrix(1,0,0,1,2315.506356,671.951026)">
            <path d="M75.528,160.515C75.233,161.201 74.938,161.887 74.643,162.574C74.938,161.887 75.233,161.201 75.528,160.515Z" style="fill:rgb(113,116,116);fill-opacity:0.49;"/>
        </g>
        <g transform="matrix(1,0,0,1,2315.506356,671.951026)">
            <path d="M140.472,95.485C140.16,96.163 139.848,96.841 139.536,97.519C139.848,96.841 140.16,96.163 140.472,95.485Z" style="fill:rgb(103,106,108);fill-opacity:0.49;"/>
        </g>
        <g transform="matrix(1,0,0,1,2315.506356,671.951026)">
            <path d="M232.419,198.529C232.712,199.536 233.005,200.542 233.298,201.549C233.005,200.542 232.712,199.536 232.419,198.529Z" style="fill:rgb(98,103,105);fill-opacity:0.53;"/>
        </g>
        <g transform="matrix(1,0,0,1,2315.506356,671.951026)">
            <path d="M258.672,233.546L258.016,236.35C257.957,234.834 258.024,234.978 258.672,233.546Z" style="fill:rgb(97,101,100);fill-opacity:0.56;"/>
        </g>
        <g transform="matrix(1,0,0,1,2315.506356,671.951026)">
            <path d="M72.465,227.482C72.154,228.16 71.843,228.838 71.532,229.516C71.843,228.838 72.154,228.16 72.465,227.482Z" style="fill:rgb(98,102,104);fill-opacity:0.5;"/>
        </g>
        <g transform="matrix(1,0,0,1,2315.506356,671.951026)">
            <path d="M245.503,85.498C245.832,86.167 246.161,86.837 246.49,87.506C246.161,86.837 245.832,86.167 245.503,85.498Z" style="fill:rgb(95,99,100);fill-opacity:0.51;"/>
        </g>
    </g>
</svg>
