<?xml version="1.0" encoding="UTF-8" standalone="no"?>
<!DOCTYPE svg PUBLIC "-//W3C//DTD SVG 1.1//EN" "http://www.w3.org/Graphics/SVG/1.1/DTD/svg11.dtd">
<svg width="100%" height="100%" viewBox="0 0 477 123" version="1.1" xmlns="http://www.w3.org/2000/svg" xmlns:xlink="http://www.w3.org/1999/xlink" xml:space="preserve" xmlns:serif="http://www.serif.com/" style="fill-rule:evenodd;clip-rule:evenodd;stroke-linejoin:round;stroke-miterlimit:2;">
    <g transform="matrix(1,0,0,1,-1710.715007,-206.171188)">
        <g transform="matrix(1,0,0,1,7.006356,0)">
            <g transform="matrix(3.590749,0,0,3.83183,-602.261484,-403.750182)">
                <path d="M708.501,180.947C708.898,180.94 714.061,181.257 726.483,179.388C755.248,175.058 760.104,166.655 762.144,171.605C763.509,174.917 745.907,183.062 743.345,184.096C742.644,184.379 738.454,186.071 734.406,187.159C707.939,194.278 692.392,189.697 684.401,187.957C667.271,184.227 651.576,173.382 646.303,168.728C643.435,166.196 641.7,165.119 642.325,163.354C643.447,160.18 649.554,169.408 677.498,176.507C679.927,177.124 696.321,181.29 708.501,180.947Z" style="fill:rgb(55,58,63);"/>
            </g>
        </g>
        <g transform="matrix(1,0,0,1,7.006356,0)">
            <g transform="matrix(3.590749,0,0,3.83183,-602.261484,-403.750182)">
                <path d="M767.827,168.477C767.292,166.794 767.626,164.629 759.512,164.933C754.17,165.133 750.219,166.679 749.303,165.694C745.986,162.127 765.89,156.238 773.255,160.889C778.91,164.46 768.704,186.039 764.608,185.067C762.081,184.467 767.295,178.166 767.827,168.477Z" style="fill:rgb(55,58,62);"/>
            </g>
        </g>
    </g>
</svg>
