<?xml version="1.0" encoding="UTF-8" standalone="no"?>
<!DOCTYPE svg PUBLIC "-//W3C//DTD SVG 1.1//EN" "http://www.w3.org/Graphics/SVG/1.1/DTD/svg11.dtd">
<svg width="100%" height="100%" viewBox="0 0 383 464" version="1.1" xmlns="http://www.w3.org/2000/svg" xmlns:xlink="http://www.w3.org/1999/xlink" xml:space="preserve" xmlns:serif="http://www.serif.com/" style="fill-rule:evenodd;clip-rule:evenodd;stroke-linejoin:round;stroke-miterlimit:2;">
    <g transform="matrix(1,0,0,1,-71.795916,-17.478582)">
        <g transform="matrix(1,0,0,1,7.006356,0)">
            <g transform="matrix(3.743922,0,0,3.743922,-191.669168,-406.69084)">
                <path d="M116.41,233.089C104.775,236.084 97.65,242.855 85.043,226.894C84.079,225.674 78.036,218.023 74.879,210.326C67.687,192.789 68.157,182.424 68.894,173.549C69.254,169.214 73.171,154.703 83.464,148.449C99.894,138.468 110.851,146.458 116.429,147.766C126.815,150.202 129.496,143.963 141.479,143.208C157.186,142.219 168.42,153.62 167.204,156.324C166.97,156.843 153.098,164.572 154.973,182.452C156.298,195.079 165.725,200.883 167.29,201.847C168.769,202.757 171.041,203.405 170.585,205.517C170.309,206.797 157.984,240.319 139.479,236.622C135.152,235.758 132.945,234.128 126.435,232.809C121.529,231.814 120.508,232.261 116.41,233.089Z" style="fill:rgb(56,59,64);"/>
            </g>
        </g>
        <g transform="matrix(1,0,0,1,7.006356,0)">
            <g transform="matrix(3.743922,0,0,3.743922,-191.669168,-406.69084)">
                <path d="M140.598,113.859C141.243,113.755 141.839,113.43 142.483,113.326C144.982,112.923 144.364,116.579 144.274,118.486C143.712,130.286 133.551,138.161 128.343,140.135C119.7,143.412 119.742,140.187 119.751,139.498C119.877,129.759 125.37,123.466 126.336,122.359C132.533,115.258 139.767,114.097 140.598,113.859Z" style="fill:rgb(55,58,63);"/>
            </g>
        </g>
    </g>
</svg>
