<?xml version="1.0" encoding="UTF-8" standalone="no"?>
<!DOCTYPE svg PUBLIC "-//W3C//DTD SVG 1.1//EN" "http://www.w3.org/Graphics/SVG/1.1/DTD/svg11.dtd">
<svg width="100%" height="100%" viewBox="0 0 458 348" version="1.1" xmlns="http://www.w3.org/2000/svg" xmlns:xlink="http://www.w3.org/1999/xlink" xml:space="preserve" xmlns:serif="http://www.serif.com/" style="fill-rule:evenodd;clip-rule:evenodd;stroke-linejoin:round;stroke-miterlimit:2;">
    <g transform="matrix(1,0,0,1,-30.198018,-3161.974179)">
        <g transform="matrix(1,0,0,1,-6373.056344,3079.545126)">
            <g transform="matrix(3.432509,0,0,3.432509,3520.940515,-1105.22657)">
                <path d="M914.157,356.501C913.981,358.745 914.187,359.759 910.503,359.796C902.032,359.881 900.212,360.464 900.179,356.502C900.112,348.713 899.636,346.135 903.486,346.065C911.555,345.918 911.9,346.043 912.585,346.291C914.607,347.023 914.151,350.891 914.157,356.501Z" style="fill:rgb(54,59,60);"/>
            </g>
        </g>
        <g transform="matrix(1,0,0,1,-6373.056344,3079.545126)">
            <g transform="matrix(3.432509,0,0,3.432509,3520.940515,-1105.22657)">
                <path d="M914.153,365.512C914.158,372.793 914.901,375.872 911.469,376.16C911.393,376.166 902.79,376.335 901.69,376.034C900.87,375.809 899.884,375.538 900.273,365.495C900.418,361.77 903.355,362.54 909.5,362.554C909.735,362.555 911.683,362.56 912.426,362.721C914.182,363.104 914.062,365.171 914.153,365.512Z" style="fill:rgb(54,60,61);"/>
            </g>
        </g>
        <g transform="matrix(1,0,0,1,-6373.056344,3079.545126)">
            <g transform="matrix(3.432509,0,0,3.432509,3520.940515,-1105.22657)">
                <path d="M914.115,382.514C914.12,389.38 914.844,392.292 911.514,392.663C910.895,392.732 903.339,392.742 902.481,392.601C899.705,392.147 900.232,389.133 900.253,384.505C900.254,384.124 900.272,380.356 900.79,379.777C901.745,378.71 912.309,378.908 913.325,379.713C914.207,380.41 913.837,380.604 914.115,382.514Z" style="fill:rgb(54,58,60);"/>
            </g>
        </g>
        <g transform="matrix(1,0,0,1,-6373.056344,3079.545126)">
            <g transform="matrix(3.432509,0,0,3.432509,3520.940515,-1105.22657)">
                <path d="M885.595,376.117C885.503,376.03 883.799,375.952 883.687,373.484C883.637,372.38 883.67,366.279 883.69,365.514C883.696,365.29 883.745,363.428 884.755,362.925C885.191,362.708 896.183,361.603 897.063,363.727C897.497,364.773 897.331,373.971 897.254,374.444C896.868,376.796 892.879,376.303 885.595,376.117Z" style="fill:rgb(52,58,59);"/>
            </g>
        </g>
        <g transform="matrix(1,0,0,1,-6373.056344,3079.545126)">
            <g transform="matrix(3.432509,0,0,3.432509,3520.940515,-1105.22657)">
                <path d="M867.066,389.508C867.069,383.071 866.648,379.85 868.436,379.323C869.405,379.037 878.268,379.148 878.548,379.182C880.983,379.477 880.871,380.863 880.768,389.499C880.725,393.126 878.989,392.851 870.494,392.726C866.526,392.668 867.245,390.79 867.066,389.508Z" style="fill:rgb(54,59,61);"/>
            </g>
        </g>
        <g transform="matrix(1,0,0,1,-6373.056344,3079.545126)">
            <g transform="matrix(3.432509,0,0,3.432509,3520.940515,-1105.22657)">
                <path d="M867.102,372.485C867.116,367.543 866.972,364.462 867.611,363.575C868.307,362.609 871.18,362.589 871.501,362.586C878.272,362.538 880.614,361.909 880.76,365.488C881.14,374.795 880.383,375.342 879.709,375.829C879.096,376.273 868.678,376.765 867.601,375.422C867.234,374.964 867.115,372.723 867.102,372.485Z" style="fill:rgb(56,61,63);"/>
            </g>
        </g>
        <g transform="matrix(1,0,0,1,-6373.056344,3079.545126)">
            <g transform="matrix(3.432509,0,0,3.432509,3520.940515,-1105.22657)">
                <path d="M864.154,382.501C864.147,389.539 864.86,392.344 861.513,392.664C861.018,392.711 853.123,392.755 852.477,392.649C850.761,392.368 850.146,391.929 850.426,382.498C850.54,378.654 852.409,379.096 860.497,379.171C864.42,379.208 863.869,380.518 864.154,382.501Z" style="fill:rgb(54,59,61);"/>
            </g>
        </g>
        <g transform="matrix(1,0,0,1,-6373.056344,3079.545126)">
            <g transform="matrix(3.432509,0,0,3.432509,3520.940515,-1105.22657)">
                <path d="M916.938,385.515C917.087,381.095 916.045,379.205 920.496,379.184C927.768,379.151 928.628,379.156 929.484,379.529C931.471,380.394 930.94,390.954 929.967,391.919C928.487,393.386 918.591,392.496 918.509,392.473C916.334,391.871 916.948,387.507 916.938,385.515Z" style="fill:rgb(56,60,62);"/>
            </g>
        </g>
        <g transform="matrix(1,0,0,1,-6373.056344,3079.545126)">
            <g transform="matrix(3.432509,0,0,3.432509,3520.940515,-1105.22657)">
                <path d="M889.501,392.708C885.179,392.636 883.68,392.961 883.664,388.502C883.64,382.106 882.942,379.208 886.472,379.142C896.549,378.952 896.91,379.393 897.182,380.611C897.224,380.797 897.756,390.594 896.787,391.731C895.693,393.014 892.305,392.701 889.501,392.708Z" style="fill:rgb(56,60,63);"/>
            </g>
        </g>
        <g transform="matrix(1,0,0,1,-6373.056344,3079.545126)">
            <g transform="matrix(1.277213,0,0,1.277213,3520.940515,-1105.22657)">
                <path d="M2333.833,1195.421C2318.955,1190.359 2318.757,1190.859 2305.369,1182.618C2299.402,1178.944 2293.126,1172.886 2292.147,1171.942C2256.338,1137.376 2252.223,1075.143 2260.079,1066.751C2264.919,1061.58 2266.131,1062.802 2350.219,1062.832C2426.878,1062.86 2426.867,1062.976 2433.532,1062.953C2513.824,1062.674 2516.511,1062.463 2525.255,1058.137C2537.18,1052.238 2514.198,1045.333 2526.426,1008.754C2533.251,988.338 2537.703,986.96 2544.15,992.525C2560.252,1006.421 2562.249,1011.424 2566.92,1025.597C2570.114,1035.289 2580.541,1022.482 2605.87,1032.49C2617.563,1037.109 2617.083,1041.11 2609.833,1051.375C2594.697,1072.804 2570.729,1073.568 2565.323,1074.344C2556.645,1075.589 2554.865,1089.141 2550.97,1097.468C2518.476,1166.949 2460.192,1192.631 2417.242,1198.878C2367.935,1206.051 2340.208,1197.409 2333.833,1195.421ZM2315.119,1163.745C2317.516,1163.376 2336.084,1160.522 2344.484,1156.218C2354.758,1150.955 2354.782,1156.27 2360.609,1162.656C2380.553,1184.514 2390.553,1185.578 2395.227,1187.612C2407.762,1193.069 2394.037,1192.95 2393.593,1192.92C2383.723,1192.252 2348.95,1196.66 2314.606,1177.036C2313.375,1176.332 2300.573,1169.017 2299.743,1167.376C2297.845,1163.627 2300.098,1163.263 2304.26,1163.928C2307.892,1164.508 2307.872,1164.126 2315.119,1163.745ZM2384.972,1116.871C2388.253,1121.864 2389.444,1121.68 2388.846,1127.578C2387.061,1145.191 2358.991,1140.175 2363.981,1122.126C2366.24,1113.955 2375.697,1111.173 2382.068,1114.837C2383.092,1115.427 2383.948,1116.282 2384.972,1116.871Z" style="fill:rgb(56,61,63);"/>
            </g>
        </g>
        <g transform="matrix(1,0,0,1,-6373.056344,3079.545126)">
            <g transform="matrix(3.432509,0,0,3.432509,3520.940515,-1105.22657)">
                <path d="M884.975,418.203C885.673,419.317 886.062,419.299 885.612,420.559C885.104,421.981 880.618,420.785 882.388,417.397C882.69,416.818 882.785,416.912 883.425,416.833C884.586,416.689 884.373,417.172 884.975,418.203Z" style="fill:rgb(50,56,57);"/>
            </g>
        </g>
    </g>
</svg>
