<?xml version="1.0" encoding="UTF-8" standalone="no"?>
<!DOCTYPE svg PUBLIC "-//W3C//DTD SVG 1.1//EN" "http://www.w3.org/Graphics/SVG/1.1/DTD/svg11.dtd">
<svg width="100%" height="100%" viewBox="0 0 453 402" version="1.1" xmlns="http://www.w3.org/2000/svg" xmlns:xlink="http://www.w3.org/1999/xlink" xml:space="preserve" xmlns:serif="http://www.serif.com/" style="fill-rule:evenodd;clip-rule:evenodd;stroke-linejoin:round;stroke-miterlimit:2;">
    <g transform="matrix(1,0,0,1,-1718.951922,-1282.925718)">
        <g transform="matrix(1,0,0,1,-1120.993326,1227.901547)">
            <g transform="matrix(3.097872,0,0,3.097872,255.110809,-277.201582)">
                <path d="M944.883,155.623C944.78,155.322 945.297,155.021 945.194,154.719C944.913,153.896 927.266,142.934 923.617,140.331C919.515,137.404 909.233,131.336 908.85,131.051C908.675,130.922 908.661,130.617 908.463,130.526C907.677,130.168 906.492,130.277 906.321,130.293C906.319,130.293 874.84,150.771 874.283,151.18C872.492,152.493 872.358,152.262 870.599,153.632C867.391,156.129 867.006,154.575 863.596,152.358C854.3,146.315 835.056,133.536 834.833,133.209C833.6,131.402 837.159,129.823 843.586,125.625C845.369,124.461 860.064,114.863 865.764,110.891C871.685,106.764 872.905,107.152 873.557,107.359C874.416,107.632 895.874,122.225 903.188,126.936C903.323,127.023 903.258,127.056 904.795,128.137C906.013,128.994 906.098,128.785 907.567,128.717C909.823,128.614 909.608,127.993 913.543,125.561C915.918,124.093 917.713,122.393 926.223,117.079C933.123,112.769 940.183,106.661 942.57,107.299C943.925,107.661 962.718,120.169 963.433,120.609C967.109,122.872 968.232,123.869 977.393,129.673C977.625,129.82 979.817,131.208 980.138,131.726C980.764,132.732 979.688,133.474 979.561,133.561C975.58,136.303 959.416,146.845 951.332,152.24C947.945,154.501 947.879,154.458 947.778,154.719C947.664,155.011 948.038,155.303 948.057,155.615C948.068,155.789 947.75,155.967 947.863,156.099C948.34,156.652 963.996,166.734 965.408,167.643C966.525,168.363 978.178,175.867 979.291,176.761C982.237,179.126 978.392,180.091 972.729,183.862C969.025,186.328 943.784,202.877 942.433,203.25C940.638,203.745 936.619,200.094 930.206,195.987C926.091,193.351 914.025,185.134 908.329,181.675C908.368,181.171 907.403,180.949 907.442,180.445C907.49,179.819 907.905,180.826 908.422,180.467C908.823,180.188 908.202,179.915 908.595,179.642C909.618,179.091 909.587,179.071 925.267,169.145C929.41,166.522 939.114,160 940.312,159.195C942.052,158.025 942.069,158.104 943.788,156.869C944.001,156.715 944.24,156.599 944.453,156.445C944.596,156.171 944.74,155.897 944.883,155.623Z" style="fill:rgb(57,61,64);"/>
            </g>
        </g>
        <g transform="matrix(1,0,0,1,-1120.993326,1227.901547)">
            <g transform="matrix(3.097872,0,0,3.097872,255.110809,-277.201582)">
                <path d="M895.693,230.213C881.325,220.593 875.013,216.707 872.749,215.146C870.3,213.458 871.262,212.511 873.789,210.943C882.637,205.454 905.957,189.365 906.389,189.236C907.261,188.975 907.915,188.78 916.333,194.757C917.817,195.81 917.845,195.706 919.35,196.73C941.992,212.128 943.332,211.94 943.281,213.482C943.261,214.091 943.255,214.263 937.239,218.122C923.229,227.108 923.332,227.201 909.323,236.219C906.194,238.233 905.585,236.356 895.693,230.213Z" style="fill:rgb(57,61,64);"/>
            </g>
        </g>
        <g transform="matrix(1,0,0,1,-1120.993326,1227.901547)">
            <g transform="matrix(3.097872,0,0,3.097872,255.110809,-277.201582)">
                <path d="M905.526,179.463C906.053,180.598 906.102,180.58 906.095,180.688C906.056,181.268 905.761,181.166 905.722,181.755C901.758,184.141 886.777,194.819 879.428,199.384C875.775,201.653 873.301,204.175 871.585,203.319C870.87,202.963 839.425,182.38 838.822,182.001C834.454,179.261 834.433,178.963 834.4,178.514C834.324,177.488 834.463,177.272 844.652,170.749C851.549,166.335 866.086,156.161 867.223,156.073C870.724,155.803 870.49,156.74 873.431,158.612C878.777,162.016 900.427,176.637 905.526,179.463Z" style="fill:rgb(58,62,65);"/>
            </g>
        </g>
    </g>
</svg>
