<?xml version="1.0" encoding="UTF-8" standalone="no"?>
<!DOCTYPE svg PUBLIC "-//W3C//DTD SVG 1.1//EN" "http://www.w3.org/Graphics/SVG/1.1/DTD/svg11.dtd">
<svg width="100%" height="100%" viewBox="0 0 441 430" version="1.1" xmlns="http://www.w3.org/2000/svg" xmlns:xlink="http://www.w3.org/1999/xlink" xml:space="preserve" xmlns:serif="http://www.serif.com/" style="fill-rule:evenodd;clip-rule:evenodd;stroke-linejoin:round;stroke-miterlimit:2;">
    <g transform="matrix(1,0,0,1,-597.793788,-3120.803581)">
        <g transform="matrix(1,0,0,1,-6376,3079.545126)">
            <g transform="matrix(3.507682,0,0,3.507682,4709.630672,-1137.29293)">
                <path d="M771.043,397.508C770.89,419.257 763.201,431.225 754.048,442.084C752.159,444.325 744.032,450.833 740.242,453.077C739.777,453.352 729.13,459.372 725.605,458.233C720.46,456.57 726.833,437.634 720.727,428.368C717.559,423.562 724.424,427.836 737.252,420.113C749.09,412.986 749.08,390.522 744.753,383.35C741.689,378.272 741.576,378.158 741.949,375.577C742.099,374.533 743.15,367.264 740.561,362.458C740.33,362.029 739.704,360.868 734.474,362.403C727.13,364.56 727.096,368.493 721.582,367.168C719.011,366.551 717.395,365.697 708.499,365.567C696.944,365.399 694.013,368.342 691.613,367.228C690.051,366.502 683.771,362.109 678.481,361.662C677.84,361.608 675.008,361.369 674.188,368.455C673.445,374.869 676.167,376.274 673.835,379.729C671.582,383.067 666.3,390.093 670.336,406.541C673.322,418.711 682.757,422.251 684.368,422.855C691.858,425.665 696.316,425.226 696.484,426.504C696.649,427.76 695.323,428.518 694.212,431.386C693.145,434.139 693.603,435.471 687.459,436.112C675.151,437.397 674.674,423.886 666.5,423.502C664.585,423.412 662.584,424.413 664.563,426.436C666.444,428.357 667.97,427.905 671.188,434.641C673.283,439.029 676.222,445.805 690.546,443.79C693.972,443.308 693.132,445.07 693.128,448.502C693.121,455.221 694.179,460.337 686.423,457.747C670.008,452.264 659.522,438.573 657.782,436.3C642.206,415.964 638.347,378.913 664.616,353.617C689.744,329.421 733.15,328.632 758.262,360.684C770.38,376.151 770.861,394.227 771.043,397.508Z" style="fill:rgb(55,59,63);"/>
            </g>
        </g>
    </g>
</svg>
