<?xml version="1.0" encoding="UTF-8" standalone="no"?>
<!DOCTYPE svg PUBLIC "-//W3C//DTD SVG 1.1//EN" "http://www.w3.org/Graphics/SVG/1.1/DTD/svg11.dtd">
<svg width="100%" height="100%" viewBox="0 0 471 475" version="1.1" xmlns="http://www.w3.org/2000/svg" xmlns:xlink="http://www.w3.org/1999/xlink" xml:space="preserve" xmlns:serif="http://www.serif.com/" style="fill-rule:evenodd;clip-rule:evenodd;stroke-linejoin:round;stroke-miterlimit:2;">
    <g transform="matrix(1,0,0,1,-27.71421,-1860.422935)">
        <g transform="matrix(1,0,0,1,-2802.993644,1841.897378)">
            <g transform="matrix(1.202447,0,0,1.202447,2047.906412,-295.150361)">
                <path d="M845.319,655.85C842.903,655.305 833.181,653.112 817.678,641.895C801.143,629.931 767.013,609.857 758.867,603.831C751.267,598.208 722.276,580.158 719.495,578.278C679.247,551.064 657.37,541.196 652.985,530.311C650.509,524.161 650.957,523.911 651.212,447.465C651.398,391.382 648.554,382.959 665.737,373.225C681.933,364.051 719.673,337.86 727.657,333.044C728.888,332.302 736.207,327.886 742.877,323.507C768.184,306.892 768.264,307.206 793.543,290.681C836.074,262.876 841.625,252.404 866.126,268.365C936.212,314.021 936.457,313.628 942.475,317.71C957.23,327.719 994.212,351.283 998.049,353.945C1032.578,377.903 1035.863,375.449 1040.747,388.569C1041.831,391.481 1042.386,391.513 1042.283,460.908C1042.189,524.301 1043.813,525.482 1035.96,536.093C1035.404,536.845 1036.389,538.292 966.628,582.661C949.646,593.462 949.994,593.862 933.002,604.717C858.836,652.098 859.446,654.511 845.319,655.85ZM862.533,565.696C862.489,529.268 862.133,527.913 867.656,524.003C878.666,516.207 878.208,515.714 889.222,507.85C913.682,490.386 913.611,490.317 915.779,488.861C929.276,479.794 929.198,477.961 933.949,479.616C935.885,480.29 971.032,505.887 985.238,516.993C991.365,521.783 995.224,522.464 993.994,525.559C992.961,528.159 992.642,528.069 965.44,545.747C882.582,599.597 882.25,599.064 875.141,603.889C869.171,607.941 862.308,612.913 862.334,605.929C862.471,568.834 862.531,568.914 862.533,565.696ZM830.65,356.113C830.662,385.211 831.851,388.578 825.866,392.937C821.294,396.268 773.957,430.041 769.44,433.263C759.737,440.186 758.591,435.677 742.347,424.319C738.922,421.924 701.172,395.529 699.884,393.885C696.216,389.202 700.991,389.413 731.768,368.642C751.589,355.265 785.965,334.125 824.171,308.509C830.752,304.096 830.828,309.954 830.835,310.51C830.882,314.158 830.599,314.135 830.65,356.113ZM960.118,367.882C981.249,381.064 986.03,384.844 990.819,387.675C993.305,389.144 994.386,388.367 994.734,391.247C995.136,394.575 993.537,393.944 985.557,399.904C961.63,417.778 960.928,416.704 936.938,434.516C929.351,440.149 927.418,435.331 900.749,416.457C900.18,416.054 865.931,391.476 864.822,390.282C860.51,385.64 863.359,355.945 862.486,315.786C862.398,311.716 860.443,303.299 869.958,309.396C915.251,338.419 914.739,339.072 960.118,367.882ZM830.584,568.388C830.588,571.392 830.775,571.359 830.889,605.937C830.917,614.296 819.783,604.614 815.058,601.496C809.187,597.621 808.824,598.214 741.185,553.789C708.508,532.326 708.588,532.254 705.71,530.449C704.799,529.879 694.884,526.469 703.1,520.459C715.459,511.418 715.257,511.263 727.75,502.303C759.174,479.764 759.955,476.657 766.568,480.821C767.295,481.279 800.948,505.613 803.934,507.773C829.406,526.192 829.706,527.8 830.216,530.534C830.637,532.791 830.589,565.359 830.584,568.388ZM826.524,484.932C823.898,483.053 794.716,462.169 794.002,461.033C790.875,456.056 795.129,453.983 799.76,450.459C811.936,441.195 811.732,441.023 824.498,432.556C844.752,419.12 845.88,416.603 852.736,421.369C855.385,423.21 884.317,443.321 885.757,444.515C898.737,455.284 905.817,457.3 898.269,462.659C849.594,497.217 849.434,497.156 847.723,497.388C845.774,497.652 844.191,497.867 826.524,484.932ZM727.084,452.707C731.781,457.028 733.819,458.632 728.666,462.475C710.191,476.254 709.692,475.478 691.326,489.454C682.521,496.155 683.475,487.64 683.548,485.086C683.76,477.631 683.392,426.522 683.644,425.814C685.024,421.947 689.231,425.167 689.611,425.457C692.555,427.71 692.612,427.575 727.084,452.707ZM998.823,429.229C1006.4,423.405 1006.928,423.722 1008.302,424.573C1010.46,425.908 1009.698,430.543 1009.682,431.319C1008.569,483.399 1009.904,483.349 1009.8,487.873C1009.79,488.311 1009.698,492.334 1006.617,492.336C1005.818,492.336 984.838,476.982 981.95,474.78C970.49,466.043 959.665,461.32 963.58,455.618C965.257,453.174 995.955,431.275 998.823,429.229Z" style="fill:rgb(58,62,65);"/>
            </g>
        </g>
    </g>
</svg>
