<?xml version="1.0" encoding="UTF-8" standalone="no"?>
<!DOCTYPE svg PUBLIC "-//W3C//DTD SVG 1.1//EN" "http://www.w3.org/Graphics/SVG/1.1/DTD/svg11.dtd">
<svg width="100%" height="100%" viewBox="0 0 512 512" version="1.1" xmlns="http://www.w3.org/2000/svg" xmlns:xlink="http://www.w3.org/1999/xlink" xml:space="preserve" xmlns:serif="http://www.serif.com/" style="fill-rule:evenodd;clip-rule:evenodd;stroke-linejoin:round;stroke-miterlimit:2;">
    <g transform="matrix(1,0,0,1,-1695.231482,-2474.802936)">
        <g id="pied-piper-hat" transform="matrix(1,0,0,1,-4680.831536,2474.802936)">
            <rect x="6376.063" y="0" width="512" height="512" style="fill:none;"/>
            <g transform="matrix(3.588319,0,0,3.588319,4791.124862,-1168.629356)">
                <path d="M555.52,360.454C555.539,360.768 555.762,364.357 555.78,364.38C555.928,364.573 556.29,364.36 556.504,364.477C556.754,364.615 556.806,365.127 557.091,365.102C557.413,365.073 557.781,360.988 557.814,360.627C558.502,357.562 558.345,356.867 564.343,352.293C567.081,350.205 577.683,344.305 579.275,344.991C581.48,345.941 577.803,360.958 576.03,365.309C574.097,370.054 574.178,370.408 569.611,372.695C567.336,373.834 564.163,374.115 564.177,375.575C564.205,378.34 574.317,371.533 570.937,377.709C568.58,382.015 559.685,401.525 540.569,409.761C536.102,411.686 540.173,405.52 542.217,401.362C544.981,395.736 554.504,378.503 562.789,367.666C567.691,361.255 568.544,361.128 567.7,360.262C567.093,359.638 566.376,359.548 559.837,367.784C559.232,368.547 559.37,368.623 552.711,377.652C550.902,380.105 539.886,397.926 536.762,404.621C533.634,411.325 533.427,411.466 531.611,411.926C505.965,418.432 496.723,426.354 484.526,431.541C484.213,431.674 482.984,432.197 480.909,433.755C480.767,434.763 480.508,435.335 481.509,435.124C481.863,435.049 482.136,434.734 482.491,434.66C502.504,426.819 507.132,422.536 530.548,416.679C532.813,416.113 547.38,412.47 559.522,413.212C564.225,413.5 563.127,416.611 562.14,420.417C560.451,426.931 557.493,434.129 557.014,435.293C554.152,442.256 552.485,441.289 550.571,441.013C527.04,437.619 510.185,442.251 500.511,443.575C490.014,445.012 473.905,449.257 460.504,449.097C459.348,449.083 450.062,448.973 446.882,444.251C443.911,439.84 450.172,437.292 455.221,433.172C462.944,426.869 462.645,426.296 463.507,426.295C465.36,426.292 462.887,430.884 462.766,431.499C462.739,431.635 463.078,431.665 463.052,431.801C463.172,432.236 462.548,432.036 462.666,432.461C462.688,432.542 462.874,433.213 463.433,433.179C463.851,433.154 463.964,432.382 464.382,432.356C465.89,429.926 467.312,427.021 468.81,424.7C471.408,420.678 479.152,403.119 487.22,391.317C499.52,373.327 508.546,369.42 515.508,368.925C520.137,368.596 527.309,372.08 530.538,377.476C533.102,381.762 534.45,381.908 532.527,386.512C530.117,392.28 530.233,401.19 530.505,402.497C532.197,410.629 531.815,400.367 534.288,392.44C540.029,374.036 552.295,362.657 553.893,360.945C554.631,360.154 555.496,360.462 555.52,360.454Z" style="fill:rgb(56,61,63);"/>
            </g>
        </g>
    </g>
</svg>
