<?xml version="1.0" encoding="UTF-8" standalone="no"?>
<!DOCTYPE svg PUBLIC "-//W3C//DTD SVG 1.1//EN" "http://www.w3.org/Graphics/SVG/1.1/DTD/svg11.dtd">
<svg width="100%" height="100%" viewBox="0 0 425 436" version="1.1" xmlns="http://www.w3.org/2000/svg" xmlns:xlink="http://www.w3.org/1999/xlink" xml:space="preserve" xmlns:serif="http://www.serif.com/" style="fill-rule:evenodd;clip-rule:evenodd;stroke-linejoin:round;stroke-miterlimit:2;">
    <g transform="matrix(1,0,0,1,-1170.668345,-2521.681391)">
        <g transform="matrix(1,0,0,1,-6368.993326,2474.802936)">
            <g transform="matrix(1.258848,0,0,1.258848,6681.132106,-1077.555094)">
                <path d="M696.027,921.022C705.867,895.636 705.967,894.54 710.869,893.78C717.666,892.726 717.691,893.47 796.844,893.607C1014.3,893.982 1015.288,892.411 1018.094,895.572C1020.022,897.744 1019.047,898.277 1019.28,1062.906C1019.335,1101.126 1020.049,1101.958 1015.317,1106.693C1008.436,1113.578 985.188,1138.011 978.116,1144.777C968.876,1153.618 935.953,1189.072 931.021,1191.387C927.029,1193.261 870.179,1191.408 864.138,1192.452C856.14,1193.835 822.164,1236.681 812.756,1239.258C810.687,1239.825 773.085,1239.466 772.776,1239.381C766.55,1237.658 768.409,1230.347 768.259,1199.943C768.217,1191.359 765.168,1192.207 756.529,1192.17C694.253,1191.907 683.695,1193.849 682.38,1188.898C681.782,1186.647 682.018,963.199 682.189,960.842C682.433,957.478 682.558,955.759 696.027,921.022ZM820.725,1170.064C815.477,1175.282 807.519,1185.418 807.769,1175.757C807.841,1172.97 808.631,1142.504 807.472,1140.904C805.245,1137.83 804.356,1138.725 761.902,1138.532C749.076,1138.474 739.457,1139.745 738.144,1135.327C737.58,1133.429 737.037,928.621 738.312,926.136C739.772,923.292 740.757,923.786 794.156,923.819C984.859,923.937 985.034,923.44 986.961,924.45C990.894,926.511 988.273,940.332 989.102,993.026C989.212,999.994 989.1,1054.841 989.089,1060.216C989.032,1087.791 987.752,1088.026 984.195,1091.693C983.546,1092.361 940.519,1135.677 938.492,1137.009C933.099,1140.551 858.355,1137.248 853.579,1139.07C848.747,1140.914 833.72,1157.865 820.725,1170.064Z" style="fill:rgb(56,61,64);"/>
            </g>
        </g>
        <g transform="matrix(1,0,0,1,-6368.993326,2474.802936)">
            <g transform="matrix(3.383155,0,0,3.383155,6681.132106,-1077.555094)">
                <path d="M306.081,368.5C306.162,366.949 305.476,366.68 306.641,365.652C307.33,365.044 316.297,364.843 317.064,365.815C317.472,366.332 317.468,369.203 317.467,369.5C317.42,396.96 317.787,398.026 316.866,398.884C315.842,399.837 307.329,399.45 306.768,399.104C305.923,398.581 305.992,394.869 305.999,394.496C306.026,393.055 306.082,393.058 306.081,368.5Z" style="fill:rgb(56,60,63);"/>
            </g>
        </g>
        <g transform="matrix(1,0,0,1,-6368.993326,2474.802936)">
            <g transform="matrix(3.383155,0,0,3.383155,6681.132106,-1077.555094)">
                <path d="M336.797,372.504C336.806,370.084 336.244,365.488 338.466,365.25C338.555,365.241 346.505,365.272 346.531,365.274C348.136,365.403 348.182,367.299 348.187,367.522C348.198,367.96 348.191,390.172 348.174,396.504C348.169,398.708 348.092,399.464 345.5,399.471C338.067,399.49 337.832,399.466 337.183,398.755C336.729,398.256 336.788,398.147 336.797,372.504Z" style="fill:rgb(54,58,61);"/>
            </g>
        </g>
    </g>
</svg>
