<?xml version="1.0" encoding="UTF-8" standalone="no"?>
<!DOCTYPE svg PUBLIC "-//W3C//DTD SVG 1.1//EN" "http://www.w3.org/Graphics/SVG/1.1/DTD/svg11.dtd">
<svg width="100%" height="100%" viewBox="0 0 421 408" version="1.1" xmlns="http://www.w3.org/2000/svg" xmlns:xlink="http://www.w3.org/1999/xlink" xml:space="preserve" xmlns:serif="http://www.serif.com/" style="fill-rule:evenodd;clip-rule:evenodd;stroke-linejoin:round;stroke-miterlimit:2;">
    <g transform="matrix(1,0,0,1,-614.613004,-667.970678)">
        <g transform="matrix(1,0,0,1,-2802.993644,615.951026)">
            <g transform="matrix(1.276762,0,0,1.276762,2022.821307,52.019651)">
                <path d="M1108.088,319.002C1102.656,319.025 1102.755,319.029 1097.397,319.194C1092.327,319.349 1092.398,316.008 1094.122,314.358C1097.694,310.941 1203.282,193.36 1212.75,182.816C1219.425,175.383 1214.281,173.91 1195.177,147.181C1144.118,75.746 1143.298,76.38 1117.54,38.738C1095.944,7.178 1085.599,0.348 1097.36,0.815C1127.152,1.998 1190.947,-0.434 1194.554,2.078C1198.172,4.598 1245.458,72.656 1259.34,90.987C1270.599,105.854 1274.567,115.751 1279.542,112.31C1279.909,112.056 1333.121,52.13 1349.242,34.515C1374.343,7.088 1375.776,0.521 1387.573,0.342C1409.412,0.009 1409.732,-0.446 1410.938,0.983C1412.795,3.183 1409.692,5.769 1408.08,7.437C1397.599,18.28 1392.985,24.295 1389.017,28.633C1384.865,33.173 1299.778,128.138 1297.592,130.681C1292.488,136.617 1293.407,138.06 1300.877,148.47C1304.84,153.994 1345.828,211.119 1350.617,217.365C1350.652,217.41 1417.68,310.751 1420.728,314.199C1424.11,318.025 1419.762,319.32 1419.637,319.339C1416.347,319.832 1333.278,319.209 1325.769,319.153C1317.546,319.091 1317.331,317.658 1299.587,292.635C1299.01,291.82 1256.639,232.35 1251.369,225.317C1235.38,203.976 1234.562,197.19 1228.499,203.909C1225.028,207.756 1186.682,250.247 1185.089,251.978C1158.551,280.826 1134.743,307.769 1130.416,312.666C1123.227,320.801 1121.842,319.075 1108.088,319.002ZM1296.053,242.17C1229.853,149.986 1229.353,150.418 1163.072,58.346C1161.433,56.07 1142.634,29.956 1142.615,29.866C1142.437,29.002 1143.255,25.771 1143.501,25.643C1143.58,25.602 1174.579,25.473 1178.164,26.076C1179.411,26.286 1181.593,26.652 1188.965,37.624C1206.412,63.591 1345.81,253.995 1364.485,281.62C1365.67,283.374 1377.71,295.07 1366.226,294.269C1359.197,293.778 1337.887,295.013 1333.788,293.189C1330.442,291.7 1305.531,254.85 1296.053,242.17Z" style="fill:rgb(54,57,62);"/>
            </g>
        </g>
    </g>
</svg>
