<?xml version="1.0" encoding="UTF-8" standalone="no"?>
<!DOCTYPE svg PUBLIC "-//W3C//DTD SVG 1.1//EN" "http://www.w3.org/Graphics/SVG/1.1/DTD/svg11.dtd">
<svg width="100%" height="100%" viewBox="0 0 450 435" version="1.1" xmlns="http://www.w3.org/2000/svg" xmlns:xlink="http://www.w3.org/1999/xlink" xml:space="preserve" xmlns:serif="http://www.serif.com/" style="fill-rule:evenodd;clip-rule:evenodd;stroke-linejoin:round;stroke-miterlimit:2;">
    <g transform="matrix(1,0,0,1,-5848.069692,-1930.904534)">
        <g transform="matrix(1,0,0,1,-2809.930308,1891.897378)">
            <g transform="matrix(3.697524,0,0,3.697524,8440.627628,-390.382006)">
                <path d="M163.083,189.497C163.062,229.803 163.307,230.014 162.276,231.344C160.633,233.464 160.23,233.612 140.5,233.527C134.87,233.502 131.875,233.999 131.705,231.478C131.477,228.106 132.1,201.208 131.28,199.583C130.179,197.4 129.455,197.74 114.506,197.794C109.539,197.812 107.802,197.423 107.79,202.502C107.722,230.862 108.421,232.299 106.427,233.296C105.792,233.613 81.083,233.756 79.584,233.23C75.44,231.779 76.174,229.534 76.164,211.5C76.148,183.241 76.071,183.087 76.972,181.838C78.324,179.962 78.545,180.17 97.815,161.811C99.489,160.217 118.622,141.989 118.754,141.904C120.521,140.779 120.579,142.194 142.357,162.653C143.223,163.466 143.213,163.464 153.141,172.859C162.2,181.431 162.269,181.411 162.674,182.412C163.24,183.81 163.081,188.361 163.083,189.497Z" style="fill:rgb(56,59,63);"/>
            </g>
        </g>
        <g transform="matrix(1,0,0,1,-2809.930308,1891.897378)">
            <g transform="matrix(3.697524,0,0,3.697524,8440.627628,-390.382006)">
                <path d="M119.471,116.129C120.56,116.41 120.695,116.087 122.57,117.412C123.035,117.741 142.147,135.921 142.198,135.975C142.325,136.111 143.668,137.536 144.468,136.483C144.606,136.301 144.429,133.65 144.427,133.498C144.325,125.879 143.977,123.871 149.501,123.855C157.645,123.83 159.597,123.579 160.814,125.311C162.266,127.378 160.317,153.048 161.927,155.133C162.099,155.355 176.155,168.463 177.395,169.619C181.988,173.902 181.191,175.302 176.853,179.844C173.197,183.672 172.067,181.787 165.449,175.554C149.353,160.394 149.514,160.23 148.08,158.948C146.094,157.173 146.107,157.162 123.896,136.051C120.451,132.776 119.914,131.567 117.68,133.687C81.771,167.754 81.913,167.85 78.777,170.794C68.394,180.542 66.692,184.035 62.812,180.199C57.798,175.244 57.718,173.489 61.202,170.191C100.897,132.603 100.816,132.525 104.295,129.286C116.227,118.174 115.827,117.517 119.471,116.129Z" style="fill:rgb(55,58,62);"/>
            </g>
        </g>
    </g>
</svg>
