<?xml version="1.0" encoding="UTF-8" standalone="no"?>
<!DOCTYPE svg PUBLIC "-//W3C//DTD SVG 1.1//EN" "http://www.w3.org/Graphics/SVG/1.1/DTD/svg11.dtd">
<svg width="100%" height="100%" viewBox="0 0 450 351" version="1.1" xmlns="http://www.w3.org/2000/svg" xmlns:xlink="http://www.w3.org/1999/xlink" xml:space="preserve" xmlns:serif="http://www.serif.com/" style="fill-rule:evenodd;clip-rule:evenodd;stroke-linejoin:round;stroke-miterlimit:2;">
    <g transform="matrix(1,0,0,1,-5286.069692,-696.900405)">
        <g transform="matrix(1,0,0,1,-2810,615.951026)">
            <g transform="matrix(5.849419,0,0,5.849419,3031.20982,-772.892396)">
                <path d="M919.173,180.187C909.057,190.578 908.834,190.309 898.721,200.721C894.462,205.107 893.919,207.55 890.604,204.39C890.414,204.21 875.93,189.434 872.714,186.275C865.756,179.439 865.755,179.241 865.912,178.551C866.294,176.876 870.338,173.768 872,172.018C874.591,169.289 875.379,167.841 877.816,170.148C880.785,172.96 891.483,184.495 892.439,184.7C894.336,185.108 894.163,184.151 910.711,167.72C931.558,147.021 931.652,144.467 934.435,146.578C935.02,147.022 934.905,147.135 940.923,153.064C942.889,155.001 943.822,155.73 941.161,158.113C936.84,161.982 923.034,176.251 919.173,180.187Z" style="fill:rgb(55,60,62);"/>
            </g>
        </g>
    </g>
</svg>
