<?xml version="1.0" encoding="UTF-8" standalone="no"?>
<!DOCTYPE svg PUBLIC "-//W3C//DTD SVG 1.1//EN" "http://www.w3.org/Graphics/SVG/1.1/DTD/svg11.dtd">
<svg width="100%" height="100%" viewBox="0 0 453 450" version="1.1" xmlns="http://www.w3.org/2000/svg" xmlns:xlink="http://www.w3.org/1999/xlink" xml:space="preserve" xmlns:serif="http://www.serif.com/" style="fill-rule:evenodd;clip-rule:evenodd;stroke-linejoin:round;stroke-miterlimit:2;">
    <g transform="matrix(1,0,0,1,-7532.733043,-31)">
        <g transform="matrix(1,0,0,1,-1682.930308,0)">
            <g transform="matrix(1.339926,0,0,1.339926,6184.4114,-375.331135)">
                <path d="M2420.167,303.5C2438.576,303.1 2444.583,302.321 2474.162,309.094C2517.405,318.995 2553.683,352.201 2569.539,375.662C2631.759,467.723 2583.46,553.453 2560.1,579.386C2497.401,648.993 2424.459,639.817 2404.121,637.235C2377.511,633.856 2346.788,617.316 2339.04,612.093C2319.247,598.752 2256.548,552.301 2262.672,458.297C2267.209,388.662 2322.282,312.646 2420.167,303.5ZM2470.277,484.252C2443.09,512.177 2442.492,511.455 2415.313,539.438C2403.866,551.224 2402.408,557.791 2393.497,549.298C2392.989,548.813 2354.062,509.103 2345.42,500.613C2326.718,482.242 2326.717,481.709 2327.14,479.856C2328.166,475.354 2339.034,467.001 2343.501,462.297C2350.463,454.965 2352.582,451.072 2359.13,457.274C2367.109,464.83 2395.861,495.829 2398.431,496.381C2403.529,497.477 2403.064,494.906 2447.536,450.748C2503.562,395.12 2503.815,388.255 2511.294,393.929C2512.865,395.122 2512.556,395.426 2528.731,411.36C2534.015,416.566 2536.523,418.526 2529.371,424.929C2517.758,435.326 2480.653,473.675 2470.277,484.252Z" style="fill:rgb(55,60,62);"/>
            </g>
        </g>
    </g>
</svg>
