<?xml version="1.0" encoding="UTF-8" standalone="no"?>
<!DOCTYPE svg PUBLIC "-//W3C//DTD SVG 1.1//EN" "http://www.w3.org/Graphics/SVG/1.1/DTD/svg11.dtd">
<svg width="100%" height="100%" viewBox="0 0 376 450" version="1.1" xmlns="http://www.w3.org/2000/svg" xmlns:xlink="http://www.w3.org/1999/xlink" xml:space="preserve" xmlns:serif="http://www.serif.com/" style="fill-rule:evenodd;clip-rule:evenodd;stroke-linejoin:round;stroke-miterlimit:2;">
    <g transform="matrix(1,0,0,1,-7009.403468,-1308.901547)">
        <g transform="matrix(1,0,0,1,-1685.930308,1277.901547)">
            <g transform="matrix(3.638907,0,0,3.638907,7733.894362,-1194.078425)">
                <path d="M318.624,337.188C328.709,341.944 322.374,349.131 326.37,350.775C331.181,352.754 340.61,354.878 349.114,368.731C355.58,379.265 353.641,390.812 354.143,412.513C354.342,421.144 367.44,430.878 367.355,435.496C367.278,439.698 362.079,439.723 361.501,439.726C326.002,439.896 277.778,439.731 270.498,439.706C265.528,439.689 262.057,436.833 265.763,431.676C269.013,427.154 277.22,420.058 277.441,412.498C278.302,383.102 275.802,380.657 283.88,366.736C286.534,362.163 294.309,355.57 297.747,353.986C305.565,350.385 306.713,351.086 306.864,348.526C306.871,348.4 305.847,341.333 311.731,337.903C311.94,337.781 313.087,337.113 314.561,336.834C316.591,336.45 316.572,336.767 318.624,337.188Z" style="fill:rgb(56,60,63);"/>
            </g>
        </g>
        <g transform="matrix(1,0,0,1,-1685.930308,1277.901547)">
            <g transform="matrix(3.638907,0,0,3.638907,7733.894362,-1194.078425)">
                <path d="M312.398,459.875C310.88,459.296 310.879,459.368 309.401,458.732C302.176,455.621 299.237,447.21 300.782,445.794C301.24,445.374 305.122,445.418 305.5,445.422C314.798,445.528 329.826,445.185 330.436,445.619C332.35,446.982 330.074,455.326 322.562,458.644C317.291,460.972 315.258,460.352 312.398,459.875Z" style="fill:rgb(56,60,64);"/>
            </g>
        </g>
    </g>
</svg>
