<?xml version="1.0" encoding="UTF-8" standalone="no"?>
<!DOCTYPE svg PUBLIC "-//W3C//DTD SVG 1.1//EN" "http://www.w3.org/Graphics/SVG/1.1/DTD/svg11.dtd">
<svg width="100%" height="100%" viewBox="0 0 450 450" version="1.1" xmlns="http://www.w3.org/2000/svg" xmlns:xlink="http://www.w3.org/1999/xlink" xml:space="preserve" xmlns:serif="http://www.serif.com/" style="fill-rule:evenodd;clip-rule:evenodd;stroke-linejoin:round;stroke-miterlimit:2;">
    <g transform="matrix(1,0,0,1,-5848.069692,-37.249502)">
        <g transform="matrix(1,0,0,1,-364.930308,6.249502)">
            <g transform="matrix(3.573057,0,0,3.599376,6010.910581,-374.675055)">
                <path d="M162.512,153.913C169.785,153.884 172.931,153.636 175.41,154.709C183.531,158.224 182.483,163.55 182.431,181.5C182.36,205.697 183.617,207.861 176.68,211.83C171.5,214.795 161.491,212.172 159.688,213.71C158.521,214.704 159.366,222.381 158.996,230.508C158.639,238.36 155.728,237.729 141.5,237.709C86.794,237.631 85.971,237.998 83.307,236.997C78.064,235.026 80.365,226.772 79.927,215.465C79.811,212.463 76.695,213.305 69.501,213.234C55.255,213.093 56.589,202.423 56.595,196.5C56.627,162.164 56.272,161.88 58.097,159.236C62.717,152.54 69.121,154.029 77.515,153.909C78.741,153.891 80.08,153.772 80.042,151.508C80.016,149.987 79.81,137.803 79.976,132.499C80.385,119.401 78.845,116.517 82.657,113.726C84.305,112.519 84.527,112.825 119.501,112.752C134.124,112.721 134.625,112.246 137.725,115.269C152.553,129.731 157.57,134.78 158.188,135.691C159.888,138.198 158.569,149.698 159.109,152.614C159.42,154.293 162.228,153.908 162.512,153.913ZM94.505,153.914C100.901,153.904 146.268,153.898 147.488,153.926C150.246,153.989 151.236,154.272 151.276,151.503C151.414,142.141 151.183,141.935 150.578,141.396C149.546,140.478 136.238,141.682 133.438,140.655C128.716,138.922 130.563,130.256 130.224,122.523C130.125,120.27 127.554,120.663 126.502,120.665C113.121,120.685 90.162,120.628 89.531,120.719C87.287,121.042 87.818,124.851 87.82,127.499C87.836,152.649 87.659,152.861 88.441,153.578C88.795,153.902 94.019,153.913 94.505,153.914ZM91.501,229.952C125.994,229.861 149.188,229.974 149.568,229.909C151.791,229.53 151.223,225.827 151.222,223.508C151.195,192.346 151.336,192.135 150.56,191.421C150.013,190.917 149.872,191.023 104.5,191.072C89.309,191.089 88.481,190.518 87.88,192.556C87.659,193.305 87.844,224.701 87.861,227.496C87.877,230.23 88.799,230.034 91.501,229.952ZM95.837,219.496C95.935,215.884 95.728,215.827 96.175,215.278C97.059,214.191 98.897,214.44 100.499,214.428C102.579,214.414 121.204,214.281 126.502,214.475C128.376,214.543 128.621,215.596 128.717,216.476C129.25,221.332 127.817,221.875 127.389,222.037C127.055,222.163 100.807,222.129 99.502,222.119C97.169,222.1 96.444,222.685 95.861,220.446C95.782,220.14 95.916,219.803 95.837,219.496ZM95.819,203.495C96.001,200.292 95.287,198.896 98.5,198.983C107.184,199.217 141.028,198.619 142.606,199.317C143.861,199.873 144.038,205.619 142.399,206.236C140.647,206.897 102.014,206.43 98.502,206.388C95.466,206.351 95.946,205.172 95.819,203.495ZM164.475,174.903C165.025,174.828 165.98,175.257 168.494,173.493C172.169,170.914 170.433,162.579 163.421,164.14C158.068,165.332 158.011,173.298 163.431,174.741C163.771,174.831 164.134,174.812 164.475,174.903Z" style="fill:rgb(54,59,62);"/>
            </g>
        </g>
    </g>
</svg>
