<?xml version="1.0" encoding="UTF-8" standalone="no"?>
<!DOCTYPE svg PUBLIC "-//W3C//DTD SVG 1.1//EN" "http://www.w3.org/Graphics/SVG/1.1/DTD/svg11.dtd">
<svg width="100%" height="100%" viewBox="0 0 450 427" version="1.1" xmlns="http://www.w3.org/2000/svg" xmlns:xlink="http://www.w3.org/1999/xlink" xml:space="preserve" xmlns:serif="http://www.serif.com/" style="fill-rule:evenodd;clip-rule:evenodd;stroke-linejoin:round;stroke-miterlimit:2;">
    <g transform="matrix(1,0,0,1,-5284.799545,-42.980943)">
        <g transform="matrix(1,0,0,1,-364.930308,0)">
            <g transform="matrix(3.076659,0,0,3.094027,3083.055474,-977.458391)">
                <path d="M859.556,377.908C869.774,376.44 869.818,376.971 879.468,375.301C883.375,374.624 884.101,375.26 885.89,371.687C887.492,368.488 904.6,334.33 905.679,331.59C907.415,327.185 908.711,332.014 910.153,334.688C912.763,339.524 925.978,367.33 929.059,372.742C930.186,374.721 930.405,375.059 941.526,376.277C954.82,377.732 973.619,380.452 978.597,381.143C982.946,381.748 979.263,383.697 973.478,389.477C968.248,394.701 946.621,415.236 946.428,415.424C942.963,418.798 944.86,419.546 946.307,428.532C948.086,439.577 948.358,439.511 950.06,450.568C952.217,464.577 955.141,469.159 950.37,466.868C942.651,463.161 942.951,462.661 935.307,458.869C911.362,446.991 908.813,444.063 906.509,444.536C905.534,444.736 882.29,457.551 875.623,460.766C863.884,466.428 860.694,469.92 861.624,465.516C861.772,464.817 861.946,464.123 862.073,463.419C864.738,448.649 864.801,448.7 865.019,447.417C867.997,429.96 868.043,429.984 868.277,428.463C869.455,420.807 870.648,419.303 869.763,417.354C869.25,416.224 848.25,396.654 842.263,390.736C835.307,383.86 834.246,383.245 834.241,382.495C834.23,380.93 835.234,381.608 859.556,377.908Z" style="fill:rgb(58,62,65);"/>
            </g>
        </g>
    </g>
</svg>
