<?xml version="1.0" encoding="UTF-8" standalone="no"?>
<!DOCTYPE svg PUBLIC "-//W3C//DTD SVG 1.1//EN" "http://www.w3.org/Graphics/SVG/1.1/DTD/svg11.dtd">
<svg width="100%" height="100%" viewBox="0 0 489 450" version="1.1" xmlns="http://www.w3.org/2000/svg" xmlns:xlink="http://www.w3.org/1999/xlink" xml:space="preserve" xmlns:serif="http://www.serif.com/" style="fill-rule:evenodd;clip-rule:evenodd;stroke-linejoin:round;stroke-miterlimit:2;">
    <g transform="matrix(1,0,0,1,-5828.59778,-646.951026)">
        <g transform="matrix(1,0,0,1,-2809.930308,615.951026)">
            <g transform="matrix(3.967236,0,0,3.967236,8408.671767,-1325.039831)">
                <path d="M132.951,378.501C132.966,385.815 132.435,387.304 135.502,387.33C148.681,387.444 155.43,386.342 155.446,390.5C155.456,393.08 154.343,392.617 143.3,404.311C141.189,406.546 139.384,407.93 132.481,415.482C131.085,417.008 122.723,425.415 122.564,425.566C117.681,430.221 116.015,424.611 102.116,410.883C100.828,409.61 91.512,400.409 86.254,394.724C85.907,394.349 82.529,390.697 84.563,388.561C87.266,385.724 104.587,388.679 105.614,386.577C106.476,384.81 105.475,348.464 106.284,345.44C107.348,341.463 109.698,341.746 126.495,341.866C135.119,341.928 132.659,346.966 133.017,363.498C133.043,364.698 132.956,364.679 132.951,378.501Z" style="fill:rgb(56,60,63);"/>
            </g>
        </g>
        <g transform="matrix(1,0,0,1,-2809.930308,615.951026)">
            <g transform="matrix(3.967236,0,0,3.967236,8408.671767,-1325.039831)">
                <path d="M58.051,421.503C58.249,417.223 58.319,415.929 63.498,415.921C66.813,415.917 71.531,415.722 72.404,416.594C73.868,418.056 72.623,436.887 73.24,438.612C73.751,440.043 77.924,439.672 79.502,439.676C86.303,439.691 163.39,439.867 164.525,439.637C166.827,439.169 165.97,434.295 165.962,425.499C165.956,419.176 165.089,415.979 169.503,415.924C178.541,415.811 180.99,415.526 181.145,419.512C181.229,421.678 181.152,443.421 181.144,445.5C181.141,446.48 181.114,454.12 173.457,455.046C170.284,455.429 170.283,455.131 133.501,455.085C65.967,455.001 65.866,455.44 63.471,454.579C58.028,452.621 57.98,446.343 57.973,445.494C57.959,443.575 57.87,431.989 58.051,421.503Z" style="fill:rgb(56,60,64);"/>
            </g>
        </g>
    </g>
</svg>
