<?xml version="1.0" encoding="UTF-8" standalone="no"?>
<!DOCTYPE svg PUBLIC "-//W3C//DTD SVG 1.1//EN" "http://www.w3.org/Graphics/SVG/1.1/DTD/svg11.dtd">
<svg width="100%" height="100%" viewBox="0 0 450 402" version="1.1" xmlns="http://www.w3.org/2000/svg" xmlns:xlink="http://www.w3.org/1999/xlink" xml:space="preserve" xmlns:serif="http://www.serif.com/" style="fill-rule:evenodd;clip-rule:evenodd;stroke-linejoin:round;stroke-miterlimit:2;">
    <g transform="matrix(1,0,0,1,-11479.676456,-12354.445489)">
        <g transform="matrix(1,0,0,1,-11244.323544,12298.95884)">
            <g transform="matrix(2.735664,0,0,2.735664,22623.421011,-207.110119)">
                <path d="M116.241,145.305C111.254,152.099 106.157,158.276 105.525,158.545C104.127,159.14 103.969,158.983 87.645,152.149C87.279,151.996 81.504,149.32 74.499,146.503C66.549,143.307 66.424,143.353 66.136,142.676C65.634,141.494 66.985,140.345 68.401,138.426C72.184,133.301 77.367,129.048 76.424,126.539C76.122,125.736 66.21,114.038 66.071,113.68C65.08,111.123 68.915,110.636 76.412,107.312C77.347,106.898 99.38,97.824 103.425,96.314C106.244,95.262 106.432,96.475 113.56,104.446C116.314,107.526 118.858,111.892 120.482,109.483C120.881,108.89 131.121,96.733 132.369,96.248C134.368,95.469 140.078,98.332 159.567,106.338C160.583,106.756 171.411,111.204 172.106,111.936C173.281,113.174 171.962,114.132 164.35,123.379C161.906,126.349 160.689,126.834 163.099,129.833C172.23,141.198 172.483,141.215 172.335,142.458C172.26,143.085 172.169,143.225 165.292,146.026C151.369,151.697 151.421,151.765 137.542,157.595C137.228,157.727 134.37,158.927 133.439,158.729C132.219,158.47 128.254,152.91 125.434,149.554C120.122,143.231 120.776,142.824 120.828,142.646C121.168,141.48 129.298,138.944 135.343,136.147C135.897,135.891 135.911,135.944 142.383,133.219C148.752,130.536 152.742,129.037 153.651,128.695C154.432,128.402 154.531,128.361 154.502,127.5C154.46,126.234 153.843,126.699 151.727,126.016C151.146,125.828 151.198,125.719 144.711,123.02C142.859,122.249 124.74,114.71 121.637,113.194C118.752,111.785 116.667,113.275 112.635,114.853C107.329,116.931 107.497,117.267 96.54,121.595C93.308,122.872 88.48,125.328 84.529,126.548C83.223,126.951 83.452,128.205 84.422,128.598C87.55,129.866 87.559,129.758 90.681,131.085C102.763,136.223 114.362,140.815 116.432,141.635C118.611,142.497 116.87,144.508 116.241,145.305Z" style="fill:rgb(57,62,65);"/>
            </g>
        </g>
        <g transform="matrix(1,0,0,1,-11244.323544,12298.95884)">
            <g transform="matrix(2.735664,0,0,2.735664,22623.421011,-207.110119)">
                <path d="M123.622,194.77C128.691,192.637 141.691,187.288 142.654,186.971C145.532,186.025 151.372,189.306 151.527,189.476C152.189,190.195 152.158,190.343 152.162,215.499C152.166,241.88 152.356,242.287 151.516,242.528C150.069,242.942 144.553,240.175 139.331,237.913C122.695,230.704 121.305,231.511 121.174,228.528C121.041,225.498 121.168,201.825 121.18,199.503C121.196,196.538 121.131,196.209 123.622,194.77Z" style="fill:rgb(58,64,65);"/>
            </g>
        </g>
        <g transform="matrix(1,0,0,1,-11244.323544,12298.95884)">
            <g transform="matrix(2.735664,0,0,2.735664,22623.421011,-207.110119)">
                <path d="M176.658,206.834C178.522,205.966 178.492,205.963 180.398,205.243C188.213,202.292 191.018,199.943 191.263,202.542C191.435,204.371 191.254,204.365 191.21,225.502C191.203,228.765 190.529,229.101 185.36,231.111C180.511,232.996 173.767,235.968 171.617,236.815C157.938,242.209 156.857,243.869 156.248,241.585C156.042,240.812 156.311,201.491 156.025,198.207C155.975,197.626 155.904,197.464 156.461,197.423C157.698,197.333 157.662,197.624 158.23,198.703C159.129,200.413 158.982,200.483 163.936,208.228C165.804,211.149 166.447,211.145 169.609,209.741C173.107,208.189 173.123,208.278 176.658,206.834Z" style="fill:rgb(58,63,65);"/>
            </g>
        </g>
        <g transform="matrix(1,0,0,1,-11244.323544,12298.95884)">
            <g transform="matrix(2.735664,0,0,2.735664,22623.421011,-207.110119)">
                <path d="M47.1,217.497C47.058,201.76 47.091,201.662 47.415,201.407C48.337,200.682 53.025,203.385 55.561,204.354C68.051,209.129 70.706,211.223 72.564,210.645C73.677,210.3 79.844,199.931 80.202,199.24C82.279,195.228 82.457,199.327 82.446,199.507C81.878,208.933 82.236,216.892 82.205,240.486C82.202,242.599 81.219,242.897 79.608,242.226C78.484,241.757 69.106,237.851 65.581,236.312C52.613,230.655 52.487,230.964 48.693,229.103C46.642,228.097 47.104,225.596 47.1,217.497Z" style="fill:rgb(58,63,66);"/>
            </g>
        </g>
        <g transform="matrix(1,0,0,1,-11244.323544,12298.95884)">
            <g transform="matrix(2.735664,0,0,2.735664,22623.421011,-207.110119)">
                <path d="M120.925,151.664C121.917,151.621 122.072,151.253 122.707,152.039C123.909,153.529 123.807,153.581 124.974,155.089C131.2,163.136 131.637,163.169 132.523,163.237C133.83,163.338 154.69,154.56 156.598,153.757C156.769,153.685 158.413,152.993 158.838,154.354C158.912,154.595 158.918,158.169 158.918,158.501C158.933,169.296 159.178,174.321 158.384,175.415C157.229,177.006 145.748,181.382 144.612,181.815C140.778,183.277 132.011,187.174 130.578,187.694C125.64,189.485 122.646,191.852 121.48,190.516C120.719,189.644 121.697,160.882 120.925,151.664Z" style="fill:rgb(57,63,64);"/>
            </g>
        </g>
        <g transform="matrix(1,0,0,1,-11244.323544,12298.95884)">
            <g transform="matrix(2.735664,0,0,2.735664,22623.421011,-207.110119)">
                <path d="M117.188,167.5C117.205,190.262 117.288,190.502 116.688,190.774C115.28,191.414 114.185,190.163 107.487,187.535C105.952,186.932 106.066,186.67 88.507,179.482C81.347,176.551 79.417,176.49 79.41,172.499C79.408,171.06 79.384,156.467 79.56,154.515C79.725,152.673 82.432,154.046 82.654,154.159C83.086,154.378 104.11,163.137 105.518,163.31C107.424,163.544 109.488,159.693 113.27,155.303C115.199,153.064 115.373,151.626 116.498,151.561C117.772,151.486 117.199,152.349 117.188,167.5Z" style="fill:rgb(57,62,64);"/>
            </g>
        </g>
        <g transform="matrix(1,0,0,1,-11244.323544,12298.95884)">
            <g transform="matrix(2.735664,0,0,2.735664,22623.421011,-207.110119)">
                <path d="M85.956,197.672C86.153,197.654 86.343,197.583 86.54,197.564C88.144,197.413 87.688,198.273 90.915,203.235C91.23,203.718 93.941,207.887 94.871,209.258C96.887,212.232 99.321,209.995 102.579,208.706C103.548,208.322 113.544,204.366 114.626,203.776C114.798,203.682 116.532,202.737 117.08,203.732C117.232,204.01 117.202,207.192 117.199,207.493C117.158,211.839 117.202,227.174 117.173,228.474C117.121,230.795 116.2,230.942 106.607,234.774C88.08,242.176 86.938,243.871 86.328,241.558C85.971,240.201 86.646,205.871 85.956,197.672Z" style="fill:rgb(57,62,64);"/>
            </g>
        </g>
        <g transform="matrix(1,0,0,1,-11244.323544,12298.95884)">
            <g transform="matrix(2.735664,0,0,2.735664,22623.421011,-207.110119)">
                <path d="M43.693,195.054C41.06,193.813 41.03,193.975 38.356,192.789C36.021,191.754 36.586,190.959 37.956,188.812C38.577,187.84 43.254,180.514 45.811,176.727C47.171,174.713 48.053,175.485 61.604,181.233C78.702,188.484 78.838,188.115 80.258,188.879C82.223,189.935 79.136,194.148 78.761,194.675C75.19,199.697 72.694,205.641 70.529,205.846C68.819,206.009 54.005,199.087 43.693,195.054Z" style="fill:rgb(59,63,66);"/>
            </g>
        </g>
        <g transform="matrix(1,0,0,1,-11244.323544,12298.95884)">
            <g transform="matrix(2.735664,0,0,2.735664,22623.421011,-207.110119)">
                <path d="M174.558,203.62C169.077,206.2 167.592,206.559 165.961,204.174C165.373,203.315 165.427,203.297 158.862,193.269C157.119,190.608 156.512,189.555 159.459,188.403C180.929,180.01 189.815,175.227 191.409,175.72C192.389,176.023 192.571,177.398 200.118,188.755C201.668,191.087 201.862,191.932 199.294,193.029C176.976,202.558 176.971,202.532 174.558,203.62Z" style="fill:rgb(58,63,65);"/>
            </g>
        </g>
        <g transform="matrix(1,0,0,1,-11244.323544,12298.95884)">
            <g transform="matrix(2.735664,0,0,2.735664,22623.421011,-207.110119)">
                <path d="M104.638,203.78C101.576,205.1 98.204,206.945 96.835,205.21C96.149,204.342 96.323,204.239 89.145,193.711C88.585,192.89 85.61,189.7 88.505,188.509C93.335,186.523 93.558,185.852 98.374,187.839C99.823,188.437 115.267,194.809 116.312,195.72C118.515,197.641 115.588,198.984 115.332,199.101C114.483,199.49 114.436,199.351 104.638,203.78Z" style="fill:rgb(58,64,65);"/>
            </g>
        </g>
        <g transform="matrix(1,0,0,1,-11244.323544,12298.95884)">
            <g transform="matrix(2.735664,0,0,2.735664,22623.421011,-207.110119)">
                <path d="M169.387,180.262C154.53,186.573 154.39,186.41 153.579,186.184C153.255,186.093 148.287,184.705 150.407,183.425C152.285,182.291 161.898,179.461 162.574,177.529C163.1,176.029 162.455,164.444 162.884,163.747C163.774,162.296 168.87,165.333 174.532,167.408C176.896,168.275 182.965,170.787 183.695,171.089C185.118,171.678 185.375,171.339 185.899,172.34C186.606,173.692 185.723,173.563 184.343,174.178C182.597,174.957 173.274,178.584 169.387,180.262Z" style="fill:rgb(58,63,65);"/>
            </g>
        </g>
        <g transform="matrix(1,0,0,1,-11244.323544,12298.95884)">
            <g transform="matrix(2.735664,0,0,2.735664,22623.421011,-207.110119)">
                <path d="M76.56,183.368C74.816,182.613 74.557,182.501 54.619,174.247C53.074,173.607 52.229,174.126 52.363,172.469C52.439,171.541 55.168,170.857 55.579,170.715C67.753,166.515 73.922,162.696 75.162,163.853C75.687,164.342 75.444,164.48 75.568,175.499C75.605,178.851 77.498,178.927 79.375,179.768C86.509,182.962 86.604,182.707 87.22,182.99C89.923,184.232 86.714,185.458 86.517,185.533C84.318,186.373 84.078,186.684 76.56,183.368Z" style="fill:rgb(58,64,65);"/>
            </g>
        </g>
    </g>
</svg>
