<?xml version="1.0" encoding="UTF-8" standalone="no"?>
<!DOCTYPE svg PUBLIC "-//W3C//DTD SVG 1.1//EN" "http://www.w3.org/Graphics/SVG/1.1/DTD/svg11.dtd">
<svg width="100%" height="100%" viewBox="0 0 450 444" version="1.1" xmlns="http://www.w3.org/2000/svg" xmlns:xlink="http://www.w3.org/1999/xlink" xml:space="preserve" xmlns:serif="http://www.serif.com/" style="fill-rule:evenodd;clip-rule:evenodd;stroke-linejoin:round;stroke-miterlimit:2;">
    <g transform="matrix(1,0,0,1,-13716,-650.029522)">
        <g transform="matrix(1,0,0,1,-2810,615.951026)">
            <g transform="matrix(3.580996,0,0,3.580996,16322.924586,-1170.20369)">
                <path d="M163.214,377.633C161.913,375.067 157.095,363.74 145.76,356.111C144.428,355.214 135.585,349.262 127.41,347.961C85.791,341.339 70.373,375.666 68.322,386.465C64.556,406.289 71.999,418.771 73.836,422.329C77.334,429.1 86.012,436.55 86.809,437.102C99.074,445.591 108.569,447.946 121.47,447.125C125.175,446.889 125.873,446.172 127.766,449.347C130.776,454.396 131.187,454.097 131.425,454.546C131.579,454.837 131.44,456.055 131.284,456.205C130.119,457.333 116.391,458.69 109.484,457.628C107.113,457.263 86.872,455.146 70.747,436.298C59.903,423.624 57.258,408.697 56.96,404.461C55.846,388.606 58.755,381.19 59.607,378.533C61.617,372.261 73.746,339.906 113.498,336.469C129.885,335.052 145.33,342.854 149.397,345.66C165.066,356.47 169.717,366.851 171.249,369.632C176.469,379.107 178.825,394.305 177.762,402.542C177.236,406.621 176.665,408.361 174.806,407.044C168.495,402.571 167.482,403.108 167.302,400.517C166.814,393.52 168.173,393.298 164.322,380.562C165.649,379.475 167.086,379.291 167.562,374.503C167.595,374.178 167.965,370.453 167.896,370.437C167.376,370.312 166.952,370.942 166.468,371.169C166.177,371.305 165.708,371.234 165.572,371.525C165.476,371.732 165.94,371.781 165.151,374.342C164.551,376.293 164.796,376.357 164.692,376.5C164.326,377.001 163.58,377.132 163.214,377.633Z" style="fill:rgb(56,60,62);"/>
            </g>
        </g>
        <g transform="matrix(1,0,0,1,-2810,615.951026)">
            <g transform="matrix(3.580996,0,0,3.580996,16322.924586,-1170.20369)">
                <path d="M111.504,402.06C109.904,402.023 99.579,401.781 91.499,402.042C82.798,402.323 84.971,395.262 87.692,393.942C89.533,393.049 110.476,393.707 111.495,393.481C113.181,393.108 112.859,392.1 112.842,377.495C112.823,359.739 112.182,356.715 116.435,356.091C120.863,355.442 121.296,359.043 121.353,359.519C121.707,362.457 121.496,362.46 121.436,396.5C121.424,403.457 118.444,401.845 111.504,402.06Z" style="fill:rgb(53,58,60);"/>
            </g>
        </g>
        <g transform="matrix(1,0,0,1,-2810,615.951026)">
            <g transform="matrix(1.332464,0,0,1.332464,16322.924586,-1170.20369)">
                <path d="M390.998,1097.77C392.679,1099.673 392.578,1104.325 404.487,1105.439C410.055,1105.961 409.673,1107.049 412.391,1108.594C414.466,1107.356 413.131,1106.164 415.219,1104.919C415.405,1104.807 415.899,1104.513 417.906,1105.304C418.898,1105.695 419.528,1107.063 420.594,1107.038C421.683,1107.012 422.208,1105.366 423.281,1105.178C424.541,1104.957 425.887,1105.37 427.048,1105.906C427.768,1106.239 427.863,1107.683 428.656,1107.66C428.819,1107.656 430.203,1105.844 433.795,1105.187C435.903,1104.801 438.064,1104.685 440.144,1104.165C441.981,1103.706 441.748,1103.327 447.433,1097.924C502.514,1122.915 491.37,1179.509 483.7,1195.286C481.75,1199.297 469.925,1223.621 442.182,1232.481C419.605,1239.692 408.875,1236.629 398.71,1233.459C345.917,1216.993 326.467,1152.65 371.451,1110.358C380.092,1102.777 383.096,1101.447 390.998,1097.77ZM415.634,1112.387C417.545,1112.217 424.52,1109.903 425.528,1116.728C426.931,1126.234 431.082,1122.695 439.701,1126.897C446.446,1130.185 441.78,1142.477 436.651,1141.55C435.84,1141.404 424.637,1135.444 415.413,1138.613C409.881,1140.514 407.573,1148.704 418.343,1153.38C427.167,1157.21 450.007,1163.132 446.922,1183.744C444.596,1199.284 427.481,1199.938 425.801,1205.293C424.789,1208.521 427.345,1216.191 417.946,1215.494C408.437,1214.789 415.222,1205.727 407.008,1203.124C395.964,1199.624 386.908,1201.943 392.274,1189.723C397.302,1178.274 409.579,1195.022 422.821,1188.352C429.286,1185.096 429.188,1176.146 417.419,1171.495C412.301,1169.473 412.271,1169.726 407.172,1167.683C384.946,1158.779 387.787,1136.06 404.571,1127.587C411.275,1124.202 411.168,1123.563 412.66,1116.682C413.348,1113.51 414.679,1113.262 415.634,1112.387Z" style="fill:rgb(57,62,64);"/>
            </g>
        </g>
        <g transform="matrix(1,0,0,1,-2810,615.951026)">
            <g transform="matrix(3.580996,0,0,3.580996,16322.924586,-1170.20369)">
                <path d="M145.488,408.472C153.067,405.631 157.382,405.205 166.487,408.53C164.371,410.54 171.841,416.337 171.158,416.508C170.384,416.701 165.839,414.163 166.439,414.688C170.129,417.918 163.828,415.618 163.768,415.62C163.473,415.628 161.005,413.547 161.258,413.699C163.66,415.141 167.458,418.893 161.805,415.973C161.445,415.788 156.905,411.912 156.5,411.921C156.103,411.93 162.781,416.605 162.412,416.46C161.665,416.166 155.697,412.662 155.628,412.703C154.851,413.167 154.063,413.925 153.291,414.385C152.279,413.81 149.908,417.647 147.836,417.453C143.405,417.038 146.113,409.181 145.488,408.472Z" style="fill:rgb(57,62,64);"/>
            </g>
        </g>
        <g transform="matrix(1,0,0,1,-2810,615.951026)">
            <g transform="matrix(3.580996,0,0,3.580996,16322.924586,-1170.20369)">
                <path d="M163.214,377.633C163.58,377.132 162.598,375.745 162.964,375.243C163.068,375.101 163.765,372.522 164.366,370.572C165.155,368.011 163.075,365.783 163.059,365.556C162.566,358.667 166.02,364.236 166.311,364.1C166.795,363.873 170.831,370.822 171.202,370.437C172.999,368.568 171.234,375.625 171.202,375.949C170.726,380.738 165.649,379.475 164.322,380.562C163.952,379.586 163.583,378.61 163.214,377.633Z" style="fill:rgb(56,60,62);"/>
            </g>
        </g>
        <g transform="matrix(1,0,0,1,-2810,615.951026)">
            <g transform="matrix(3.580996,0,0,3.580996,16322.924586,-1170.20369)">
                <path d="M143.429,416.502C144.345,417.901 146.375,418.022 144.775,418.557C144.069,418.793 143.562,418.02 143.5,417.925C143.081,417.285 143.845,417.137 143.429,416.502Z" style="fill:rgb(54,59,61);"/>
            </g>
        </g>
    </g>
</svg>
