<?xml version="1.0" encoding="UTF-8" standalone="no"?>
<!DOCTYPE svg PUBLIC "-//W3C//DTD SVG 1.1//EN" "http://www.w3.org/Graphics/SVG/1.1/DTD/svg11.dtd">
<svg width="100%" height="100%" viewBox="0 0 450 288" version="1.1" xmlns="http://www.w3.org/2000/svg" xmlns:xlink="http://www.w3.org/1999/xlink" xml:space="preserve" xmlns:serif="http://www.serif.com/" style="fill-rule:evenodd;clip-rule:evenodd;stroke-linejoin:round;stroke-miterlimit:2;">
    <g transform="matrix(1,0,0,1,-13154,-3890.884074)">
        <g transform="matrix(1,0,0,1,-2248,3778.455611)">
            <g transform="matrix(3.585604,0,0,3.585604,13087.609433,-371.610872)">
                <path d="M712.5,215.032C705.889,214.921 687.661,214.968 685.501,214.973C674.651,215.001 668.001,216.749 670.84,204.594C675.713,183.728 692.761,179.314 693.509,179.367C694.697,179.451 701.209,184.249 709.514,183.74C716.026,183.341 720.463,180.677 721.309,180.17C722.491,179.46 722.996,178.48 729.685,182.153C745.339,190.749 748.231,210.281 745.231,213.247C742.738,215.711 738.706,214.977 716.499,214.969C715.491,214.969 712.82,215.025 712.5,215.032Z" style="fill:rgb(55,61,63);"/>
            </g>
        </g>
        <g transform="matrix(1,0,0,1,-2248,3778.455611)">
            <g transform="matrix(3.585604,0,0,3.585604,13087.609433,-371.610872)">
                <path d="M688.685,163.427C683.333,144.463 698.423,136.77 701.628,135.938C720.212,131.114 727.617,146.158 728.639,150.465C734.577,175.495 699.917,188.482 688.685,163.427Z" style="fill:rgb(55,61,62);"/>
            </g>
        </g>
        <g transform="matrix(1,0,0,1,-2248,3778.455611)">
            <g transform="matrix(3.585604,0,0,3.585604,13087.609433,-371.610872)">
                <path d="M770.93,193.426C771.346,199.385 768.586,198.78 755.497,198.7C752.388,198.681 750.115,199.386 748.748,196.381C748.129,195.02 743.393,184.605 737.574,181.394C736.415,180.754 736.112,180.739 736.365,179.443C736.488,178.809 739.744,177.04 742.308,177.985C752.805,181.852 755.148,176.63 758.42,177.732C769.853,181.583 770.657,192.231 770.93,193.426Z" style="fill:rgb(57,62,64);"/>
            </g>
        </g>
        <g transform="matrix(1,0,0,1,-2248,3778.455611)">
            <g transform="matrix(3.585604,0,0,3.585604,13087.609433,-371.610872)">
                <path d="M645.896,192.59C646.574,189.924 647.85,181.315 657.645,177.931C661.021,176.765 663.829,180.719 671.615,178.948C675.629,178.036 675.87,176.568 679.382,178.696C681.182,179.786 680.343,180.439 678.607,181.651C670.939,187.004 668.097,197.206 667.091,198.013C666.056,198.845 665.832,199.025 650.497,198.643C649.978,198.63 644.989,198.506 645.505,194.5C645.588,193.856 645.813,193.235 645.896,192.59Z" style="fill:rgb(56,61,63);"/>
            </g>
        </g>
        <g transform="matrix(1,0,0,1,-2248,3778.455611)">
            <g transform="matrix(3.585604,0,0,3.585604,13087.609433,-371.610872)">
                <path d="M667.501,151.194C670.382,151.513 676.569,151.916 679.444,160.516C682.37,169.27 670.408,180.578 660.678,173.252C652.083,166.782 655.311,152.656 666.475,151.254C666.815,151.212 667.161,151.237 667.501,151.194Z" style="fill:rgb(55,60,62);"/>
            </g>
        </g>
        <g transform="matrix(1,0,0,1,-2248,3778.455611)">
            <g transform="matrix(3.585604,0,0,3.585604,13087.609433,-371.610872)">
                <path d="M752.385,175.134C748.142,176.001 744.005,176.136 739.376,170.602C732.53,162.417 741.102,146.644 754.45,152.599C760.667,155.372 766.166,168.936 752.385,175.134Z" style="fill:rgb(55,60,62);"/>
            </g>
        </g>
    </g>
</svg>
