<?xml version="1.0" encoding="UTF-8" standalone="no"?>
<!DOCTYPE svg PUBLIC "-//W3C//DTD SVG 1.1//EN" "http://www.w3.org/Graphics/SVG/1.1/DTD/svg11.dtd">
<svg width="100%" height="100%" viewBox="0 0 450 451" version="1.1" xmlns="http://www.w3.org/2000/svg" xmlns:xlink="http://www.w3.org/1999/xlink" xml:space="preserve" xmlns:serif="http://www.serif.com/" style="fill-rule:evenodd;clip-rule:evenodd;stroke-linejoin:round;stroke-miterlimit:2;">
    <g transform="matrix(1,0,0,1,-9782,-646.769711)">
        <g transform="matrix(1,0,0,1,-1124,615.951026)">
            <g transform="matrix(1.233592,0,0,1.233592,10750.824526,-303.432442)">
                <path d="M281.028,634.318C280.173,634.117 273.355,632.513 270.32,631.869C265.988,630.951 240.851,625.62 218.572,612.242C215.002,610.098 193.009,596.891 177.404,580.392C132.219,532.619 128.433,482.558 127.184,474.414C121.306,436.09 134.202,379.165 162.836,342.846C194.068,303.233 226.413,290.303 226.425,290.297C316.536,244.107 445.953,280.371 483.833,402.169C493.7,433.893 493.145,483.725 479.509,517.27C457.534,571.327 423.015,595.18 421.469,596.404C358.831,645.995 292.992,635.501 281.028,634.318ZM291.77,537.722C293.457,538.007 309.591,543.009 336.933,535.034C361.465,527.878 377.365,509.552 380.079,506.424C383.275,502.739 388.234,494.85 396.5,498.339C408.494,503.402 397.971,516.588 396.999,517.806C384.311,533.703 367.302,548.545 334.458,557.099C318.607,561.228 258.309,568.295 217.986,515.397C207.853,502.104 221.644,490.773 232.221,501.454C246.464,515.837 245.445,518.88 272.241,531.949C280.718,536.084 288.094,536.903 291.77,537.722ZM245.948,384.722C248.621,385.065 259.15,384.543 266.796,396.787C276.224,411.884 267.033,439.444 240.652,435.995C214.266,432.545 207.379,386.463 245.948,384.722ZM372.238,384.734C378.583,385.448 384.012,385.317 391.314,393.474C404.831,408.57 394.861,440.617 367.006,435.93C342.11,431.742 334.114,387.418 372.238,384.734Z" style="fill:rgb(58,62,65);"/>
            </g>
        </g>
    </g>
</svg>
