<?xml version="1.0" encoding="UTF-8" standalone="no"?>
<!DOCTYPE svg PUBLIC "-//W3C//DTD SVG 1.1//EN" "http://www.w3.org/Graphics/SVG/1.1/DTD/svg11.dtd">
<svg width="100%" height="100%" viewBox="0 0 450 445" version="1.1" xmlns="http://www.w3.org/2000/svg" xmlns:xlink="http://www.w3.org/1999/xlink" xml:space="preserve" xmlns:serif="http://www.serif.com/" style="fill-rule:evenodd;clip-rule:evenodd;stroke-linejoin:round;stroke-miterlimit:2;">
    <g transform="matrix(1,0,0,1,-8096.069692,-33.679161)">
        <g transform="matrix(1,0,0,1,-562,0)">
            <g transform="matrix(2.652202,0,0,2.652202,7759.894448,-1163.452473)">
                <path d="M491.047,458.273C492.138,457.921 492.997,458.053 495.342,456.493C501.002,452.731 501.05,449.338 506.862,452.838C512.045,455.959 502.421,465.289 493.877,467.176C490.13,468.003 480.227,466.416 472.879,474.187C469.414,477.85 473.042,479.428 478.456,483.748C487.043,490.6 481.887,493.433 474.04,503.494C470.327,508.255 474.375,509.51 477.969,517.901C483.456,530.715 483.593,541.437 483.62,543.537C484.232,591.681 447.908,610.375 435.983,614.6C375.783,635.928 320.201,576.281 344.49,517.933C345.61,515.242 351.627,500.788 366.6,488.977C373.412,483.603 382.831,479.354 383.639,479.043C412.593,467.899 431.141,477.966 434.868,476.696C435.819,476.372 436.14,476.263 443.097,467.207C449.206,459.255 452.087,462.931 456.656,466.37C461.221,469.806 462,472.803 465.893,468.558C475.476,458.108 483.596,458.695 491.047,458.273ZM359.086,523.229C360.052,521.327 363.443,512.927 373.317,503.662C377.639,499.606 397.899,486.008 401.225,493.769C403.963,500.159 397.299,499.329 387.803,504.79C386.876,505.323 380.929,508.743 377.144,512.854C360.985,530.406 367.657,543.652 359.394,542.599C353.615,541.863 354.726,535.348 359.086,523.229Z" style="fill:rgb(54,61,62);"/>
            </g>
        </g>
    </g>
</svg>
