<?xml version="1.0" encoding="UTF-8" standalone="no"?>
<!DOCTYPE svg PUBLIC "-//W3C//DTD SVG 1.1//EN" "http://www.w3.org/Graphics/SVG/1.1/DTD/svg11.dtd">
<svg width="100%" height="100%" viewBox="0 0 450 444" version="1.1" xmlns="http://www.w3.org/2000/svg" xmlns:xlink="http://www.w3.org/1999/xlink" xml:space="preserve" xmlns:serif="http://www.serif.com/" style="fill-rule:evenodd;clip-rule:evenodd;stroke-linejoin:round;stroke-miterlimit:2;">
    <g transform="matrix(1,0,0,1,-8658,-34.218452)">
        <g transform="matrix(1,0,0,1,-0.069692,0)">
            <g transform="matrix(3.544675,0,0,3.544675,7067.78123,-1155.330753)">
                <path d="M485.352,384.632C483.781,383.513 483.787,383.527 483.616,383.382C477.075,377.833 479.493,369.042 481.725,365.653C488.58,355.246 502.722,358.39 511.284,350.283C517.477,344.421 512.297,338.511 512.462,336.493C512.514,335.855 513.004,334.286 520.358,337.796C547.849,350.919 547.151,369.665 544.75,376.583C542.158,384.05 539.856,384.393 539.878,384.712C539.901,385.05 540.273,385.266 540.427,385.567C540.511,385.731 540.416,386.026 540.587,386.096C540.766,386.17 542.193,385.8 543.497,385.765C560.969,385.288 567.395,405.399 558.703,414.664C557.382,416.072 557.68,416.853 559.592,417.149C568.078,418.463 577.638,429.258 575.208,442.446C572.159,458.992 556.951,460.535 555.507,460.631C552.991,460.799 470.582,460.688 469.495,460.67C458.727,460.494 445.369,449.985 449.366,432.474C451.862,421.54 461.982,417.512 464.411,417.117C468.052,416.524 464.959,414.313 464.455,413.532C460.942,408.087 461.562,402.502 461.671,401.522C462.492,394.132 468.784,389.276 470.468,388.44C478.073,384.664 482.689,386.151 484.468,386.289C484.764,386.165 485.135,386.435 485.432,386.311C486.039,386.056 486.231,385.055 486.12,384.927C485.941,384.719 485.531,384.84 485.352,384.632Z" style="fill:rgb(55,61,63);"/>
            </g>
        </g>
    </g>
</svg>
