<?xml version="1.0" encoding="UTF-8" standalone="no"?>
<!DOCTYPE svg PUBLIC "-//W3C//DTD SVG 1.1//EN" "http://www.w3.org/Graphics/SVG/1.1/DTD/svg11.dtd">
<svg width="100%" height="100%" viewBox="0 0 450 323" version="1.1" xmlns="http://www.w3.org/2000/svg" xmlns:xlink="http://www.w3.org/1999/xlink" xml:space="preserve" xmlns:serif="http://www.serif.com/" style="fill-rule:evenodd;clip-rule:evenodd;stroke-linejoin:round;stroke-miterlimit:2;">
    <g transform="matrix(1,0,0,1,-6410.069692,-100.859589)">
        <g transform="matrix(1,0,0,1,3.006674,6.249502)">
            <g transform="matrix(3.584057,0,0,3.584057,4796.878925,-370.877018)">
                <path d="M488.455,142.446C495.435,136.877 495.116,136.525 502.291,131.216C507.535,127.335 509.175,132.974 509.358,134.516C509.611,136.636 509.467,188.781 509.454,193.499C509.391,216.465 509.699,216.731 508.294,218.343C505.573,221.465 502.256,219.153 498.749,216.212C497.054,214.791 481.373,201.641 477.681,198.299C473.952,194.923 473.443,195.645 463.499,195.634C458.195,195.629 450.323,196.631 449.492,190.501C449.066,187.36 449.36,162.899 449.389,160.499C449.481,152.812 456.501,154.832 470.501,154.63C474.702,154.57 474.881,154.212 488.455,142.446Z" style="fill:rgb(55,60,63);"/>
            </g>
        </g>
        <g transform="matrix(1,0,0,1,3.006674,6.249502)">
            <g transform="matrix(3.584057,0,0,3.584057,4796.878925,-370.877018)">
                <path d="M563.886,165.431C561.794,154.905 559.829,150.42 550.036,137.879C546.329,133.132 552.168,127.219 556.759,131.198C567.402,140.421 572.305,157.109 573.043,159.623C573.471,161.079 575.196,166.953 574.744,178.512C574.091,195.21 564.896,210.857 558.351,217.343C551.803,223.83 547.528,216.597 549.55,212.527C551.672,208.255 555.257,208.796 561.655,193.563C563.206,189.87 564.802,179.469 564.848,178.531C565.175,171.933 564.959,171.959 563.886,165.431Z" style="fill:rgb(54,58,62);"/>
            </g>
        </g>
        <g transform="matrix(1,0,0,1,3.006674,6.249502)">
            <g transform="matrix(3.584057,0,0,3.584057,4796.878925,-370.877018)">
                <path d="M544.871,173.482C543.856,161.21 537.453,154.259 535.868,152.215C531.138,146.116 538.326,140.842 543.313,145.692C552.331,154.464 554.265,168.335 554.566,170.492C556.855,186.907 545.725,204.671 540.404,206.142C538.929,206.55 536.332,205.733 535.475,204.522C532.153,199.826 537.128,197.291 539.068,194.183C545.861,183.296 544.87,175.116 544.871,173.482Z" style="fill:rgb(54,58,61);"/>
            </g>
        </g>
        <g transform="matrix(1,0,0,1,3.006674,6.249502)">
            <g transform="matrix(3.584057,0,0,3.584057,4796.878925,-370.877018)">
                <path d="M520.793,165.295C520.721,165.137 519.872,163.977 519.827,162.481C519.82,162.241 519.774,160.689 520.612,159.577C527.734,150.128 542.535,173.343 529.096,190.156C524.309,196.145 516.814,190.069 521.168,184.244C527.789,175.384 524.789,171.016 520.793,165.295Z" style="fill:rgb(54,59,62);"/>
            </g>
        </g>
    </g>
</svg>
